<svg width="1006" height="734" viewBox="0 0 1006 734" fill="none" xmlns="http://www.w3.org/2000/svg">
<path d="M440.305 181.215H158.283C154.058 181.215 150.602 177.758 150.602 173.535V7.68037C150.602 3.45647 154.058 0 158.283 0H440.305C444.53 0 447.986 3.45647 447.986 7.68037V173.535C447.986 177.758 444.53 181.215 440.305 181.215Z" fill="#303030"/>
<path d="M432.848 9.72339H163.072V171.483H432.848V9.72339Z" fill="#4C8EB5"/>
<path d="M386.605 21.4619H203.696V151.294H386.605V21.4619Z" fill="#F0F0F0"/>
<path d="M388.382 153.061H201.932V19.6956H388.382V153.061ZM205.466 149.527H384.848V23.236H205.466V149.527Z" fill="#808080"/>
<path d="M215.051 122.989C214.793 122.989 214.529 122.931 214.278 122.815C213.4 122.389 213.033 121.331 213.458 120.454L225.151 96.3749C225.422 95.8204 225.957 95.4463 226.57 95.3883C227.183 95.3367 227.782 95.5882 228.15 96.0783L240.068 111.813L265.846 52.3948C266.137 51.7242 266.852 51.2791 267.53 51.3307C268.252 51.3501 268.89 51.8209 269.135 52.5044L281.686 87.8885L318.699 36.9179C319.079 36.3955 319.685 36.1182 320.35 36.2085C320.994 36.2923 321.536 36.718 321.775 37.3113L341.897 88.6688L368.442 33.068C368.861 32.191 369.913 31.817 370.803 32.2361C371.68 32.6553 372.054 33.7129 371.635 34.5899L343.335 93.86C343.032 94.4984 342.361 94.9047 341.678 94.866C340.975 94.8466 340.349 94.4017 340.091 93.7503L319.66 41.6061L282.576 92.6734C282.189 93.2086 281.531 93.4794 280.893 93.3827C280.241 93.2924 279.7 92.8475 279.48 92.2284L267.304 57.9084L242.106 115.985C241.855 116.559 241.32 116.959 240.694 117.037C240.075 117.101 239.456 116.85 239.075 116.347L227.073 100.496L216.644 121.983C216.335 122.621 215.709 122.989 215.051 122.989Z" fill="#F3AA43"/>
<path d="M339.454 171.161V103.882C339.454 99.8835 336.184 96.614 332.185 96.614H262.848C258.85 96.614 255.58 99.8835 255.58 103.882V171.161H339.454Z" fill="#303030"/>
<path d="M279.458 171.163C268.797 168.306 256.35 164.978 242.684 161.47C242.658 161.47 242.626 161.445 242.593 161.445L244.631 171.163H279.458V171.163Z" fill="#EAB99A"/>
<path d="M349.962 171.163L352 161.445C351.967 161.445 351.935 161.47 351.909 161.47C338.243 164.978 325.796 168.306 315.135 171.163H349.962V171.163Z" fill="#EAB99A"/>
<path d="M318.976 119.03C324.083 98.6712 328.146 80.0861 328.146 72.5475C328.146 52.3051 314.435 35.8931 297.512 35.8931C280.596 35.8931 266.878 52.3051 266.878 72.5475C266.878 80.0861 271.315 98.6712 276.874 119.03H318.976Z" fill="#8D5C3E"/>
<path d="M313.638 57.4304C313.638 57.4304 329.252 82.9028 304.79 101.256L287.615 99.7662C287.615 99.7662 276.935 88.0747 279.528 76.7959L313.638 57.4304Z" fill="#6D3C1F"/>
<path d="M246.23 171.16H256.472C256.923 170.393 257.259 169.555 257.343 168.613C257.736 164.241 257.523 159.114 259.568 153.878L259.78 153.304C260.574 151.26 261.361 149.215 262.147 147.21C262.399 146.494 262.683 145.81 262.934 145.133C262.934 145.133 262.973 145.095 262.934 145.095C263.94 142.444 264.908 139.858 265.843 137.388C266.094 136.711 266.346 136.028 266.597 135.376C269.79 126.806 272.118 120.209 272.337 119.564C273.343 116.514 272.015 113.219 269.325 111.458C268.822 111.097 268.177 110.813 267.5 110.6C267.32 110.53 267.107 110.491 266.926 110.459C263.553 109.595 260.148 111.213 258.678 114.115C258.607 114.296 258.536 114.437 258.497 114.618C251.003 131.572 247.236 141.109 242.612 159.791C242.251 161.223 242.793 162.661 243.077 164.131C243.857 168.22 244.65 169.819 246.23 171.16Z" fill="#EAB99A"/>
<path d="M328.014 135.376C329.342 139.033 330.845 143.05 332.425 147.139C333.218 149.183 334.037 151.266 334.831 153.31L335.011 153.884C337.056 159.12 336.843 164.247 337.236 168.619C337.32 169.561 337.655 170.399 338.107 171.167H348.368C349.948 169.825 350.728 168.22 351.509 164.138C351.792 162.667 352.334 161.229 351.973 159.798C347.349 141.116 343.582 131.578 336.12 114.624C336.049 114.444 335.979 114.302 335.908 114.121C334.437 111.22 331.064 109.601 327.698 110.465C327.485 110.497 327.304 110.536 327.091 110.607C326.408 110.82 325.795 111.11 325.26 111.465C322.603 113.219 321.28 116.52 322.287 119.571C322.493 120.215 324.828 126.813 328.014 135.376Z" fill="#EAB99A"/>
<path d="M260.786 142.374C260.786 144.095 261.321 145.708 262.256 147.21C263.191 148.681 264.514 150.009 266.132 151.118C267.28 151.911 268.57 152.588 269.97 153.201C270.724 153.524 271.44 153.807 272.227 154.027C272.337 154.278 272.446 154.53 272.517 154.781C274.826 160.566 276.509 165.937 277.49 171.167H317.198C318.198 165.828 319.945 160.34 322.319 154.42V154.388C322.351 154.246 322.351 154.168 322.429 154.027C322.609 153.988 322.79 153.917 322.964 153.846C323.641 153.633 324.254 153.414 324.86 153.13C324.97 153.098 325.002 153.059 325.111 152.988C328.413 151.55 330.954 149.545 332.425 147.139C333.36 145.669 333.857 144.057 333.857 142.374C333.857 139.897 332.747 137.602 330.845 135.635L335.901 116.992C335.901 113.406 332.457 110.466 328.226 110.466H319.797C316.605 110.324 313.986 109.75 311.871 108.776C310.368 108.099 309.111 107.235 308.072 106.196C307.608 105.732 307.214 105.261 306.853 104.726C305.273 102.54 304.416 99.7735 304.022 96.6201H290.607C290.214 99.7735 289.35 102.534 287.776 104.726C287.415 105.261 286.989 105.732 286.525 106.196C285.487 107.241 284.268 108.099 282.759 108.776C280.643 109.743 278.025 110.317 274.832 110.466H265.939C261.921 110.678 258.729 113.509 258.729 116.992L263.785 135.635C261.902 137.602 260.786 139.897 260.786 142.374Z" fill="#EAB99A"/>
<path d="M330.633 144.127C330.633 147.712 328.447 150.905 325.113 152.981C325.003 153.052 324.971 153.091 324.861 153.123C324.287 153.484 323.642 153.8 322.997 154.09C322.746 154.2 322.572 154.309 322.32 154.38V154.413C320.276 155.167 317.948 155.599 315.503 155.599C307.113 155.599 300.334 150.473 300.334 144.127C300.334 137.814 307.113 132.655 315.503 132.655C317.87 132.655 320.095 133.087 322.101 133.841C327.157 135.666 330.633 139.606 330.633 144.127Z" fill="#F5C4A5"/>
<path d="M293.304 144.127C293.304 150.473 286.487 155.599 278.135 155.599C276.162 155.599 274.227 155.315 272.505 154.774C271.57 154.522 270.751 154.2 269.957 153.807C268.455 153.052 267.158 152.162 266.12 151.117C264.398 149.434 263.321 147.358 263.031 145.133C263.031 145.133 263.07 145.094 263.031 145.094C262.999 144.772 262.999 144.449 262.999 144.127C262.999 141.618 264.076 139.29 265.939 137.388C267.158 136.027 268.88 134.88 270.815 134.054C272.963 133.196 275.478 132.655 278.129 132.655C286.493 132.655 293.304 137.82 293.304 144.127Z" fill="#F5C4A5"/>
<path d="M316.233 69.8643C316.233 83.4002 307.927 99.7604 297.588 99.7604C297.098 99.7604 296.64 99.7282 296.176 99.6379C286.489 98.2515 278.795 82.7811 278.795 69.8643C278.795 56.9153 286.392 46.3329 296.086 45.3785C296.55 45.3527 297.008 45.3206 297.498 45.3206C307.836 45.3206 316.233 56.3027 316.233 69.8643Z" fill="#EAB99A"/>
<path d="M313.402 69.8662C313.402 82.7829 305.83 98.2533 296.176 99.6398C286.489 98.2533 278.795 82.7829 278.795 69.8662C278.795 69.4664 278.795 69.0342 278.859 68.6344C279.162 59.6256 283.193 51.8678 288.978 48.0244C290.61 46.9216 292.332 46.1478 294.177 45.7222L294.299 45.6899C294.331 45.6577 294.396 45.6577 294.422 45.6577C294.976 45.5351 295.531 45.4449 296.086 45.3804C297.285 45.5029 298.452 45.7802 299.594 46.1801C306.637 48.7015 312.022 56.4206 313.157 66.0227C313.305 67.2866 313.402 68.5764 313.402 69.8662Z" fill="#F5C4A5"/>
<path d="M276.792 52.1901C276.792 52.1901 280.372 60.6508 295.624 62.953C310.884 65.2617 313.96 72.1811 315.501 76.7919C315.501 76.7919 323.963 56.7945 311.142 49.1076C298.327 41.4272 282.429 39.3765 276.792 52.1901Z" fill="#8D5C3E"/>
<path d="M259.67 153.88L259.883 153.306C260.676 151.262 261.463 149.218 262.249 147.212C263.185 148.683 264.507 150.011 266.126 151.12C267.164 152.165 268.454 153.055 269.963 153.809C270.756 154.209 271.575 154.525 272.51 154.777C274.819 160.561 276.502 165.933 277.483 171.163H317.191C318.191 165.823 319.939 160.335 322.312 154.415V154.383C322.564 154.312 322.744 154.203 322.989 154.093C323.634 153.809 324.279 153.487 324.853 153.126C324.963 153.093 324.995 153.055 325.105 152.984C328.407 151.546 330.948 149.54 332.418 147.135C333.211 149.179 334.03 151.262 334.824 153.306L335.004 153.88C335.643 155.518 336.049 157.143 336.333 158.743C338.958 158.027 341.538 157.201 343.911 155.86C346.02 154.667 347.903 153.171 349.889 151.83C346.104 138.049 342.434 128.988 336.12 114.62C336.049 114.44 335.978 114.298 335.907 114.118C334.437 111.216 331.064 109.597 327.697 110.461H319.81C316.617 110.319 313.999 109.745 311.883 108.771L297.327 122.146L282.771 108.771C280.656 109.739 278.037 110.313 274.845 110.461H267.028C263.662 109.597 260.25 111.216 258.78 114.118C258.709 114.298 258.638 114.44 258.599 114.62C252.092 129.343 248.396 138.481 244.507 152.855C248.332 156.421 253.233 158.085 258.173 159.736C258.451 157.827 258.896 155.86 259.67 153.88Z" fill="#FD6D60"/>
<path d="M338.912 171.162V138.067C338.912 136.242 337.415 134.746 335.59 134.746H258.359C256.534 134.746 255.038 136.242 255.038 138.067V171.162H338.912Z" fill="#606060"/>
<path d="M296.096 161.309C298.917 161.309 301.204 159.022 301.204 156.202C301.204 153.381 298.917 151.094 296.096 151.094C293.275 151.094 290.988 153.381 290.988 156.202C290.988 159.022 293.275 161.309 296.096 161.309Z" fill="#D0D0D0"/>
<path d="M249.608 290.728H6.61702C2.9796 290.728 0 287.748 0 284.111V141.208C0 137.571 2.97315 134.592 6.61702 134.592H249.608C253.246 134.592 256.225 137.571 256.225 141.208V284.111C256.225 287.755 253.246 290.728 249.608 290.728Z" fill="#303030"/>
<path d="M243.197 142.974H10.7568V282.35H243.197V142.974Z" fill="#D5E5E6"/>
<path d="M202.96 149.643H40.3208V265.087H202.96V149.643Z" fill="#F0F0F0"/>
<path d="M204.533 266.654H38.7466V148.068H204.533V266.654ZM41.8938 263.507H201.392V151.209H41.8938V263.507Z" fill="#808080"/>
<path d="M527.383 345H284.392C280.754 345 277.775 342.021 277.775 338.384V195.48C277.775 191.843 280.754 188.864 284.392 188.864H527.383C531.021 188.864 534 191.843 534 195.48V338.384C534.007 342.021 531.027 345 527.383 345Z" fill="#303030"/>
<path d="M520.971 197.24H288.531V336.616H520.971V197.24Z" fill="#F8BE49"/>
<path d="M480.734 203.909H318.095V319.354H480.734V203.909Z" fill="#F0F0F0"/>
<path d="M482.307 320.92H316.521V202.334H482.307V320.92ZM319.668 317.779H479.167V205.475H319.668V317.779Z" fill="#808080"/>
<path d="M186.388 253.255C186.368 253.255 186.356 253.255 186.336 253.255C185.091 253.235 184.014 252.365 183.731 251.152L167.717 183.564L132.284 239.538C131.743 240.402 130.769 240.886 129.73 240.796C128.711 240.706 127.828 240.048 127.441 239.1L107.1 189.122L87.0101 241.77C86.6231 242.769 85.7009 243.453 84.6432 243.524C83.521 243.569 82.5665 243.04 82.057 242.111L64.7921 210.577L51.2421 249.863C50.752 251.288 49.1977 252.049 47.7659 251.552C46.3406 251.062 45.5861 249.508 46.0762 248.076L61.6384 202.955C61.9867 201.929 62.9154 201.214 63.9925 201.123C65.1017 201.007 66.1014 201.588 66.6238 202.536L84.0112 234.295L104.462 180.694C104.868 179.643 105.868 178.946 106.99 178.933C108.157 178.817 109.125 179.604 109.55 180.636L130.504 232.122L166.569 175.148C167.149 174.219 168.233 173.736 169.329 173.916C170.413 174.097 171.283 174.916 171.541 175.986L186.601 239.564L194.262 212.06C194.669 210.603 196.178 209.758 197.629 210.164C199.08 210.571 199.931 212.073 199.525 213.531L189.019 251.262C188.697 252.442 187.613 253.255 186.388 253.255Z" fill="#4C8EB5"/>
<path d="M323.324 295.267C323.028 295.267 322.731 295.222 322.434 295.119C321.009 294.629 320.248 293.068 320.738 291.643L336.3 246.515C336.649 245.503 337.551 244.787 338.622 244.684C339.68 244.606 340.712 245.103 341.247 246.032L355.461 270.485L379.246 223.99C379.737 223.035 380.723 222.397 381.8 222.507C382.871 222.552 383.813 223.216 384.212 224.209L405.173 275.689L441.231 218.721C441.824 217.786 442.934 217.309 444.011 217.49C445.1 217.677 445.971 218.502 446.21 219.579L454.891 257.975L472.762 230.368C473.587 229.097 475.29 228.749 476.541 229.555C477.811 230.374 478.166 232.07 477.354 233.334L455.955 266.397C455.355 267.325 454.252 267.802 453.175 267.602C452.098 267.409 451.234 266.59 450.989 265.513L442.327 227.208L406.946 283.099C406.404 283.963 405.456 284.459 404.392 284.356C403.373 284.266 402.49 283.615 402.103 282.667L381.4 231.786L358.054 277.43C357.596 278.32 356.693 278.894 355.693 278.92C354.629 278.862 353.759 278.423 353.256 277.559L339.531 253.938L325.917 293.417C325.517 294.558 324.459 295.267 323.324 295.267Z" fill="#F55D51"/>
<path d="M203.589 282.35L202.763 274.54C201.506 270.233 199.455 267.75 193.573 265.364L186.653 282.35H203.589V282.35Z" fill="#4C8EB5"/>
<path d="M72.1206 282.351C71.5273 281.784 71.0629 281.339 70.8566 281.132L61.1503 271.272C58.3255 268.402 53.4692 269.525 52.1857 273.342L50.3477 282.357H72.1206V282.351Z" fill="#4C8EB5"/>
<path d="M147.549 227.994H107.938V273.741H147.549V227.994Z" fill="#DEAD8E"/>
<path d="M150.184 207.958C153.048 209.002 156.066 207.455 156.885 204.521L159.42 195.46C160.123 192.945 158.691 190.159 156.24 189.263C153.377 188.218 150.359 189.766 149.539 192.7L147.005 201.76C146.296 204.269 147.734 207.055 150.184 207.958Z" fill="#EAB99A"/>
<path d="M152.774 181.242L153.586 213.814C153.651 216.465 153.18 219.45 151.826 222.643C148.53 230.381 148.53 230.381 137.218 241.737C135.876 243.111 132.316 244.362 127.931 244.4C127.196 244.42 126.493 244.433 125.822 244.413C122.391 244.207 119.676 243.298 118.495 242.202C106.635 231.432 106.635 231.432 102.953 223.861C101.437 220.74 100.811 217.78 100.747 215.13L99.9343 182.557C99.6828 172.588 106.68 164.243 115.484 164.024L136.315 163.501C145.118 163.289 152.529 171.272 152.774 181.242Z" fill="#EAB99A"/>
<path d="M148.556 181.349L149.368 213.922C149.433 216.565 148.994 219.558 147.633 222.75C144.338 230.488 144.338 230.488 133.026 241.838C131.865 242.992 129.24 244.037 125.822 244.411C122.391 244.205 119.676 243.295 118.496 242.199C106.635 231.43 106.635 231.43 102.953 223.859C101.437 220.738 100.811 217.778 100.747 215.127L99.9343 182.555C99.6828 172.585 106.68 164.241 115.484 164.021L132.097 163.602C140.9 163.389 148.304 171.373 148.556 181.349Z" fill="#F4CAAF"/>
<path d="M103.608 209.117C100.796 210.31 97.7069 208.911 96.746 206.022L93.7664 197.097C92.9409 194.621 94.2243 191.764 96.6299 190.745C99.4418 189.552 102.531 190.951 103.492 193.84L106.478 202.765C107.304 205.248 106.014 208.105 103.608 209.117Z" fill="#F4CAAF"/>
<path d="M157.672 186.019L152.945 204.359L146.483 181.834L143.077 186.387L136.835 187.851L136.802 187.889L107.258 194.828L100.493 204.766L97.0938 180.351L105.304 155.175L138.924 148.456L145.806 154.672L155.112 163.036L157.672 186.019Z" fill="#F7B23F"/>
<path d="M145.806 154.672L146.212 170.884C146.399 178.352 142.497 184.91 136.835 187.851L136.802 187.889L107.258 194.835L100.493 204.772L97.0938 180.357L105.297 155.182L138.918 148.462L145.806 154.672Z" fill="#F8BE49"/>
<path d="M51.9916 281.233C52.0754 281.607 52.1786 281.975 52.2625 282.349H201.674C201.745 282.039 201.829 281.736 201.9 281.42C201.9 281.343 201.938 281.272 201.938 281.195C203.46 274.598 199.958 268.007 193.896 265.447C193.251 265.163 151.576 256.528 148.983 256.528L128.81 268.8L105.063 256.528C102.864 256.528 64.3356 264.299 62.1751 264.725C55.4291 266.363 51.0436 272.766 51.7272 279.511C51.7659 280.092 51.8819 280.659 51.9916 281.233Z" fill="#4C8EB5"/>
<path d="M437.839 263.905C437.839 289.346 399.343 304.358 399.343 304.358C399.343 304.358 360.847 289.339 360.847 263.905C360.847 238.472 378.086 217.842 399.343 217.842C420.6 217.842 437.839 238.465 437.839 263.905Z" fill="#F3AA43"/>
<path d="M419.595 244.912C419.595 244.912 439.214 276.924 408.47 299.984L386.891 298.114C386.891 298.114 373.463 283.424 376.727 269.25L419.595 244.912Z" fill="#EF893A"/>
<path d="M365.953 337.194C366.275 327.715 366.424 320.841 366.424 320.067C366.424 316.017 363.554 312.606 359.69 311.574C358.884 311.342 358.046 311.232 357.162 311.232C352.461 311.232 348.63 314.598 348.024 318.919C347.985 319.151 347.946 319.338 347.946 319.57C347.385 325.374 347.018 331.262 346.74 337.194H365.953Z" fill="#EAB99A"/>
<path d="M449.295 337.194C449.018 331.268 448.65 325.374 448.089 319.57C448.128 319.344 448.051 319.151 448.012 318.919C447.438 314.598 443.575 311.232 438.873 311.232C438.028 311.232 437.229 311.348 436.461 311.535C432.521 312.528 429.612 315.972 429.612 320.067C429.612 320.847 429.76 327.721 430.089 337.194H449.295Z" fill="#EAB99A"/>
<path d="M442.871 337.194L447.598 319.764C447.598 315.249 443.277 311.541 437.956 311.541H427.36C420.511 311.271 415.771 309.362 412.63 306.183C409.644 303.203 408.115 299.07 407.541 294.175H390.676C390.102 299.07 388.574 303.203 385.549 306.183C382.454 309.362 377.707 311.271 370.858 311.541H360.261C360.068 311.541 359.881 311.541 359.687 311.58C354.638 311.812 350.62 315.404 350.62 319.77L355.347 337.201H442.871V337.194Z" fill="#EAB99A"/>
<path d="M449.297 337.193C449.02 331.267 448.652 325.373 448.091 319.569C448.13 319.343 448.052 319.15 448.014 318.917C447.44 314.597 443.577 311.231 438.875 311.231C438.03 311.231 437.23 311.347 436.463 311.534H427.357C420.507 311.263 415.767 309.354 412.626 306.175H385.539C382.443 309.354 377.697 311.263 370.847 311.534H360.251C360.058 311.534 359.871 311.534 359.677 311.572C358.871 311.34 358.033 311.231 357.149 311.231C352.448 311.231 348.617 314.597 348.01 318.917C347.972 319.15 347.933 319.337 347.933 319.569C347.372 325.373 347.004 331.26 346.727 337.193H449.297Z" fill="#FD6D60"/>
<path d="M422.86 260.539C422.86 277.55 412.419 298.109 399.436 298.109C398.817 298.109 398.237 298.07 397.656 297.954C385.48 296.213 375.812 276.77 375.812 260.539C375.812 244.268 385.358 230.971 397.54 229.772C398.121 229.733 398.701 229.694 399.32 229.694C412.303 229.694 422.86 243.495 422.86 260.539Z" fill="#EAB99A"/>
<path d="M419.3 260.54C419.3 276.778 409.794 296.22 397.656 297.955C385.48 296.214 375.813 276.771 375.813 260.54C375.813 260.037 375.812 259.495 375.89 258.992C376.277 247.668 381.34 237.924 388.608 233.094C390.652 231.708 392.819 230.74 395.141 230.199L395.296 230.16C395.335 230.121 395.412 230.121 395.451 230.121C396.147 229.966 396.844 229.85 397.54 229.773C399.049 229.928 400.513 230.276 401.952 230.779C410.806 233.952 417.565 243.651 418.997 255.71C419.184 257.296 419.3 258.921 419.3 260.54Z" fill="#F5C4A5"/>
<path d="M373.292 238.328C373.292 238.328 377.787 248.956 396.961 251.858C416.141 254.753 420.005 263.452 421.939 269.25C421.939 269.25 432.568 244.126 416.464 234.459C400.36 224.792 380.38 222.219 373.292 238.328Z" fill="#F3AA43"/>
<path d="M298.837 249.72C321.725 249.72 340.28 231.167 340.28 208.281C340.28 185.394 321.725 166.841 298.837 166.841C275.948 166.841 257.394 185.394 257.394 208.281C257.394 231.167 275.948 249.72 298.837 249.72Z" fill="#55ACE0"/>
<path d="M293.532 229C293.532 227.24 294.003 225.899 294.925 224.976C295.854 224.067 297.183 223.596 298.898 223.596C300.588 223.596 301.884 224.074 302.793 225.034C303.696 225.976 304.141 227.311 304.141 229C304.141 230.696 303.683 232.031 302.768 233.018C301.845 234.011 300.556 234.495 298.892 234.495C297.202 234.495 295.88 234.024 294.938 233.076C294.003 232.128 293.532 230.761 293.532 229ZM302.045 217.599H295.828L293.964 181.222H303.864L302.045 217.599Z" fill="white"/>
<path d="M52.2514 177.887C75.14 177.887 93.6949 159.334 93.6949 136.448C93.6949 113.561 75.14 95.0083 52.2514 95.0083C29.3629 95.0083 10.8081 113.561 10.8081 136.448C10.8081 159.334 29.3629 177.887 52.2514 177.887Z" fill="#D93D15"/>
<path d="M46.7567 146.192V143.896C46.7567 141.265 47.2339 139.066 48.2013 137.318C49.1494 135.571 50.8327 133.765 53.2318 131.888C56.0824 129.638 57.9205 127.884 58.7461 126.639C59.578 125.394 59.9843 123.911 59.9843 122.183C59.9843 120.165 59.32 118.623 57.9786 117.546C56.6307 116.469 54.7087 115.928 52.1935 115.928C49.9104 115.928 47.8015 116.257 45.8667 116.902C43.9254 117.546 42.0294 118.333 40.1849 119.242L37.1602 112.916C42.0294 110.208 47.2404 108.854 52.7997 108.854C57.4884 108.854 61.2225 110.014 63.9764 112.304C66.7367 114.606 68.1168 117.779 68.1168 121.828C68.1168 123.628 67.846 125.227 67.3172 126.639C66.7948 128.032 65.9951 129.36 64.931 130.637C63.8604 131.908 62.0158 133.565 59.4167 135.603C57.1852 137.35 55.689 138.801 54.9409 139.949C54.1734 141.091 53.8123 142.645 53.8123 144.579V146.198H46.7567V146.192ZM45.2863 157.67C45.2863 154.046 47.047 152.234 50.5619 152.234C52.2967 152.234 53.6188 152.711 54.5153 153.653C55.4311 154.601 55.8826 155.936 55.8826 157.67C55.8826 159.36 55.4181 160.708 54.4959 161.701C53.5672 162.7 52.2645 163.197 50.5554 163.197C48.8657 163.197 47.55 162.713 46.6471 161.739C45.7442 160.772 45.2863 159.418 45.2863 157.67Z" fill="white"/>
<path d="M438.82 101.044C461.708 101.044 480.263 82.4911 480.263 59.6047C480.263 36.7184 461.708 18.1653 438.82 18.1653C415.931 18.1653 397.376 36.7184 397.376 59.6047C397.376 82.4911 415.931 101.044 438.82 101.044Z" fill="#FDC00F"/>
<path d="M404.103 59.122C404.103 56.8327 404.709 55.0915 405.902 53.9113C407.108 52.7248 408.824 52.1316 411.043 52.1316C413.229 52.1316 414.906 52.7377 416.086 53.9823C417.26 55.214 417.84 56.923 417.84 59.122C417.84 61.3016 417.24 63.0235 416.06 64.3196C414.873 65.6029 413.203 66.2349 411.043 66.2349C408.856 66.2349 407.147 65.6222 405.928 64.3905C404.709 63.1459 404.103 61.3919 404.103 59.122Z" fill="white"/>
<path d="M431.953 59.1217C431.953 56.8325 432.559 55.0912 433.753 53.9111C434.959 52.7245 436.674 52.1313 438.893 52.1313C441.085 52.1313 442.762 52.7374 443.936 53.982C445.11 55.2137 445.69 56.9227 445.69 59.1217C445.69 61.3014 445.097 63.0232 443.91 64.3194C442.724 65.6027 441.047 66.2346 438.893 66.2346C436.706 66.2346 434.997 65.6219 433.778 64.3902C432.566 63.1456 431.953 61.3917 431.953 59.1217Z" fill="white"/>
<path d="M459.804 59.1217C459.804 56.8325 460.41 55.0912 461.603 53.9111C462.816 52.7245 464.531 52.1313 466.75 52.1313C468.936 52.1313 470.619 52.7374 471.793 53.982C472.967 55.2137 473.541 56.9227 473.541 59.1217C473.541 61.3014 472.954 63.0232 471.767 64.3194C470.574 65.6027 468.904 66.2346 466.75 66.2346C464.563 66.2346 462.854 65.6219 461.635 64.3902C460.404 63.1456 459.804 61.3917 459.804 59.1217Z" fill="white"/>
<path d="M644.456 287.034C644.456 287.034 634.332 281.655 628.198 274.191C625.058 270.367 626.778 262.82 626.151 259.302C624.181 248.269 624.098 244.137 619.186 244.272C614.114 244.412 614.69 249.612 616.302 259.238C618.502 272.33 603.919 256.648 599.378 250.968C590.181 239.488 583.12 233.616 578.752 236.213C575.125 238.369 575.906 241.362 587.661 253.929C595.183 261.982 597.767 264.732 597.767 264.732C597.767 264.732 589.401 258.068 585.039 252.74C580.664 247.412 570.15 237.307 565.775 239.897C558.081 244.47 573.149 256.2 575.605 258.368C578.068 260.53 591.46 272.688 591.46 272.688C591.46 272.688 580.933 264.962 576.296 259.846C568.065 250.776 562.884 251.378 561.931 255.196C560.978 259.014 570.29 266.069 573.162 269.35C573.872 270.169 575.126 271.236 576.603 272.388C581.08 275.867 587.636 280.063 587.636 280.063C587.636 280.063 575.484 271.998 570.284 268.179C566.491 265.384 560.997 270.226 569.74 278.425C578.483 286.625 591.985 291.191 601.067 292.413C611.997 293.871 632.854 304.527 632.854 304.527L644.456 287.034Z" fill="#FFBB9A"/>
<path d="M880.375 186.185C923.86 186.185 1006 219.642 1006 318.304C1006 336.033 1004.65 352.662 1002.43 368.005C992.948 433.524 943.029 483.904 881.213 491.508L880.375 491.611L796.622 481.32C796.622 481.32 754.743 416.972 754.743 318.316C754.743 219.661 836.884 186.185 880.375 186.185Z" fill="#DEDFE1"/>
<path d="M840.646 189.556C839.661 189.556 838.727 189.46 837.768 189.422C836.834 201.925 835.338 214.544 832.914 220.013C832.914 220.013 848.385 234.032 871.109 218.81C871.109 218.81 866.492 202.437 865.794 183.486C858.829 187.285 850.476 189.556 840.646 189.556Z" fill="#F7936A"/>
<path d="M867.816 124.152C867.816 124.152 855.965 113.03 840.5 114.961C825.028 116.899 816.145 119.976 812.518 132.671C808.898 145.354 803.289 177.269 803.289 177.269C803.289 177.269 806.711 205.654 831.731 195.536C856.752 185.418 882.936 166.569 878.459 155.332C873.975 144.088 867.816 124.152 867.816 124.152Z" fill="#FFBB9A"/>
<path d="M863.638 119.432C863.638 119.432 850.22 124.875 850.949 131.213C851.672 137.558 855.663 149.166 851.672 162.764C851.672 162.764 855.663 165.661 858.381 162.764C861.106 159.86 858.381 148.444 866.177 149.531C873.974 150.618 873.43 164.395 865.09 166.39C865.09 166.39 858.656 175.632 850.226 175.818C841.803 176.003 830.47 167.573 826.21 167.119C821.944 166.672 807.713 167.298 804.906 169.204C804.906 169.204 796.207 202.648 810.163 207.547C824.125 212.44 856.015 200.115 871.704 180.531C871.704 180.531 890.929 179.412 886.599 153.253C883.337 133.535 895.713 127.939 883.868 114.744C875.439 105.336 863.638 119.432 863.638 119.432Z" fill="#141C1E"/>
<path d="M878.459 112.691C878.459 112.691 873.739 98.2877 851.136 97.0788C828.54 95.8764 827.331 108.802 818.991 110.254C810.651 111.712 808.476 106.935 811.501 104.85C811.501 104.85 805.7 99.9121 797.36 112.697C789.02 125.483 803.295 143.129 821.044 143.736C842.31 144.446 864.567 137.609 878.459 112.691Z" fill="#141C1E"/>
<path d="M813.061 180.345C813.061 180.345 822.124 183.518 829.831 181.529C829.831 181.529 828.481 186.191 819.227 186.236C813.969 186.268 813.061 180.345 813.061 180.345Z" fill="white"/>
<path d="M835.47 508.835H823.223V726.503H835.47V508.835Z" fill="#D0D0D0"/>
<path d="M775.529 732.483C776.859 704.239 800.338 681.7 829.343 681.7C858.354 681.7 881.833 704.239 883.157 732.483H775.529Z" fill="#48525B"/>
<path d="M733.778 546.928H924.923C937.51 546.928 947.712 536.727 947.712 524.14V489.449C947.712 476.856 937.51 466.661 924.923 466.661H733.778C721.191 466.661 710.99 476.862 710.99 489.449V524.14C710.99 536.727 721.191 546.928 733.778 546.928Z" fill="#DEDFE1"/>
<path d="M633.068 274.281L617.245 304.654C617.245 304.654 714.123 360.662 739.623 357.087C765.123 353.512 819.052 275.982 819.052 275.982C819.052 275.982 818.246 224.317 804.796 229.017C794.416 232.644 741.125 316.199 737.569 319.755C734.02 323.311 633.068 274.281 633.068 274.281Z" fill="#303F46"/>
<path d="M729.099 684.041C729.099 684.041 682.307 696.641 662.947 702.838C646.861 707.993 648.921 722.435 666.164 729.138C683.407 735.841 698.271 733.589 702.754 728.319C707.244 723.049 716.966 725.946 720.56 728.057C724.155 730.168 757.681 725.607 759.907 718.911C762.133 712.208 758.89 685.474 758.89 685.474L729.099 684.041Z" fill="black"/>
<path d="M764.492 688.32C764.492 688.32 716.671 696.174 696.792 700.402C680.272 703.92 680.873 718.496 697.362 726.893C713.844 735.291 728.855 734.543 733.85 729.746C738.838 724.949 748.221 728.812 751.592 731.268C754.956 733.73 788.771 732.547 791.655 726.107C794.54 719.66 791.86 686.357 791.86 686.357L764.492 688.32Z" fill="black"/>
<path d="M785.999 373.979H855.746C855.746 373.979 878.892 374.35 883.267 418.065C887.642 461.78 850.092 465.24 810.042 466.699C769.991 468.157 750.982 474.348 749.94 485.278C748.897 496.202 753.803 686.356 753.803 686.356L706.449 688.211C706.449 688.211 694.565 463.622 697.303 453.427C704.364 427.198 783.256 396.543 783.256 396.543L785.999 373.979Z" fill="#1D2D35"/>
<path d="M829.569 382.025H899.315C899.315 382.025 922.455 382.396 926.83 426.111C931.205 469.826 893.655 473.287 853.611 474.745C813.566 476.203 794.552 482.394 793.503 493.325C792.461 504.249 794.232 692.062 794.232 692.062L743.046 690.77C743.046 690.77 728.701 472.218 731.937 462.177C739.228 439.593 825.086 397.695 825.086 397.695L829.569 382.025Z" fill="#303F46"/>
<path d="M834.703 214.084C834.703 214.084 842.212 229.133 844.54 227.509C852.631 221.868 870.226 211.494 870.226 211.494C870.226 211.494 891.811 223.473 914.248 232.849V260.358L920.33 400.029C920.33 400.029 851.32 420.912 783.249 396.55C783.249 396.55 785.615 310.993 786.831 297.153C787.509 289.375 795.145 236.674 802.922 230.176C806.651 227.061 815.139 224.157 823.037 221.119C829.401 218.663 832.401 217.199 834.703 214.084Z" fill="#303F46"/>
<path d="M834.703 214.084C834.703 214.084 842.212 229.133 844.54 227.509C852.631 221.868 870.226 211.494 870.226 211.494C870.226 211.494 891.811 223.473 914.248 232.849V260.358L920.33 400.029C920.33 400.029 851.32 420.912 783.249 396.55C783.249 396.55 785.615 310.993 786.831 297.153C787.509 289.375 795.145 236.674 802.922 230.176C806.651 227.061 815.139 224.157 823.037 221.119C829.401 218.663 832.401 217.199 834.703 214.084Z" fill="#1D2D35"/>
<path d="M914.244 407.877H908.923V466.66H914.244V407.877Z" fill="#48525B"/>
<path d="M825.559 418.276H948.563C954.019 418.276 958.432 415.142 958.432 411.279V400.63C958.432 396.767 954.019 393.633 948.563 393.633H825.559C820.103 393.633 815.69 396.767 815.69 400.63V411.279C815.69 415.142 820.11 418.276 825.559 418.276Z" fill="#48525B"/>
<path d="M275.794 380.771H267V732.118H275.794V380.771Z" fill="#7695A8"/>
<path d="M807.989 380.771H799.195V732.118H807.989V380.771Z" fill="#7695A8"/>
<path d="M807.989 380.765H267V391.068H807.989V380.765Z" fill="#7695A8"/>
<path d="M654.112 228.091V358.898L732.275 371.254V242.232L654.112 228.091Z" fill="#AD5C49"/>
<path d="M761.148 320.279C761.148 320.279 751.394 341.36 752.014 340.496C752.635 339.639 732.193 334.862 731.093 335.034C729.981 335.207 713.192 335.968 707.071 334.312C700.944 332.649 691.043 326.758 689.105 325.409C686.937 323.899 683.426 319.301 686.873 318.501C689.898 317.798 698.309 323.42 700.202 324.353C702.095 325.294 708.874 325.754 708.874 325.754C708.874 325.754 701.091 323.113 696.256 320.81C690.384 318.009 681.731 313.922 680.055 312.009C678.462 310.199 679.108 306.541 683.701 307.718C689.252 309.151 694.241 312.093 695.168 312.413C696.096 312.732 710.051 317.843 710.051 317.843C710.051 317.843 697.292 313.129 694.657 311.722C691.702 310.148 683.535 306.305 678.379 303.586C673.41 300.97 674.932 295.265 679.607 295.911C683.074 296.385 694.382 303.497 696.192 304.219C698.002 304.942 711.19 310.519 711.19 310.519C711.19 310.519 696.428 304.155 694.88 302.966C693.333 301.783 682.812 296.992 681.769 293.705C681.264 292.106 682.159 289.01 685.869 289.874C690.186 290.878 696.307 293.698 699.095 295.368C701.359 296.717 720.566 307.091 723.905 306.426C727.243 305.761 731.918 304.885 732.225 301.022L732.098 290.852C732.098 290.852 741.026 295.655 742.312 304.59C743.015 309.432 750.62 316.052 761.148 320.279Z" fill="#FFBB9A"/>
<path d="M835.427 210.291L840.908 221.644L868.48 207.042L876.488 214.922L849.734 239.904L839.347 224.471L828.123 233.348V218.983L835.427 210.291Z" fill="white"/>
<path d="M750.702 311.645L742.42 342.87C742.42 342.87 824.6 361.462 859.431 366.387C887.982 370.429 902.929 359.083 920.326 300.062C933.424 255.618 926.363 236.13 908.922 230.483C875.491 219.667 873.54 329.112 866.434 331.843C859.335 334.574 750.702 311.645 750.702 311.645Z" fill="#303F46"/>
</svg>
