<?xml version="1.0" encoding="utf-8"?>
<!-- Generator: Adobe Illustrator 16.0.0, SVG Export Plug-In . SVG Version: 6.00 Build 0)  -->
<!DOCTYPE svg PUBLIC "-//W3C//DTD SVG 1.1//EN" "http://www.w3.org/Graphics/SVG/1.1/DTD/svg11.dtd">
<svg version="1.1" id="Layer_1" xmlns="http://www.w3.org/2000/svg" xmlns:xlink="http://www.w3.org/1999/xlink" x="0px" y="0px"
	 width="497.436px" height="415.385px" viewBox="0 0 497.436 415.385" enable-background="new 0 0 497.436 415.385"
	 xml:space="preserve">
<path display="none" fill="#AA87BE" d="M-59.277-69.736H721.72c143.768,0,260.332,46.883,260.332,104.716v314.15
	c0,57.83-116.564,104.716-260.332,104.716H-59.277c-143.782,0-260.337-46.887-260.337-104.716V34.98
	C-319.614-22.853-203.06-69.736-59.277-69.736z"/>
<path fill="#FFFFFF" d="M29.815,122.05c0.39,0,0.761-0.154,1.036-0.429l5.857-5.857c0.555-0.575,0.547-1.489-0.018-2.054
	c-0.565-0.564-1.478-0.572-2.053-0.017l-5.858,5.857c-0.418,0.42-0.544,1.05-0.317,1.597
	C28.689,121.693,29.224,122.05,29.815,122.05z"/>
<path fill="#FFFFFF" d="M28.78,130.408c0.572,0.572,1.498,0.572,2.071,0l14.644-14.644c0.555-0.575,0.547-1.489-0.019-2.054
	c-0.564-0.564-1.478-0.572-2.053-0.017L28.78,128.336C28.208,128.908,28.208,129.836,28.78,130.408z"/>
<path fill="#FFFFFF" d="M90.826,160.044c5.795-4.994,7.87-13.068,5.206-20.238c-2.667-7.171-9.509-11.928-17.159-11.928
	s-14.492,4.757-17.159,11.928c-2.664,7.17-0.589,15.244,5.206,20.238c-7.289,2.68-12.153,9.595-12.209,17.36v9.08
	c0,0.807,0.656,1.463,1.464,1.463h45.397c0.807,0,1.463-0.656,1.463-1.463v-9.08C102.979,169.64,98.114,162.724,90.826,160.044z
	 M63.497,146.213c0-8.491,6.883-15.376,15.375-15.376c8.493,0,15.376,6.885,15.376,15.376c0,8.492-6.883,15.376-15.376,15.376
	C70.385,161.581,63.505,154.701,63.497,146.213z M100.104,185.018h-8.786v-2.926c0-0.811-0.654-1.467-1.462-1.467
	c-0.809,0-1.463,0.656-1.463,1.467v2.926h-19.04v-2.926c0-0.811-0.654-1.467-1.463-1.467c-0.809,0-1.463,0.656-1.463,1.467v2.926
	H57.64v-7.613c0.095-7.301,5.167-13.593,12.279-15.24c5.556,3.14,12.352,3.14,17.907,0c7.113,1.647,12.184,7.939,12.278,15.24
	V185.018z"/>
<path fill="#FFFFFF" d="M98.642,100.084H75.213c-2.429,0-4.393,1.967-4.393,4.393v2.929H26.887c-2.426,0-4.393,1.967-4.393,4.393
	v37.604l-7.049,9.868c-0.161,0.257-0.255,0.549-0.273,0.854v4.393c0,3.235,2.623,5.856,5.857,5.856h30.943
	c0.809,0,1.464-0.656,1.464-1.463c0-0.811-0.655-1.467-1.464-1.467H21.029c-1.617,0-2.928-1.309-2.928-2.927v-2.93H39.46l2.5,2.501
	c0.275,0.274,0.647,0.428,1.035,0.428h12.448c0.809,0,1.464-0.656,1.464-1.467c0-0.807-0.655-1.463-1.464-1.463h-11.84l-1.858-1.86
	l0.843-2.534h15.683c0.809,0,1.465-0.656,1.465-1.462c0-0.811-0.656-1.468-1.465-1.468H41.53c-0.629,0.002-1.189,0.406-1.387,1.004
	l-1.131,3.39h-19.53l5.229-7.319h31.463c0.81,0,1.465-0.656,1.465-1.467c0-0.806-0.655-1.463-1.465-1.463h-7.322v-3.66
	c0-0.811-0.655-1.466-1.465-1.466c-0.809,0-1.464,0.655-1.464,1.466v3.66h-2.93v-3.763c-0.026-3.254,2.083-6.139,5.19-7.103
	c4.664,2.669,10.597,1.311,13.634-3.123c3.035-4.434,2.158-10.458-2.017-13.84c-4.177-3.384-10.25-2.994-13.958,0.896
	c-3.708,3.889-3.81,9.975-0.23,13.984c-3.424,1.783-5.565,5.327-5.548,9.187v3.763H25.422V111.8c0-0.81,0.655-1.465,1.465-1.465
	H70.82v3.955l-4.102,6.141c-0.597,0.899-0.652,2.054-0.142,3.005c0.51,0.951,1.506,1.543,2.583,1.543h29.482
	c2.426,0,4.393-1.967,4.393-4.393v-16.109C103.035,102.051,101.068,100.084,98.642,100.084L98.642,100.084z M53.247,121.317
	c4.043,0,7.32,3.279,7.32,7.323s-3.277,7.322-7.32,7.322c-4.045,0-7.322-3.279-7.322-7.322
	C45.928,124.599,49.204,121.323,53.247,121.317z M100.104,120.586c0,0.809-0.653,1.464-1.462,1.464H69.16l4.342-6.509
	c0.159-0.242,0.245-0.523,0.245-0.813v-10.25c0-0.809,0.656-1.464,1.467-1.464h23.429c0.809,0,1.462,0.655,1.462,1.464V120.586z"/>
<path fill="#FFFFFF" d="M94.249,107.407H79.606c-0.81,0-1.467,0.655-1.467,1.464c0,0.809,0.657,1.464,1.467,1.464h14.643
	c0.809,0,1.463-0.655,1.463-1.464C95.712,108.062,95.058,107.407,94.249,107.407z"/>
<path fill="#FFFFFF" d="M94.249,114.728H79.606c-0.81,0-1.467,0.657-1.467,1.465s0.657,1.464,1.467,1.464h14.643
	c0.809,0,1.463-0.655,1.463-1.464S95.058,114.728,94.249,114.728z"/>
<text transform="matrix(1 0 0 1 161.2983 162.896)" fill="#FFFFFF" font-family="'OswaldStencil-Bold'" font-size="51.0705">ONLINE CLASS</text>
<path display="none" fill="#F5C853" d="M-318.211,98.122h79.24c14.586,0,26.413,11.825,26.413,26.413v79.24
	c0,14.586-11.827,26.413-26.413,26.413h-79.24c-14.588,0-26.413-11.827-26.413-26.413v-79.24
	C-344.625,109.947-332.799,98.122-318.211,98.122z"/>
<path fill="#FFFFFF" d="M100.633,223.626H69.886c0.205-1,0.183-2.031-0.062-3.021c-0.244-0.99-0.705-1.913-1.352-2.703
	c-0.645-0.79-1.458-1.426-2.377-1.863c-0.92-0.437-1.929-0.665-2.949-0.665c-1.019,0-2.026,0.228-2.947,0.665
	c-0.922,0.438-1.735,1.074-2.38,1.863c-0.645,0.791-1.107,1.713-1.351,2.703c-0.244,0.99-0.266,2.022-0.061,3.021H25.657
	c-1.002,0.001-1.964,0.4-2.674,1.109c-0.71,0.709-1.108,1.671-1.109,2.674v50.212c0.001,1.002,0.399,1.965,1.109,2.674
	c0.709,0.71,1.671,1.109,2.674,1.109h26.096l-2.063,8.254H48.7c-1.277,0.002-2.5,0.51-3.402,1.412
	c-0.903,0.903-1.412,2.126-1.413,3.403v2.063c0,0.366,0.145,0.713,0.403,0.972c0.258,0.258,0.607,0.404,0.973,0.404h35.769
	c0.365,0,0.713-0.146,0.972-0.404c0.257-0.258,0.404-0.606,0.404-0.972v-2.063c-0.002-1.276-0.509-2.5-1.412-3.403
	c-0.903-0.902-2.126-1.41-3.403-1.412h-0.988l-2.064-8.254h26.096c1.001,0,1.964-0.399,2.673-1.109
	c0.71-0.709,1.11-1.672,1.11-2.674V227.41c0-1.003-0.4-1.965-1.11-2.674C102.597,224.026,101.634,223.627,100.633,223.626z
	 M63.145,218.124c0.709,0,1.406,0.182,2.025,0.529c0.617,0.348,1.134,0.849,1.503,1.455c0.367,0.605,0.574,1.296,0.598,2.004
	c0.023,0.708-0.136,1.412-0.464,2.04c-0.08,0.102-0.145,0.214-0.194,0.333c-0.389,0.602-0.926,1.092-1.561,1.423
	c-0.634,0.331-1.344,0.491-2.059,0.465c-0.716-0.027-1.411-0.239-2.019-0.616c-0.61-0.376-1.109-0.905-1.452-1.534
	c-0.342-0.627-0.516-1.334-0.502-2.05c0.013-0.716,0.211-1.416,0.578-2.031c0.365-0.615,0.885-1.124,1.507-1.479
	C61.727,218.31,62.429,218.124,63.145,218.124z M57.646,226.377c0.639,0.855,1.469,1.548,2.423,2.025
	c0.956,0.479,2.008,0.727,3.075,0.727c1.066,0,2.119-0.248,3.074-0.727c0.954-0.477,1.784-1.17,2.425-2.025h1.079l-0.825,4.127
	H57.394l-0.825-4.127H57.646z M77.59,292.411c0.546,0,1.071,0.22,1.458,0.606s0.606,0.912,0.606,1.458v0.688H46.637v-0.688
	c0.001-0.546,0.218-1.071,0.605-1.458c0.387-0.387,0.912-0.606,1.458-0.606H77.59z M63.145,286.909
	c1.458-0.002,2.858-0.583,3.891-1.612c1.03-1.032,1.61-2.433,1.612-3.891H71.7l2.063,8.254H52.525l2.064-8.254h3.054
	c0.001,1.458,0.582,2.859,1.613,3.891C60.288,286.326,61.687,286.907,63.145,286.909z M60.394,281.406h5.502
	c0,0.73-0.29,1.429-0.806,1.945c-0.516,0.516-1.214,0.806-1.945,0.806c-0.729,0-1.43-0.291-1.945-0.806
	C60.684,282.835,60.394,282.136,60.394,281.406z M101.664,277.622c0,0.274-0.107,0.538-0.301,0.731s-0.458,0.302-0.73,0.302H25.657
	c-0.273,0-0.536-0.108-0.729-0.302s-0.302-0.457-0.302-0.731v-4.471h77.039V277.622z M57.816,252.516h-1.442l0.408-5.417
	c0.202-1.545,0.958-2.964,2.128-3.993c1.172-1.028,2.676-1.595,4.235-1.595s3.063,0.566,4.235,1.595
	c1.169,1.028,1.926,2.447,2.128,3.993l0.408,5.417h-1.442c0.117-0.449,0.174-0.911,0.174-1.375v-2.751
	c0-0.256-0.07-0.506-0.207-0.724c-0.133-0.217-0.327-0.392-0.554-0.507l-5.502-2.751c-0.258-0.129-0.551-0.173-0.835-0.126
	c-0.285,0.046-0.548,0.18-0.752,0.384l-2.751,2.752c-0.257,0.257-0.402,0.608-0.402,0.973v2.751
	C57.643,251.604,57.7,252.067,57.816,252.516z M63.145,253.892c-0.729-0.001-1.428-0.292-1.944-0.808
	c-0.516-0.516-0.806-1.215-0.807-1.944v-2.182l1.647-1.646l3.855,1.927v1.901c0,0.729-0.292,1.428-0.808,1.944
	C64.572,253.6,63.876,253.891,63.145,253.892z M64.52,256.469v1.068c-0.179,0.183-0.392,0.33-0.629,0.43
	c-0.237,0.099-0.491,0.151-0.746,0.151c-0.256,0-0.509-0.052-0.746-0.151c-0.236-0.101-0.45-0.247-0.629-0.43v-1.067
	C62.672,256.703,63.618,256.703,64.52,256.469L64.52,256.469z M63.145,260.867c1.238,0.003,2.425-0.488,3.302-1.36l3.741,0.624
	c0.602,0.098,1.16,0.374,1.607,0.791c0.443,0.416,0.756,0.955,0.894,1.548l-4.376,1.094c-0.296,0.075-0.561,0.247-0.748,0.487
	c-0.19,0.241-0.292,0.542-0.292,0.848v5.502h-8.255v-5.502c0-0.308-0.103-0.607-0.291-0.848c-0.189-0.24-0.453-0.413-0.751-0.487
	l-4.375-1.094c0.139-0.593,0.451-1.132,0.895-1.548c0.446-0.417,1.005-0.692,1.605-0.791l3.742-0.624
	C60.72,260.379,61.908,260.87,63.145,260.867z M72.775,265.285v5.115h-2.751v-4.428L72.775,265.285z M56.267,265.972v4.428h-2.751
	v-5.115L56.267,265.972z M101.664,270.4H75.526v-7.218c0.005-1.385-0.486-2.726-1.38-3.783c-0.896-1.058-2.138-1.76-3.505-1.984
	l-3.368-0.561v-1.586h4.127c0.189,0,0.376-0.039,0.55-0.115c0.172-0.075,0.332-0.186,0.458-0.325c0.129-0.14,0.228-0.303,0.29-0.482
	c0.063-0.179,0.088-0.367,0.074-0.557l-0.523-6.931c-0.001-0.023-0.001-0.045-0.006-0.067c-0.277-2.217-1.354-4.257-3.031-5.736
	c-1.672-1.479-3.83-2.294-6.066-2.294c-2.234,0-4.393,0.815-6.068,2.294s-2.751,3.519-3.029,5.736
	c-0.003,0.022-0.005,0.044-0.006,0.067l-0.522,6.931c-0.015,0.189,0.011,0.378,0.073,0.557c0.063,0.18,0.162,0.343,0.291,0.482
	c0.127,0.139,0.285,0.25,0.458,0.325c0.174,0.076,0.361,0.115,0.55,0.115h4.126v1.586l-3.368,0.561
	c-1.368,0.224-2.61,0.926-3.505,1.984c-0.895,1.058-1.385,2.398-1.38,3.783v7.218H24.625v-42.99c0-0.273,0.109-0.537,0.302-0.73
	c0.193-0.192,0.457-0.302,0.729-0.302h28.106l1.154,5.773c0.063,0.312,0.231,0.592,0.477,0.794c0.246,0.202,0.554,0.312,0.873,0.312
	h13.757c0.318,0,0.627-0.11,0.873-0.312c0.246-0.202,0.413-0.482,0.478-0.794l1.152-5.773h28.107c0.272,0,0.537,0.11,0.73,0.302
	c0.193,0.193,0.301,0.457,0.301,0.73V270.4z"/>
<path fill="#FFFFFF" d="M97.538,229.129h-19.26c-0.365,0-0.713,0.146-0.972,0.403c-0.257,0.258-0.404,0.607-0.404,0.973v22.011
	c0,0.366,0.146,0.715,0.404,0.973c0.258,0.258,0.607,0.403,0.972,0.403h19.26c0.366,0,0.714-0.146,0.972-0.403
	c0.258-0.258,0.403-0.607,0.403-0.973v-22.011c0-0.365-0.145-0.715-0.403-0.973C98.251,229.274,97.903,229.129,97.538,229.129z
	 M92.034,251.14h-8.253v-1.375c0-0.647,0.152-1.287,0.445-1.864c0.292-0.578,0.715-1.079,1.238-1.461
	c0.759,0.377,1.595,0.574,2.443,0.574s1.684-0.196,2.442-0.574c0.521,0.385,0.946,0.886,1.238,1.463
	c0.292,0.577,0.445,1.215,0.447,1.862V251.14z M85.157,241.51c0-0.543,0.161-1.076,0.464-1.528c0.301-0.452,0.731-0.805,1.233-1.013
	c0.503-0.208,1.058-0.264,1.591-0.157c0.533,0.106,1.023,0.369,1.408,0.753c0.384,0.385,0.647,0.875,0.754,1.408
	c0.105,0.534,0.052,1.087-0.159,1.591c-0.207,0.502-0.559,0.932-1.012,1.233c-0.454,0.303-0.985,0.465-1.529,0.465
	c-0.73-0.001-1.427-0.292-1.942-0.808C85.448,242.939,85.157,242.24,85.157,241.51z M96.162,251.14h-1.375v-1.375
	c-0.003-0.976-0.211-1.94-0.613-2.829c-0.402-0.89-0.986-1.684-1.717-2.33c0.563-0.828,0.889-1.792,0.945-2.792
	c0.056-1-0.161-1.995-0.63-2.879c-0.466-0.886-1.167-1.626-2.025-2.143c-0.858-0.517-1.84-0.789-2.84-0.789
	c-1.001,0-1.983,0.273-2.841,0.79c-0.855,0.516-1.557,1.257-2.024,2.142c-0.467,0.884-0.684,1.881-0.628,2.879
	c0.056,1,0.382,1.964,0.948,2.791c-0.733,0.645-1.319,1.438-1.722,2.328c-0.401,0.889-0.61,1.854-0.61,2.83v1.375h-1.376v-19.26
	h16.508V251.14z"/>
<text transform="matrix(1 0 0 1 161.2983 271.9814)" fill="#FFFFFF" font-family="'OswaldStencil-Bold'" font-size="51.0705">ONLINE EXAM</text>
<path display="none" fill="#A9B2DA" d="M-343.375,261.357h61.475c11.316,0,20.491,9.174,20.491,20.491v61.475
	c0,11.316-9.175,20.491-20.491,20.491h-61.475c-11.317,0-20.491-9.175-20.491-20.491v-61.475
	C-363.866,270.532-354.692,261.357-343.375,261.357z"/>
<path fill="#FFFFFF" d="M96.577,364.141l-16.843-9.976v-22.444c-0.004-0.968-0.389-1.896-1.074-2.58
	c-0.685-0.685-1.612-1.071-2.581-1.073H46.851c-0.968,0.002-1.895,0.389-2.58,1.073c-0.684,0.684-1.07,1.611-1.074,2.58v41.408
	c0.003,0.97,0.39,1.896,1.074,2.581c0.686,0.684,1.612,1.069,2.58,1.073h12.215c0.158,0.229,0.333,0.445,0.525,0.646l9.182,10.766
	v1.985c0.003,2.906,1.161,5.69,3.216,7.745c2.055,2.057,4.839,3.213,7.745,3.216h21.922c0.644-0.001,1.262-0.259,1.719-0.715
	c0.457-0.457,0.713-1.075,0.715-1.72v-21.095c0.008-2.699-0.679-5.358-1.994-7.716C100.781,367.534,98.879,365.553,96.577,364.141z
	 M57.873,373.19c0,0.388,0.036,0.776,0.109,1.156H46.851c-0.323,0-0.633-0.129-0.861-0.357s-0.356-0.536-0.356-0.86v-41.408
	c0-0.323,0.128-0.632,0.356-0.86s0.538-0.357,0.861-0.357H76.08c0.324,0,0.632,0.129,0.86,0.357c0.228,0.229,0.358,0.537,0.358,0.86
	v41.408c0,0.324-0.13,0.632-0.358,0.86c-0.229,0.229-0.537,0.357-0.86,0.357h-2.204l-5.602-5.469
	c-0.853-0.851-1.938-1.434-3.121-1.67c-1.183-0.236-2.409-0.113-3.524,0.347c-1.113,0.462-2.065,1.245-2.734,2.248
	C58.227,370.803,57.871,371.983,57.873,373.19z M101.656,398.704H79.734c-2.261-0.004-4.427-0.902-6.025-2.5
	c-1.598-1.599-2.497-3.764-2.5-6.025v-2.435c0.003-0.292-0.101-0.574-0.293-0.792l-9.535-11.18c-0.34-0.338-0.609-0.74-0.792-1.186
	c-0.184-0.441-0.279-0.917-0.279-1.396c0-0.48,0.095-0.957,0.279-1.396c0.184-0.446,0.453-0.848,0.792-1.186
	c0.698-0.666,1.625-1.037,2.591-1.035c0.964,0.001,1.892,0.379,2.585,1.049l15.979,15.563l1.705-1.754l-7.892-7.672
	c0.917-0.067,1.776-0.478,2.404-1.152c0.628-0.673,0.978-1.556,0.982-2.477v-16.136l15.577,9.23
	c1.944,1.197,3.546,2.872,4.659,4.866c1.11,1.994,1.692,4.239,1.687,6.521V398.704z"/>
<path fill="#FFFFFF" d="M54.158,357.296h-4.871c-0.324,0-0.633,0.128-0.861,0.357c-0.229,0.229-0.357,0.537-0.357,0.86v4.872
	c0,0.323,0.128,0.633,0.357,0.86c0.228,0.23,0.537,0.358,0.861,0.358h4.871c0.324,0,0.633-0.128,0.862-0.358
	c0.228-0.227,0.356-0.537,0.356-0.86v-4.872c0-0.323-0.128-0.632-0.356-0.86C54.791,357.425,54.482,357.296,54.158,357.296z
	 M52.941,362.167h-2.436v-2.436h2.436V362.167z"/>
<path fill="#FFFFFF" d="M59.03,364.604h4.872c0.323,0,0.632-0.128,0.861-0.358c0.228-0.227,0.356-0.537,0.356-0.86v-4.872
	c0-0.323-0.128-0.632-0.356-0.86c-0.229-0.229-0.538-0.357-0.861-0.357H59.03c-0.324,0-0.633,0.128-0.861,0.357
	s-0.356,0.537-0.356,0.86v4.872c0,0.323,0.128,0.633,0.356,0.86C58.397,364.476,58.707,364.604,59.03,364.604z M60.248,359.731
	h2.436v2.436h-2.436V359.731z"/>
<path fill="#FFFFFF" d="M68.773,357.296c-0.324,0-0.632,0.128-0.859,0.357c-0.229,0.229-0.358,0.537-0.358,0.86v4.872
	c0,0.323,0.129,0.633,0.358,0.86c0.228,0.23,0.536,0.358,0.859,0.358h4.871c0.324,0,0.632-0.128,0.86-0.358
	c0.229-0.227,0.358-0.537,0.358-0.86v-4.872c0-0.323-0.13-0.632-0.358-0.86s-0.537-0.357-0.86-0.357H68.773z M72.427,362.167h-2.436
	v-2.436h2.436V362.167z"/>
<path fill="#FFFFFF" d="M61.466,335.375c2.08-0.004,4.14,0.406,6.062,1.2c1.923,0.797,3.666,1.966,5.135,3.439l1.713-1.726
	c-3.427-3.426-8.072-5.349-12.916-5.349c-4.844,0-9.49,1.923-12.916,5.349l1.718,1.726c1.47-1.474,3.217-2.643,5.139-3.44
	C57.323,335.778,59.385,335.371,61.466,335.375z"/>
<path fill="#FFFFFF" d="M70.938,341.736c-1.244-1.244-2.721-2.233-4.346-2.906c-1.625-0.673-3.368-1.021-5.127-1.021
	c-1.759,0-3.502,0.348-5.126,1.021c-1.625,0.673-3.102,1.662-4.345,2.906l1.722,1.721c2.056-2.054,4.843-3.209,7.749-3.209
	s5.693,1.155,7.749,3.209L70.938,341.736z"/>
<path fill="#FFFFFF" d="M65.765,346.901l1.73-1.714c-0.791-0.795-1.729-1.424-2.765-1.854c-1.034-0.429-2.143-0.651-3.263-0.651
	s-2.229,0.222-3.263,0.651c-1.034,0.429-1.975,1.059-2.765,1.854l1.731,1.714c0.564-0.565,1.234-1.014,1.972-1.319
	c0.738-0.306,1.528-0.464,2.327-0.464c0.798,0,1.589,0.158,2.327,0.464c0.739,0.305,1.408,0.754,1.972,1.319H65.765z"/>
<path fill="#FFFFFF" d="M57.813,351.208c0,0.721,0.214,1.428,0.616,2.028c0.401,0.602,0.972,1.07,1.639,1.347
	c0.667,0.275,1.402,0.348,2.111,0.207c0.709-0.14,1.36-0.489,1.871-1c0.51-0.51,0.859-1.161,1-1.87
	c0.141-0.709,0.069-1.443-0.207-2.111c-0.277-0.667-0.746-1.238-1.346-1.639c-0.601-0.401-1.308-0.616-2.03-0.616
	c-0.969,0-1.898,0.384-2.583,1.072C58.197,349.309,57.813,350.238,57.813,351.208z M62.684,351.208c0,0.239-0.072,0.476-0.205,0.675
	c-0.134,0.2-0.324,0.356-0.546,0.448c-0.223,0.092-0.467,0.118-0.704,0.07c-0.236-0.046-0.453-0.163-0.623-0.333
	c-0.171-0.17-0.286-0.388-0.333-0.624c-0.048-0.236-0.023-0.48,0.069-0.703c0.092-0.223,0.248-0.414,0.448-0.546
	c0.201-0.134,0.437-0.206,0.677-0.206c0.324,0,0.633,0.128,0.861,0.357C62.555,350.574,62.684,350.883,62.684,351.208z"/>
<text transform="matrix(1 0 0 1 161.2983 383.8145)" fill="#FFFFFF" font-family="'OswaldStencil-Bold'" font-size="51.0705">SECURITY</text>
<g>
	<path d="M35.858,39.147c0-1.548-0.401-2.774-1.203-3.676c-0.802-0.901-2.213-1.79-4.235-2.664
		c-4.136-1.439-7.237-3.074-9.305-4.905c-2.068-1.831-3.102-4.395-3.102-7.692c0-3.261,1.203-5.916,3.607-7.965
		c2.404-2.049,5.474-3.074,9.208-3.074c3.789,0,6.868,1.144,9.236,3.429c2.368,2.287,3.516,5.169,3.443,8.649l-0.055,0.164h-7.542
		c0-1.821-0.456-3.297-1.366-4.427c-0.911-1.129-2.196-1.694-3.853-1.694c-1.549,0-2.756,0.469-3.621,1.407
		c-0.865,0.938-1.298,2.118-1.298,3.539c0,1.312,0.482,2.391,1.448,3.238c0.965,0.847,2.641,1.79,5.028,2.828
		c3.771,1.275,6.608,2.893,8.512,4.851c1.904,1.958,2.856,4.604,2.856,7.938c0,3.443-1.148,6.139-3.443,8.088
		c-2.295,1.95-5.347,2.924-9.154,2.924c-3.789,0-7.073-1.106-9.851-3.32c-2.778-2.213-4.122-5.388-4.031-9.523l0.055-0.164h7.569
		c0,2.459,0.52,4.227,1.558,5.301c1.039,1.075,2.605,1.612,4.7,1.612c1.64,0,2.855-0.437,3.648-1.312S35.858,40.641,35.858,39.147z"
		/>
	<path d="M55.259,19.964l0.301,3.771c0.783-1.384,1.767-2.45,2.951-3.197c1.184-0.747,2.542-1.12,4.072-1.12
		c1.493,0,2.796,0.396,3.907,1.188s1.958,2,2.542,3.621c0.765-1.53,1.749-2.714,2.951-3.552c1.203-0.838,2.605-1.257,4.208-1.257
		c2.441,0,4.367,1.006,5.779,3.02c1.412,2.013,2.118,5.087,2.118,9.222v17.872h-7.788V31.639c0-2.279-0.246-3.853-0.738-4.719
		c-0.492-0.866-1.257-1.3-2.295-1.3c-0.748,0-1.412,0.219-1.995,0.657c-0.583,0.438-1.065,1.04-1.448,1.806
		c0.018,0.347,0.036,0.689,0.055,1.026c0.018,0.337,0.027,0.688,0.027,1.053v19.369h-7.733V31.639c0-2.261-0.25-3.83-0.751-4.705
		c-0.501-0.875-1.28-1.313-2.336-1.313c-0.71,0-1.344,0.178-1.899,0.534c-0.556,0.356-1.034,0.853-1.435,1.491v21.886h-7.733V19.964
		H55.259z"/>
	<path d="M103.572,49.531c-0.219-0.492-0.415-1.029-0.587-1.612c-0.173-0.583-0.306-1.175-0.396-1.776
		c-0.729,1.203-1.617,2.164-2.664,2.883c-1.048,0.719-2.264,1.079-3.648,1.079c-2.441,0-4.395-0.801-5.861-2.405
		c-1.467-1.603-2.2-3.744-2.2-6.421c0-2.896,0.933-5.146,2.801-6.75c1.867-1.603,4.641-2.405,8.321-2.405h2.924V29.72
		c0-1.439-0.26-2.545-0.779-3.32c-0.52-0.774-1.298-1.161-2.336-1.161c-0.875,0-1.53,0.31-1.968,0.929
		c-0.437,0.619-0.656,1.521-0.656,2.705l-7.515-0.027l-0.082-0.164c-0.091-2.568,0.861-4.754,2.855-6.558
		c1.995-1.804,4.623-2.705,7.884-2.705c3.079,0,5.579,0.897,7.501,2.691c1.922,1.794,2.883,4.35,2.883,7.665v11.969
		c0,1.458,0.1,2.815,0.301,4.072c0.2,1.257,0.51,2.496,0.929,3.716H103.572z M98.517,44.257c0.783,0,1.507-0.209,2.173-0.628
		c0.665-0.419,1.188-0.957,1.571-1.612v-5.438h-2.924c-1.184,0-2.041,0.41-2.568,1.229c-0.529,0.82-0.792,1.858-0.792,3.115
		c0,0.984,0.228,1.786,0.683,2.405C97.114,43.948,97.733,44.257,98.517,44.257z"/>
	<path d="M128.931,27.042l-2.924-0.082c-0.82,0-1.499,0.201-2.036,0.601c-0.538,0.401-0.952,0.966-1.243,1.694v20.276h-7.761V19.964
		h7.241l0.301,3.962l0.137,0.055c0.473-1.421,1.134-2.537,1.981-3.348s1.835-1.216,2.965-1.216c0.346,0,0.715,0.032,1.107,0.095
		c0.392,0.064,0.733,0.142,1.024,0.232L128.931,27.042z"/>
	<path d="M142.977,12.613v7.351h4.099v5.629h-4.099v14.838c0,1.202,0.173,2.063,0.519,2.583c0.346,0.519,0.82,0.779,1.421,0.779
		c0.474,0,0.875-0.023,1.202-0.068c0.328-0.045,0.692-0.123,1.093-0.232l0.601,5.902c-0.82,0.255-1.603,0.438-2.35,0.546
		c-0.747,0.109-1.594,0.164-2.541,0.164c-2.496,0-4.404-0.769-5.725-2.309c-1.321-1.539-1.981-3.985-1.981-7.337V25.593h-3.498
		v-5.629h3.498v-7.351H142.977z"/>
	<path d="M181.889,39.147c0-1.548-0.401-2.774-1.203-3.676c-0.802-0.901-2.213-1.79-4.235-2.664
		c-4.136-1.439-7.237-3.074-9.305-4.905c-2.068-1.831-3.102-4.395-3.102-7.692c0-3.261,1.203-5.916,3.607-7.965
		c2.404-2.049,5.474-3.074,9.208-3.074c3.789,0,6.868,1.144,9.236,3.429c2.368,2.287,3.516,5.169,3.443,8.649l-0.055,0.164h-7.542
		c0-1.821-0.456-3.297-1.366-4.427c-0.911-1.129-2.196-1.694-3.853-1.694c-1.549,0-2.756,0.469-3.621,1.407
		c-0.865,0.938-1.298,2.118-1.298,3.539c0,1.312,0.482,2.391,1.448,3.238c0.965,0.847,2.641,1.79,5.028,2.828
		c3.771,1.275,6.608,2.893,8.512,4.851c1.904,1.958,2.856,4.604,2.856,7.938c0,3.443-1.148,6.139-3.443,8.088
		c-2.295,1.95-5.347,2.924-9.154,2.924c-3.789,0-7.073-1.106-9.851-3.32c-2.778-2.213-4.122-5.388-4.031-9.523l0.055-0.164h7.569
		c0,2.459,0.52,4.227,1.558,5.301c1.039,1.075,2.605,1.612,4.7,1.612c1.64,0,2.855-0.437,3.648-1.312S181.889,40.641,181.889,39.147
		z"/>
	<path d="M204.816,43.902c1.056,0,1.853-0.391,2.391-1.175c0.537-0.783,0.806-1.913,0.806-3.389h7.05l0.082,0.164
		c0.055,3.097-0.897,5.639-2.855,7.624c-1.958,1.986-4.45,2.979-7.474,2.979c-3.826,0-6.764-1.248-8.813-3.744
		c-2.049-2.496-3.074-5.72-3.074-9.673V32.89c0-3.935,1.02-7.164,3.061-9.687c2.04-2.523,4.964-3.785,8.772-3.785
		c3.206,0,5.752,1.029,7.638,3.087c1.885,2.059,2.801,4.837,2.746,8.335l-0.055,0.136h-7.078c0-1.611-0.269-2.907-0.806-3.886
		c-0.538-0.979-1.353-1.47-2.445-1.47c-1.549,0-2.615,0.657-3.197,1.971c-0.583,1.314-0.875,3.074-0.875,5.282v3.804
		c0,2.263,0.291,4.032,0.875,5.31C202.146,43.264,203.231,43.902,204.816,43.902z"/>
	<path d="M226.431,23.489c0.765-1.293,1.685-2.295,2.76-3.006c1.075-0.71,2.259-1.065,3.553-1.065c2.623,0,4.682,1.043,6.175,3.128
		c1.494,2.086,2.241,5.306,2.241,9.66v17.325h-7.788V32.132c0-2.444-0.287-4.14-0.861-5.088c-0.574-0.948-1.471-1.423-2.692-1.423
		c-0.729,0-1.375,0.16-1.94,0.479c-0.565,0.32-1.048,0.762-1.448,1.327v22.105h-7.761V6.902h7.761V23.489z"/>
	<path d="M245.149,32.944c0-3.971,1.052-7.219,3.156-9.742c2.104-2.523,5.051-3.785,8.84-3.785s6.74,1.261,8.854,3.785
		c2.113,2.523,3.169,5.771,3.169,9.742v3.662c0,4.008-1.057,7.26-3.169,9.755c-2.114,2.496-5.056,3.744-8.827,3.744
		c-3.808,0-6.763-1.248-8.867-3.744c-2.104-2.496-3.156-5.748-3.156-9.755V32.944z M252.883,36.595c0,2.281,0.318,4.069,0.957,5.364
		c0.637,1.295,1.749,1.943,3.333,1.943c1.53,0,2.619-0.652,3.266-1.957c0.646-1.305,0.97-3.088,0.97-5.351v-3.667
		c0-2.226-0.324-4-0.97-5.323c-0.647-1.323-1.745-1.984-3.293-1.984s-2.646,0.667-3.293,1.998c-0.646,1.332-0.97,3.102-0.97,5.31
		V36.595z"/>
	<path d="M272.339,32.944c0-3.971,1.052-7.219,3.156-9.742c2.104-2.523,5.051-3.785,8.84-3.785s6.74,1.261,8.854,3.785
		c2.113,2.523,3.169,5.771,3.169,9.742v3.662c0,4.008-1.057,7.26-3.169,9.755c-2.114,2.496-5.056,3.744-8.827,3.744
		c-3.808,0-6.763-1.248-8.867-3.744c-2.104-2.496-3.156-5.748-3.156-9.755V32.944z M280.072,36.595c0,2.281,0.318,4.069,0.957,5.364
		c0.637,1.295,1.749,1.943,3.333,1.943c1.53,0,2.619-0.652,3.266-1.957c0.646-1.305,0.97-3.088,0.97-5.351v-3.667
		c0-2.226-0.324-4-0.97-5.323c-0.647-1.323-1.745-1.984-3.293-1.984s-2.646,0.667-3.293,1.998c-0.646,1.332-0.97,3.102-0.97,5.31
		V36.595z"/>
	<path d="M308.574,49.531h-7.761V6.902h7.761V49.531z"/>
	<path d="M344.426,39.147c0-1.548-0.401-2.774-1.203-3.676c-0.802-0.901-2.213-1.79-4.235-2.664
		c-4.136-1.439-7.237-3.074-9.305-4.905c-2.068-1.831-3.102-4.395-3.102-7.692c0-3.261,1.203-5.916,3.607-7.965
		c2.404-2.049,5.474-3.074,9.208-3.074c3.789,0,6.868,1.144,9.236,3.429c2.368,2.287,3.516,5.169,3.443,8.649l-0.055,0.164h-7.542
		c0-1.821-0.456-3.297-1.366-4.427c-0.911-1.129-2.196-1.694-3.853-1.694c-1.549,0-2.756,0.469-3.621,1.407
		c-0.865,0.938-1.298,2.118-1.298,3.539c0,1.312,0.482,2.391,1.448,3.238c0.965,0.847,2.641,1.79,5.028,2.828
		c3.771,1.275,6.608,2.893,8.512,4.851c1.904,1.958,2.856,4.604,2.856,7.938c0,3.443-1.148,6.139-3.443,8.088
		c-2.295,1.95-5.347,2.924-9.154,2.924c-3.789,0-7.073-1.106-9.851-3.32c-2.778-2.213-4.122-5.388-4.031-9.523l0.055-0.164h7.569
		c0,2.459,0.52,4.227,1.558,5.301c1.039,1.075,2.605,1.612,4.7,1.612c1.64,0,2.855-0.437,3.648-1.312S344.426,40.641,344.426,39.147
		z"/>
	<path d="M366.068,37.398l0.055,0.301l4.317-17.735h8.308l-9.974,34.021c-0.748,2.131-1.745,3.912-2.992,5.342
		c-1.248,1.43-3.156,2.145-5.725,2.145c-0.638,0-1.202-0.055-1.694-0.164c-0.492-0.109-1.147-0.273-1.967-0.492l0.902-5.793
		c0.31,0.055,0.533,0.096,0.669,0.123s0.287,0.041,0.451,0.041c1.129,0,1.981-0.296,2.555-0.888
		c0.574-0.592,0.988-1.371,1.243-2.336l0.683-2.186l-8.717-29.813h8.334L366.068,37.398z"/>
	<path d="M394.269,41.798c0-0.838-0.328-1.562-0.984-2.172s-1.913-1.362-3.771-2.254c-2.97-1.111-5.197-2.368-6.681-3.771
		c-1.485-1.403-2.227-3.225-2.227-5.465c0-2.405,0.952-4.458,2.855-6.162c1.903-1.703,4.422-2.555,7.556-2.555
		c3.279,0,5.893,0.874,7.843,2.623c1.949,1.749,2.887,3.98,2.814,6.695l-0.082,0.164h-7.487c0-1.239-0.255-2.222-0.765-2.951
		c-0.51-0.729-1.294-1.093-2.35-1.093c-0.838,0-1.548,0.283-2.131,0.847c-0.583,0.565-0.875,1.248-0.875,2.05
		c0,0.874,0.291,1.581,0.875,2.118c0.583,0.538,1.849,1.271,3.798,2.2c3.097,1.057,5.392,2.309,6.886,3.757
		c1.494,1.448,2.241,3.348,2.241,5.698c0,2.514-1.002,4.573-3.006,6.175c-2.004,1.604-4.637,2.405-7.897,2.405
		c-3.407,0-6.103-0.993-8.088-2.979c-1.986-1.985-2.934-4.226-2.842-6.722l0.055-0.164h7.104c0.037,1.567,0.4,2.696,1.093,3.389
		c0.692,0.692,1.648,1.038,2.869,1.038c1.039,0,1.831-0.255,2.377-0.765C393.996,43.392,394.269,42.691,394.269,41.798z"/>
	<path d="M414.9,12.613v7.351h4.099v5.629H414.9v14.838c0,1.202,0.173,2.063,0.519,2.583c0.346,0.519,0.82,0.779,1.421,0.779
		c0.474,0,0.875-0.023,1.202-0.068c0.328-0.045,0.692-0.123,1.093-0.232l0.601,5.902c-0.82,0.255-1.603,0.438-2.35,0.546
		c-0.747,0.109-1.594,0.164-2.541,0.164c-2.496,0-4.404-0.769-5.725-2.309c-1.321-1.539-1.981-3.985-1.981-7.337V25.593h-3.498
		v-5.629h3.498v-7.351H414.9z"/>
	<path d="M434.875,50.105c-3.717,0-6.668-1.22-8.854-3.662c-2.186-2.441-3.279-5.52-3.279-9.236v-4.153
		c0-3.99,1.015-7.26,3.047-9.811c2.031-2.55,4.841-3.825,8.43-3.825c3.461,0,6.139,1.157,8.034,3.47
		c1.895,2.314,2.842,5.465,2.842,9.455v4.754h-14.62v0.109c0,1.95,0.442,3.553,1.326,4.81c0.883,1.257,2.217,1.885,4.003,1.885
		c1.458,0,2.642-0.164,3.553-0.492c0.911-0.328,1.995-0.875,3.251-1.64l1.968,4.946c-1.021,0.983-2.382,1.794-4.085,2.432
		C438.787,49.786,436.916,50.105,434.875,50.105z M434.219,25.621c-1.239,0-2.149,0.568-2.732,1.702s-0.911,2.662-0.984,4.583h6.968
		v-1.098c0-1.646-0.255-2.923-0.765-3.829C436.196,26.074,435.367,25.621,434.219,25.621z"/>
	<path d="M456.272,19.964l0.301,3.771c0.783-1.384,1.767-2.45,2.951-3.197c1.184-0.747,2.542-1.12,4.072-1.12
		c1.493,0,2.796,0.396,3.907,1.188s1.958,2,2.542,3.621c0.765-1.53,1.749-2.714,2.951-3.552c1.203-0.838,2.605-1.257,4.208-1.257
		c2.441,0,4.367,1.006,5.779,3.02c1.412,2.013,2.118,5.087,2.118,9.222v17.872h-7.788V31.639c0-2.279-0.246-3.853-0.738-4.719
		c-0.492-0.866-1.257-1.3-2.295-1.3c-0.748,0-1.412,0.219-1.995,0.657c-0.583,0.438-1.065,1.04-1.448,1.806
		c0.018,0.347,0.036,0.689,0.055,1.026c0.018,0.337,0.027,0.688,0.027,1.053v19.369h-7.733V31.639c0-2.261-0.25-3.83-0.751-4.705
		c-0.501-0.875-1.28-1.313-2.336-1.313c-0.71,0-1.344,0.178-1.899,0.534c-0.556,0.356-1.034,0.853-1.435,1.491v21.886h-7.733V19.964
		H456.272z"/>
</g>
</svg>
