<?xml version="1.0" encoding="utf-8"?>
<!-- Generator: Adobe Illustrator 16.0.0, SVG Export Plug-In . SVG Version: 6.00 Build 0)  -->
<!DOCTYPE svg PUBLIC "-//W3C//DTD SVG 1.1//EN" "http://www.w3.org/Graphics/SVG/1.1/DTD/svg11.dtd">
<svg version="1.1" id="Layer_1" xmlns="http://www.w3.org/2000/svg" xmlns:xlink="http://www.w3.org/1999/xlink" x="0px" y="0px"
	 width="676.385px" height="372.975px" viewBox="0 0 676.385 372.975" enable-background="new 0 0 676.385 372.975"
	 xml:space="preserve">
<g>
	<g>
		<path fill="#634FA1" d="M260.937,354.119l2.904,2.904c1.56-1.56,3.634-2.419,5.84-2.419c2.206,0,4.281,0.859,5.84,2.419
			l2.905-2.904c-2.335-2.336-5.442-3.623-8.745-3.623C266.377,350.496,263.272,351.783,260.937,354.119z"/>
		<path fill="#634FA1" d="M256.118,349.301l2.905,2.904c2.847-2.847,6.632-4.415,10.658-4.415c4.026,0,7.812,1.568,10.659,4.415
			l2.904-2.904c-3.623-3.623-8.44-5.618-13.563-5.618C264.558,343.683,259.741,345.678,256.118,349.301z"/>
		<path fill="#634FA1" d="M269.681,336.868c-6.943,0-13.471,2.704-18.381,7.615l2.904,2.904c4.134-4.135,9.63-6.411,15.477-6.411
			c5.847,0,11.343,2.276,15.477,6.411l2.905-2.904C283.153,339.572,276.625,336.868,269.681,336.868z"/>
		<circle fill="#634FA1" cx="269.681" cy="360.529" r="3.506"/>
	</g>
	<g>
		<path fill="none" stroke="#634FA1" stroke-miterlimit="10" d="M327.761,82.626l2.905,2.905c1.56-1.56,3.634-2.419,5.84-2.419
			c2.206,0,4.281,0.859,5.84,2.419l2.904-2.905c-2.335-2.336-5.441-3.623-8.745-3.623C333.202,79.003,330.096,80.29,327.761,82.626z
			"/>
		<path fill="none" stroke="#634FA1" stroke-miterlimit="10" d="M322.943,77.808l2.904,2.904c2.847-2.847,6.632-4.415,10.659-4.415
			c4.026,0,7.811,1.568,10.659,4.415l2.904-2.904c-3.623-3.624-8.44-5.619-13.563-5.619
			C331.382,72.189,326.565,74.185,322.943,77.808z"/>
		<path fill="none" stroke="#634FA1" stroke-miterlimit="10" d="M336.506,65.375c-6.944,0-13.472,2.704-18.381,7.615l2.905,2.904
			c4.134-4.134,9.63-6.411,15.477-6.411c5.846,0,11.342,2.276,15.476,6.411l2.905-2.904C349.977,68.08,343.45,65.375,336.506,65.375
			z"/>
		<circle fill="none" stroke="#634FA1" stroke-miterlimit="10" cx="336.506" cy="89.036" r="3.506"/>
	</g>
	<g>
		
			<line fill="none" stroke="#634FA1" stroke-width="0.75" stroke-linecap="round" stroke-linejoin="round" stroke-miterlimit="10" x1="388.743" y1="203.771" x2="388.743" y2="212.767"/>
		
			<line fill="none" stroke="#634FA1" stroke-width="0.75" stroke-linecap="round" stroke-linejoin="round" stroke-miterlimit="10" x1="384.246" y1="208.269" x2="393.24" y2="208.269"/>
	</g>
	<g>
		
			<line fill="none" stroke="#DB7395" stroke-width="0.75" stroke-linecap="round" stroke-linejoin="round" stroke-miterlimit="10" x1="64.725" y1="290.291" x2="64.725" y2="299.285"/>
		
			<line fill="none" stroke="#DB7395" stroke-width="0.75" stroke-linecap="round" stroke-linejoin="round" stroke-miterlimit="10" x1="60.227" y1="294.788" x2="69.222" y2="294.788"/>
	</g>
	<g>
		
			<line fill="none" stroke="#DB7395" stroke-width="0.75" stroke-linecap="round" stroke-linejoin="round" stroke-miterlimit="10" x1="140.827" y1="349.263" x2="140.827" y2="358.257"/>
		
			<line fill="none" stroke="#DB7395" stroke-width="0.75" stroke-linecap="round" stroke-linejoin="round" stroke-miterlimit="10" x1="136.329" y1="353.76" x2="145.324" y2="353.76"/>
	</g>
	<g>
		
			<line fill="none" stroke="#DB7395" stroke-width="0.75" stroke-linecap="round" stroke-linejoin="round" stroke-miterlimit="10" x1="663.351" y1="277.513" x2="663.351" y2="286.508"/>
		
			<line fill="none" stroke="#DB7395" stroke-width="0.75" stroke-linecap="round" stroke-linejoin="round" stroke-miterlimit="10" x1="658.854" y1="282.011" x2="667.848" y2="282.011"/>
	</g>
	<g>
		
			<line fill="none" stroke="#DB7395" stroke-width="0.75" stroke-linecap="round" stroke-linejoin="round" stroke-miterlimit="10" x1="258.102" y1="77.77" x2="258.102" y2="86.764"/>
		
			<line fill="none" stroke="#DB7395" stroke-width="0.75" stroke-linecap="round" stroke-linejoin="round" stroke-miterlimit="10" x1="253.605" y1="82.267" x2="262.6" y2="82.267"/>
	</g>
	<g>
		
			<line fill="none" stroke="#634FA1" stroke-width="0.75" stroke-linecap="round" stroke-linejoin="round" stroke-miterlimit="10" x1="73.134" y1="42.827" x2="73.134" y2="51.821"/>
		
			<line fill="none" stroke="#634FA1" stroke-width="0.75" stroke-linecap="round" stroke-linejoin="round" stroke-miterlimit="10" x1="68.637" y1="47.324" x2="77.631" y2="47.324"/>
	</g>
	<g>
		
			<line fill="none" stroke="#EFDB37" stroke-width="0.75" stroke-linecap="round" stroke-linejoin="round" stroke-miterlimit="10" x1="119.437" y1="196.073" x2="119.437" y2="205.067"/>
		
			<line fill="none" stroke="#EFDB37" stroke-width="0.75" stroke-linecap="round" stroke-linejoin="round" stroke-miterlimit="10" x1="114.94" y1="200.57" x2="123.934" y2="200.57"/>
	</g>
	<g>
		
			<line fill="none" stroke="#EFDB37" stroke-width="0.75" stroke-linecap="round" stroke-linejoin="round" stroke-miterlimit="10" x1="300.443" y1="310.845" x2="300.443" y2="319.84"/>
		
			<line fill="none" stroke="#EFDB37" stroke-width="0.75" stroke-linecap="round" stroke-linejoin="round" stroke-miterlimit="10" x1="295.946" y1="315.342" x2="304.94" y2="315.342"/>
	</g>
	
		<circle fill="none" stroke="#EFDB37" stroke-width="0.75" stroke-linecap="round" stroke-linejoin="round" stroke-miterlimit="10" cx="217.339" cy="80.688" r="3.091"/>
	<g>
		<circle fill="#DA6981" cx="619.276" cy="291.32" r="19.859"/>
		<g>
			<rect x="607.927" y="282.928" fill="none" stroke="#FFFFFF" stroke-miterlimit="10" width="23.288" height="17.495"/>
			<polyline fill="none" stroke="#FFFFFF" stroke-miterlimit="10" points="607.927,282.928 619.571,293.685 631.215,282.928 			"/>
		</g>
	</g>
	<g>
		<circle fill="#E3AFC8" cx="60.227" cy="337.85" r="16.453"/>
		<g>
			<rect x="50.825" y="330.896" fill="none" stroke="#FFFFFF" stroke-miterlimit="10" width="19.293" height="14.494"/>
			<polyline fill="none" stroke="#FFFFFF" stroke-miterlimit="10" points="50.825,330.896 60.472,339.809 70.119,330.896 			"/>
		</g>
	</g>
	<g>
		<circle fill="#E3AFC8" cx="242.205" cy="54.301" r="10.457"/>
		<g>
			<rect x="236.23" y="49.882" fill="none" stroke="#FFFFFF" stroke-miterlimit="10" width="12.261" height="9.211"/>
			<polyline fill="none" stroke="#FFFFFF" stroke-miterlimit="10" points="236.23,49.882 242.361,55.546 248.491,49.882 			"/>
		</g>
	</g>
	<polygon fill="#DA6981" points="140.827,163.712 143.651,168.604 146.475,173.495 140.827,173.495 135.178,173.495 
		138.002,168.604 	"/>
	<polygon fill="none" stroke="#DA6981" stroke-miterlimit="10" points="384.646,306.931 391.091,312.59 397.538,318.249 
		389.414,321.002 381.29,323.755 382.967,315.343 	"/>
	<polygon fill="none" stroke="#DA6981" stroke-miterlimit="10" points="24.777,43.039 22.532,51.317 20.288,59.597 14.24,53.513 
		8.193,47.429 16.485,45.234 	"/>
	<polygon fill="none" stroke="#9988C0" stroke-miterlimit="10" points="663.339,325.066 661.393,332.246 659.446,339.426 
		654.202,334.149 648.958,328.874 656.149,326.97 	"/>
	<circle fill="none" stroke="#DA6981" stroke-miterlimit="10" cx="200.409" cy="332.246" r="4.623"/>
	<circle fill="none" stroke="#DA6981" stroke-miterlimit="10" cx="364.279" cy="32.105" r="6.521"/>
	<circle fill="#DA6981" cx="237.45" cy="207.75" r="4.144"/>
	<circle fill="#DA6981" cx="370.8" cy="353.198" r="4.144"/>
	<circle fill="#E3AFC8" cx="247.918" cy="292.021" r="2.472"/>
	<circle fill="none" stroke="#DA6981" stroke-miterlimit="10" cx="571.135" cy="353.198" r="7.331"/>
	<circle fill="none" stroke="#634FA1" stroke-miterlimit="10" cx="453.124" cy="223.022" r="6.427"/>
	<circle fill="none" stroke="#634FA1" stroke-miterlimit="10" cx="28.218" cy="268.317" r="5.785"/>
	<circle fill="#634FA1" cx="634.638" cy="219.125" r="5.004"/>
	<circle fill="none" stroke="#634FA1" stroke-miterlimit="10" cx="342.24" cy="338.679" r="5.004"/>
	<path fill="none" stroke="#EFDB37" stroke-miterlimit="10" d="M581.641,319.328c0,0,8.298-0.814,10.47,4.427
		c2.173,5.24,3.041,10.314,16.073,3.868"/>
	<path fill="none" stroke="#EFDB37" stroke-miterlimit="10" d="M35.339,99.641c0,0-1.099,7.598-6.263,8.385
		c-5.164,0.787-9.891,0.447-6.998,13.517"/>
	<path fill="none" stroke="#EFDB37" stroke-miterlimit="10" d="M288.063,34.624c0,0,8.298-0.814,10.47,4.426
		c2.172,5.241,3.041,10.315,16.072,3.869"/>
	<circle fill="#EFDB37" cx="324.365" cy="153.014" r="3.747"/>
	<circle fill="none" stroke="#D9D4EA" stroke-miterlimit="10" cx="126.353" cy="33.893" r="4.706"/>
</g>
<g>
	<path fill="none" stroke="#C3BFDF" stroke-miterlimit="10" stroke-dasharray="4" d="M92.864,265.094
		c-46.999,0-85.1-36.157-85.1-80.761c0-31.525,19.034-58.832,46.791-72.134"/>
	<path fill="none" stroke="#C3BFDF" stroke-miterlimit="10" stroke-dasharray="4" d="M276.656,283.802
		c3.455,31.576-20.303,60.079-53.063,63.663c-32.76,3.584-62.118-19.108-65.572-50.685"/>
	
		<ellipse fill="none" stroke="#C3BFDF" stroke-miterlimit="10" stroke-dasharray="4" cx="345.108" cy="73.174" rx="57.992" ry="56.707"/>
	
		<ellipse fill="none" stroke="#C3BFDF" stroke-miterlimit="10" stroke-dasharray="4" cx="167.608" cy="150.084" rx="55.331" ry="54.104"/>
	
		<ellipse fill="none" stroke="#C3BFDF" stroke-miterlimit="10" stroke-dasharray="4" cx="421.042" cy="229.046" rx="54.254" ry="50.145"/>
</g>
<path fill="#F7AFBE" d="M220.816,319.328H92.479c-5.162,0-9.347-4.185-9.347-9.347v-82.598c0-5.162,4.185-9.347,9.347-9.347h128.337
	c5.162,0,9.347,4.185,9.347,9.347v82.598C230.163,315.144,225.978,319.328,220.816,319.328z"/>
<path fill="#FFFFFF" d="M211.083,301.138H102.211c-5.162,0-9.347-4.185-9.347-9.347v-58.517c0-5.162,4.185-9.347,9.347-9.347
	h108.873c5.162,0,9.347,4.185,9.347,9.347v58.517C220.43,296.953,216.246,301.138,211.083,301.138z"/>
<path fill="#010101" d="M130.985,259.213c0,0-6.924,21.814,7.225,26.631c14.148,4.816,15.733,0.827,18.878,8.36
	c3.145,7.532,15.74,4.283,16.945-7.307c1.204-11.59-7.348-10.687-11.802-11.289c-4.454-0.602-7.419-8.78-7.376-13.037
	C154.897,258.315,132.588,250.328,130.985,259.213z"/>
<g>
	<defs>
		<path id="SVGID_1_" d="M211.083,301.138H102.211c-5.162,0-9.347-4.185-9.347-9.347v-58.517c0-5.162,4.185-9.347,9.347-9.347
			h108.873c5.162,0,9.347,4.185,9.347,9.347v58.517C220.43,296.953,216.246,301.138,211.083,301.138z"/>
	</defs>
	<clipPath id="SVGID_2_">
		<use xlink:href="#SVGID_1_"  overflow="visible"/>
	</clipPath>
	<g clip-path="url(#SVGID_2_)">
		<g>
			<path fill="#FFFFFF" stroke="#010101" stroke-miterlimit="10" d="M146.675,279.674c0,0,15.081,0.921,30.639,15.539
				c15.558,14.619,15.149,52.347,15.149,52.347l-46.445-1.187L146.675,279.674z"/>
			<g>
				<path fill="#FFFFFF" d="M162.615,292.161c10.408,7.784,31.593,54.028,24.867,54.189c-6.726,0.16-87.011-0.483-89.533-2.979
					c-2.522-2.495,8.407-24.539,8.407-24.539s16.888-34.706,43.04-34.923C158.113,283.838,151.502,283.851,162.615,292.161z"/>
				<path fill="none" stroke="#1C191B" stroke-miterlimit="10" d="M119.958,320.613c0,0-7.357,20.619-5.659,22.953
					s55.744,2.936,60.271,2.785c4.527-0.15-3.144-32.656-6.978-42.005"/>
			</g>
		</g>
		<g>
			<path fill="#FFFFFF" stroke="#1C191B" stroke-miterlimit="10" d="M148.239,331.402c0,0,6.063-4.057,21.731-0.2
				c0,0,3.041,1.366,0.708,1.986c-2.332,0.62-8.152-0.32-8.152-0.32s9.024,0.823,9.228,2.394c0.204,1.569-8.507,0.044-8.507,0.044
				s9.387,1.478,9.274,3.07c-0.112,1.592-5.333-0.184-10.399,0.18s-14.307,4.082-15.739,3.053
				C144.951,340.579,141.83,333.786,148.239,331.402z"/>
			<g>
				<path fill="#FFFFFF" stroke="#010101" stroke-miterlimit="10" d="M143.159,279.676c-9.361,0.083-19.619,2.993-29.558,11.098
					c-13.565,11.061-36.576,45.832-26.529,63.781c10.047,17.949,33.189,10.95,41.205,7.338c8.015-3.612,23.689-15.631,25.399-20.546
					c2.004-5.757,1.129-9.821-6.096-11.627c-7.225-1.807-33.753,1.016-38.946,4.402"/>
				<path fill="#EFDB37" stroke="#010101" stroke-miterlimit="10" d="M153.676,341.347c1.959-5.626,1.15-9.629-5.629-11.494
					c-0.361,1.809-0.45,3.971-0.186,6.27c0.442,3.843,1.753,7.096,3.355,8.821C152.462,343.551,153.34,342.311,153.676,341.347z"/>
			</g>
		</g>
		<path fill="#EFDB37" stroke="#1C191B" stroke-miterlimit="10" d="M131.915,307.58c0,0-7.911-5.795-4.864-8.464
			s5.674,2.842,5.674,2.842s1.836-4.833,4.455-3.218C139.799,300.354,131.915,307.58,131.915,307.58z"/>
	</g>
</g>
<ellipse fill="#EFDB37" stroke="#1C191B" stroke-miterlimit="10" cx="143.159" cy="282.873" rx="8.487" ry="4.945"/>
<ellipse fill="#FFFFFF" stroke="#010101" stroke-miterlimit="10" cx="133.656" cy="259.213" rx="6.306" ry="6.255"/>
<path fill="#FFFFFF" stroke="#010101" stroke-miterlimit="10" d="M153.595,240.931h-7.461c-4.96,0-9.019,4.621-9.019,10.269v11.566
	c0,0.325,0.017,0.647,0.043,0.966c-0.081,0.341-0.128,0.694-0.128,1.06v7.041v0.392v7.041c0,2.555,2.091,4.646,4.646,4.646h2.96
	c2.555,0,4.645-2.091,4.645-4.646v-6.23h4.314c4.96,0,9.02-4.621,9.02-10.269v-11.566
	C162.615,245.552,158.556,240.931,153.595,240.931z"/>
<g>
	<g>
		<path fill="#010101" d="M136.484,256.399c0,0,7.315-2.431,9.534-7.15s1.666-5.737,1.666-5.737s4.123,5.646,10.64,7.033
			c5.379,1.145,5.16,0.35,5.691-0.902c0.486-1.146,0.815-9.115-7.355-14.021c-8.17-4.904-16.948-4.419-23.004,1.689
			c-6.056,6.107-5.315,15.731-3.279,18.138C132.412,257.855,135.096,259.2,136.484,256.399z"/>
	</g>
</g>
<g>
	<ellipse fill="#FFFFFF" cx="133.656" cy="259.213" rx="5.94" ry="5.892"/>
	<path fill="none" stroke="#030303" stroke-miterlimit="10" d="M136.869,259.991c0,0,0.261-4.002-3.848-3.558"/>
</g>
<g>
	<g>
		<circle fill="#010101" cx="149.365" cy="254.978" r="1.682"/>
		<circle fill="#010101" cx="160.13" cy="254.731" r="1.436"/>
	</g>
	<path fill="none" stroke="#0E0E0E" stroke-miterlimit="10" d="M157.089,261.613c0,0-0.845,2.463-2.632,2.632
		c-1.787,0.169-3.188-1.812-3.284-3.356"/>
	<g>
		<circle fill="#E3AFC8" cx="146.018" cy="261.163" r="4.181"/>
		<path fill="#E3AFC8" d="M161.494,258.329c0.254,0,0.5,0.033,0.738,0.09v4.336c0,0.648-0.024,1.274-0.156,1.885
			c-0.174,0.03-0.399,0.054-0.582,0.054c-1.757,0-3.182-1.425-3.182-3.182C158.312,259.754,159.736,258.329,161.494,258.329z"/>
	</g>
	<polygon fill="#DB7395" points="155.199,253.296 154.855,259.023 157.589,257.356 	"/>
</g>
<path fill="none" stroke="#010101" stroke-miterlimit="10" d="M208.842,240.931h-30.075c-2.986,0-5.406-2.421-5.406-5.406l0,0
	c0-2.986,2.42-5.406,5.406-5.406h30.075c2.985,0,5.406,2.42,5.406,5.406l0,0C214.248,238.51,211.827,240.931,208.842,240.931z"/>
<path fill="none" stroke="#010101" stroke-miterlimit="10" d="M211.083,301.138H102.211c-5.162,0-9.347-4.185-9.347-9.347v-58.517
	c0-5.162,4.185-9.347,9.347-9.347h108.873c5.162,0,9.347,4.185,9.347,9.347v58.517C220.43,296.953,216.246,301.138,211.083,301.138z
	"/>
<g>
	<g>
		<path fill="#010101" d="M160.239,309.957c-0.235,4.361-6.533,4.361-6.768,0C153.237,305.594,160.005,305.616,160.239,309.957
			c0.043,0.802,1.293,0.806,1.25,0c-0.141-2.623-2.011-4.492-4.634-4.634c-2.617-0.141-4.504,2.224-4.634,4.634
			c-0.141,2.617,2.224,4.504,4.634,4.634c2.617,0.141,4.504-2.224,4.634-4.634C161.533,309.151,160.282,309.155,160.239,309.957z"/>
	</g>
</g>
<path fill="#F4ABBE" d="M305.265,182.816h-107.93c-4.341,0-7.86-3.52-7.86-7.86v-69.463c0-4.341,3.519-7.86,7.86-7.86h107.93
	c4.341,0,7.86,3.52,7.86,7.86v69.463C313.125,179.297,309.606,182.816,305.265,182.816z"/>
<path fill="#FFFFFF" stroke="#010101" stroke-miterlimit="10" d="M297.08,167.519h-91.56c-4.341,0-7.86-3.52-7.86-7.86v-49.212
	c0-4.341,3.519-7.86,7.86-7.86h91.56c4.341,0,7.86,3.519,7.86,7.86v49.212C304.94,164,301.421,167.519,297.08,167.519z"/>
<path fill="#DB7395" stroke="#010101" stroke-miterlimit="10" d="M225.836,167.519h49.744c-5.019-6.799-14.276-11.363-24.872-11.363
	S230.855,160.72,225.836,167.519z"/>
<ellipse fill="#010101" stroke="#1C191B" stroke-miterlimit="10" cx="251.34" cy="157.506" rx="8.153" ry="4.75"/>
<ellipse fill="#FFFFFF" stroke="#010101" stroke-miterlimit="10" cx="242.212" cy="134.779" rx="6.057" ry="6.008"/>
<path fill="#FFFFFF" stroke="#010101" stroke-miterlimit="10" d="M261.365,117.218h-7.167c-4.765,0-8.663,4.438-8.663,9.863v11.11
	c0,0.313,0.016,0.622,0.042,0.928c-0.077,0.328-0.123,0.667-0.123,1.018v6.763v0.377v6.763c0,2.454,2.008,4.462,4.462,4.462h2.843
	c2.454,0,4.462-2.008,4.462-4.462v-5.985h4.144c4.765,0,8.663-4.438,8.663-9.863v-11.11
	C270.028,121.657,266.129,117.218,261.365,117.218z"/>
<g>
	<path fill="#010101" d="M244.929,132.077c0,0,7.026-2.334,9.158-6.868c2.131-4.533,1.6-5.511,1.6-5.511s3.96,5.423,10.221,6.756
		c5.167,1.1,4.957,0.336,5.467-0.867c0.467-1.1,0.783-8.756-7.065-13.467c-7.848-4.711-16.279-4.245-22.096,1.622
		c-5.817,5.867-5.106,15.111-3.15,17.422C241.018,133.476,243.595,134.767,244.929,132.077z"/>
</g>
<g>
	<ellipse fill="#FFFFFF" cx="242.212" cy="134.779" rx="5.706" ry="5.66"/>
	<path fill="none" stroke="#030303" stroke-miterlimit="10" d="M245.298,135.527c0,0,0.251-3.844-3.696-3.417"/>
</g>
<g>
	<g>
		<circle fill="#0E0E0E" cx="257.302" cy="130.711" r="1.615"/>
		<circle fill="#0E0E0E" cx="267.642" cy="130.475" r="1.379"/>
	</g>
	<path fill="#FEF7F7" stroke="#0E0E0E" stroke-miterlimit="10" d="M264.72,137.084c0,0-0.812,2.366-2.528,2.528
		c-1.716,0.163-3.062-1.74-3.154-3.224L264.72,137.084z"/>
	<g>
		<circle fill="#E3AFC8" cx="254.086" cy="136.652" r="4.016"/>
		<path fill="#E3AFC8" d="M268.951,133.931c0.245,0,0.481,0.032,0.709,0.086v4.165c0,0.623-0.023,1.225-0.149,1.811
			c-0.167,0.028-0.384,0.051-0.56,0.051c-1.688,0-3.056-1.368-3.056-3.056S267.263,133.931,268.951,133.931z"/>
	</g>
	<polygon fill="#DB7395" points="262.905,129.096 262.575,134.597 265.201,132.997 	"/>
</g>
<g>
	<g>
		<path fill="#010101" d="M254.222,174.936c-0.19,3.54-5.302,3.54-5.493,0C248.538,171.394,254.032,171.413,254.222,174.936
			c0.043,0.802,1.293,0.806,1.25,0c-0.122-2.261-1.735-3.875-3.997-3.997c-2.256-0.122-3.884,1.919-3.996,3.997
			c-0.122,2.256,1.918,3.884,3.996,3.996c2.256,0.122,3.885-1.918,3.997-3.996C255.515,174.13,254.265,174.134,254.222,174.936z"/>
	</g>
</g>
<g>
	<path fill="#F598AC" d="M164.767,145.178H56.837c-4.341,0-7.86-3.519-7.86-7.86V67.854c0-4.341,3.519-7.86,7.86-7.86h107.93
		c4.341,0,7.86,3.52,7.86,7.86v69.463C172.627,141.659,169.108,145.178,164.767,145.178z"/>
	<g>
		<g>
			<path fill="#010101" d="M113.724,137.298c-0.19,3.54-5.303,3.54-5.493,0C108.04,133.756,113.534,133.774,113.724,137.298
				c0.043,0.802,1.293,0.806,1.25,0c-0.122-2.261-1.735-3.875-3.997-3.997c-2.256-0.122-3.885,1.918-3.997,3.997
				c-0.122,2.256,1.919,3.884,3.997,3.996c2.256,0.122,3.885-1.918,3.997-3.996C115.018,136.492,113.767,136.496,113.724,137.298z"
				/>
		</g>
	</g>
</g>
<g>
	<g>
		<path fill="#FFFFFF" d="M156.583,129.881h-91.56c-4.341,0-7.86-3.519-7.86-7.86V72.809c0-4.341,3.519-7.86,7.86-7.86h91.56
			c4.341,0,7.86,3.519,7.86,7.86v49.212C164.443,126.362,160.924,129.881,156.583,129.881z"/>
		<g>
			<g>
				<g>
					<defs>
						<path id="SVGID_3_" d="M156.583,129.881h-91.56c-4.341,0-7.86-3.519-7.86-7.86V72.809c0-4.341,3.519-7.86,7.86-7.86h91.56
							c4.341,0,7.86,3.519,7.86,7.86v49.212C164.443,126.362,160.924,129.881,156.583,129.881z"/>
					</defs>
					<clipPath id="SVGID_4_">
						<use xlink:href="#SVGID_3_"  overflow="visible"/>
					</clipPath>
					<g clip-path="url(#SVGID_4_)">
						<g>
							<path fill="#FFFFFF" stroke="#010101" stroke-miterlimit="10" d="M95.573,112.651c-20.092,0-36.38,20.489-36.38,45.763h72.76
								C131.953,133.14,115.665,112.651,95.573,112.651z"/>
							<g>
								<circle fill="#EFDB37" cx="81.609" cy="123.672" r="2.597"/>
								<circle fill="#EFDB37" cx="94.515" cy="133.373" r="2.886"/>
								<circle fill="#EFDB37" cx="105.602" cy="123.672" r="2.597"/>
								<circle fill="#EFDB37" cx="118.25" cy="130.382" r="2.237"/>
								<circle fill="#EFDB37" cx="72.546" cy="134.891" r="2.706"/>
								<circle fill="#EFDB37" cx="84.138" cy="142.718" r="2.886"/>
								<circle fill="#EFDB37" cx="110.871" cy="142.213" r="2.381"/>
								<circle fill="#EFDB37" cx="122.795" cy="146.903" r="2.309"/>
								<circle fill="#EFDB37" cx="69.697" cy="148.057" r="2.453"/>
								<circle fill="#EFDB37" cx="98.026" cy="150.51" r="2.453"/>
							</g>
						</g>
						<g>
							<path fill="#634FA1" d="M134.765,134.655l0.725-2.44c0,0,0.075-0.652-0.861-1.012c-0.936-0.36-15.254-5.871-15.254-5.871
								s-1.224-0.719-1.56,0.161c-0.336,0.88-2.71,4.77-2.71,4.77s-0.68,0.988,0.149,1.445c0.829,0.457,13.798,5.345,13.798,5.345
								l3.313,1.373c0,0,1.045,0.375,1.215-0.126C133.751,137.799,134.765,134.655,134.765,134.655z"/>
							<path fill="#FFFFFF" d="M138.76,117.52c0,0,1.288-6.658,0.226-7.906s-2.068,0.09-2.595,1.774
								c-0.526,1.684-1.356,4.866-1.356,4.866l-3.336-6.714c0,0,7.425-5.411,7.702-6.398s0.344-1.651-0.171-1.657
								c-0.515-0.005-2.099,0.418-2.099,0.418s2.506-2.418,1.729-3.277c-0.778-0.859-3.494,1.114-3.494,1.114
								s0.975-3.672,0.526-4.377c-0.448-0.705-3.485,3.473-4.325,5.031c-0.84,1.558-2.345,4.14-2.345,4.14s-1,0.781-0.957,1.199
								c0.043,0.419-1.224,1.347-1.419,1.521c-0.194,0.174-1.707,3.337-3.14,6.563c-1.434,3.225-3.55,7.606-3.55,7.606l-1.038,1.994
								c0,0-1.108,1.622,1.197,2.281s11.422,4.396,11.422,4.396l2.89,1.112c0,0,0.868,1.215,1.575-1.58
								C136.909,126.828,138.76,117.52,138.76,117.52z"/>
							<g>
								<path fill="none" stroke="#010101" stroke-miterlimit="10" d="M133.054,139.805c5.018-14.014,7.121-28.676,5.932-30.191
									c-1.652-2.105-2.675,1.488-3.951,6.64l-3.336-6.714c0,0,8.007-5.449,8.007-7.62c0-2.171-12.559,3.971-13.659,6.255
									c-0.708,1.47-4.967,13.473-12.154,23.905"/>
								<path fill="none" stroke="#010101" stroke-miterlimit="10" d="M136.326,102.098c0,0,3.306-2.05,2.533-3.474
									c-0.773-1.423-10.798,5.657-10.551,7.525"/>
								<path fill="none" stroke="#010101" stroke-miterlimit="10" d="M135.013,99.95c0,0,2.058-4.084,0.878-4.589
									c-1.179-0.504-5.393,6.291-5.884,8.37"/>
							</g>
							<g>
								<g>
									<line fill="none" stroke="#010101" stroke-miterlimit="10" x1="135.663" y1="131.602" x2="118.3" y2="124.919"/>
									<line fill="none" stroke="#010101" stroke-miterlimit="10" x1="133.39" y1="138.851" x2="114.583" y2="131.057"/>
								</g>
								<g>
									<line fill="none" stroke="#010101" stroke-miterlimit="10" x1="133.416" y1="130.736" x2="130.733" y2="137.75"/>
									<line fill="none" stroke="#010101" stroke-miterlimit="10" x1="130.087" y1="129.456" x2="127.402" y2="136.369"/>
									<line fill="none" stroke="#010101" stroke-miterlimit="10" x1="126.968" y1="128.126" x2="124.352" y2="134.949"/>
									<line fill="none" stroke="#010101" stroke-miterlimit="10" x1="123.516" y1="126.853" x2="121.139" y2="133.662"/>
									<line fill="none" stroke="#010101" stroke-miterlimit="10" x1="120.608" y1="125.792" x2="117.766" y2="132.34"/>
								</g>
							</g>
						</g>
					</g>
				</g>
				<g>
					
						<ellipse fill="none" stroke="#010101" stroke-width="2" stroke-miterlimit="10" cx="86.761" cy="92.162" rx="5.509" ry="5.463"/>
					<ellipse fill="#634FA1" stroke="#211F21" stroke-miterlimit="10" cx="95.573" cy="114.102" rx="7.87" ry="4.586"/>
					<path fill="#FFFFFF" stroke="#010101" stroke-miterlimit="10" d="M105.251,75.208h-6.919c-4.6,0-8.364,4.285-8.364,9.522
						v10.726c0,0.302,0.016,0.601,0.04,0.896c-0.075,0.316-0.118,0.644-0.118,0.982v6.529v0.363v6.529
						c0,2.369,1.938,4.308,4.308,4.308h2.745c2.37,0,4.308-1.938,4.308-4.308v-5.778h4.001c4.6,0,8.364-4.285,8.364-9.522V84.73
						C113.615,79.493,109.851,75.208,105.251,75.208z"/>
					<g>
						<g>
							<circle fill="#161616" cx="101.328" cy="88.234" r="1.56"/>
							<circle fill="#161616" cx="111.311" cy="88.006" r="1.331"/>
						</g>
						<g>
							<path fill="#F7F7F6" d="M108.49,94.387c0,0-0.784,2.284-2.44,2.44c-1.657,0.157-2.956-1.679-3.045-3.112L108.49,94.387z"/>
							<g>
								<path fill="#161616" d="M107.952,94.239c-0.246,0.69-0.692,1.371-1.294,1.793c-1.481,1.039-2.954-1.024-3.096-2.316
									c-0.186,0.186-0.372,0.372-0.558,0.558c1.829,0.224,3.657,0.448,5.486,0.672c0.713,0.087,0.705-1.03,0-1.116
									c-1.829-0.224-3.657-0.448-5.486-0.672c-0.28-0.034-0.589,0.281-0.558,0.558c0.198,1.803,1.678,3.984,3.752,3.65
									c1.426-0.229,2.373-1.543,2.83-2.83C109.27,93.855,108.191,93.565,107.952,94.239z"/>
							</g>
						</g>
						<g>
							<circle fill="#E3AFC8" cx="98.224" cy="93.97" r="3.877"/>
							<path fill="#E3AFC8" d="M112.575,91.342c0.236,0,0.464,0.031,0.684,0.083v4.021c0,0.601-0.022,1.182-0.144,1.748
								c-0.162,0.027-0.371,0.05-0.54,0.05c-1.63,0-2.951-1.321-2.951-2.951C109.625,92.664,110.945,91.342,112.575,91.342z"/>
						</g>
						<polygon fill="#DA6981" points="106.738,86.675 106.419,91.985 108.955,90.44 						"/>
					</g>
					<path fill="#010101" d="M91.858,90.093l1.2-6.508c0,0,6.736,2.154,11.887-1.973c5.15-4.126-3.305-5.785-1.94-2.715
						c1.364,3.071,6.087,4.336,11.931,3.692c8.698-0.958,8.917-11.466,3.917-14.552c-4.999-3.086-10.654,0.543-10.654,0.543
						s2.604-5.213-3.906-6.951c-5.351-1.428-9.356,3.101-9.945,5.104c0,0-8.817,0.869-12.739,6.407
						c-3.921,5.538-4.228,12.164-0.356,18.201c3.872,6.038,8.491,9.291,8.491,9.291S90.5,92.818,91.858,90.093z"/>
					<g>
						<ellipse fill="#FFFFFF" cx="86.761" cy="92.162" rx="5.509" ry="5.463"/>
						<g>
							<g>
								<path fill="#0B0B0B" d="M90.428,92.883c0.045-0.767-0.157-1.563-0.495-2.245c-0.703-1.418-2.285-1.876-3.761-1.742
									c-0.876,0.08-0.884,1.457,0,1.376c1.06-0.096,2.179,0.091,2.632,1.178c0.202,0.486,0.279,0.92,0.249,1.433
									C89,93.77,90.376,93.765,90.428,92.883L90.428,92.883z"/>
							</g>
						</g>
					</g>
				</g>
			</g>
		</g>
		<path fill="none" d="M156.583,129.881h-91.56c-4.341,0-7.86-3.519-7.86-7.86V72.809c0-4.341,3.519-7.86,7.86-7.86h91.56
			c4.341,0,7.86,3.519,7.86,7.86v49.212C164.443,126.362,160.924,129.881,156.583,129.881z"/>
	</g>
	<path fill="none" stroke="#010101" stroke-miterlimit="10" d="M156.583,129.881h-91.56c-4.341,0-7.86-3.519-7.86-7.86V72.809
		c0-4.341,3.519-7.86,7.86-7.86h91.56c4.341,0,7.86,3.519,7.86,7.86v49.212C164.443,126.362,160.924,129.881,156.583,129.881z"/>
</g>
<g>
	<g>
		<path fill="#F7AFBD" d="M372.848,291.32H263.917c-4.381,0-7.934-3.552-7.934-7.934v-70.107c0-4.382,3.552-7.934,7.934-7.934
			h108.931c4.382,0,7.934,3.552,7.934,7.934v70.107C380.782,287.769,377.23,291.32,372.848,291.32z"/>
		<g>
			<g>
				<path fill="#010101" d="M321.337,283.366c-0.193,3.581-5.362,3.581-5.555,0C315.589,279.784,321.145,279.804,321.337,283.366
					c0.043,0.802,1.293,0.806,1.25,0c-0.123-2.279-1.749-3.904-4.028-4.027c-2.274-0.122-3.915,1.934-4.027,4.027
					c-0.123,2.274,1.933,3.916,4.027,4.028c2.274,0.122,3.915-1.934,4.028-4.028C322.63,282.561,321.38,282.564,321.337,283.366z"/>
			</g>
		</g>
	</g>
	<g>
		<path fill="#FFFFFF" d="M364.587,275.881h-92.41c-4.381,0-7.934-3.552-7.934-7.934v-49.668c0-4.382,3.552-7.934,7.934-7.934h92.41
			c4.381,0,7.934,3.552,7.934,7.934v49.668C372.521,272.329,368.968,275.881,364.587,275.881z"/>
		<g>
			<g>
				<g>
					<defs>
						<path id="SVGID_5_" d="M364.587,275.881h-92.41c-4.381,0-7.934-3.552-7.934-7.934v-49.668c0-4.382,3.552-7.934,7.934-7.934
							h92.41c4.381,0,7.934,3.552,7.934,7.934v49.668C372.521,272.329,368.968,275.881,364.587,275.881z"/>
					</defs>
					<clipPath id="SVGID_6_">
						<use xlink:href="#SVGID_5_"  overflow="visible"/>
					</clipPath>
					<g clip-path="url(#SVGID_6_)">
						<path fill="#634FA1" stroke="#010101" stroke-width="0.909" stroke-miterlimit="10" d="M253.489,274.322
							c0,0,16.35-15.614,33.751-18.837c17.401-3.224,52.249-2.904,71.111,22.032s-27.494,46.996-28.773,47.156
							c-1.279,0.159-76.568-12.444-79.446-14.614S236.385,294.944,253.489,274.322z"/>
						<g>
							<path fill="#634FA1" stroke="#010101" stroke-width="0.909" stroke-miterlimit="10" d="M324.493,261.466
								c0,0,28.194,56.64,21.883,67.459s-53.022,21.139-76.334,9.316c-27.26-13.824,8.604-71.221,17.075-84.446L324.493,261.466z"/>
							<circle fill="#FFFFFF" cx="287.24" cy="274.322" r="6.455"/>
						</g>
					</g>
				</g>
				<path fill="none" stroke="#010101" stroke-miterlimit="10" d="M364.587,275.881h-92.41c-4.381,0-7.934-3.552-7.934-7.934
					v-49.668c0-4.382,3.552-7.934,7.934-7.934h92.41c4.381,0,7.934,3.552,7.934,7.934v49.668
					C372.521,272.329,368.968,275.881,364.587,275.881z"/>
				<g>
					
						<ellipse transform="matrix(-0.9948 -0.1019 0.1019 -0.9948 583.9199 541.742)" fill="#634FA1" stroke="#010101" stroke-width="0.9716" stroke-miterlimit="10" cx="305.803" cy="255.95" rx="22.76" ry="14.718"/>
					<g>
						<g>
							
								<ellipse fill="none" stroke="#010101" stroke-width="1.8801" stroke-miterlimit="10" cx="299.755" cy="233.542" rx="5.96" ry="5.912"/>
							<path fill="#FFFFFF" stroke="#010101" stroke-width="0.94" stroke-miterlimit="10" d="M319.761,215.199h-7.486
								c-4.977,0-9.049,4.637-9.049,10.303v11.604c0,0.327,0.017,0.649,0.043,0.969c-0.081,0.343-0.128,0.697-0.128,1.063v7.064
								v0.394v7.063c0,2.563,2.098,4.661,4.661,4.661h2.97c2.563,0,4.661-2.098,4.661-4.661v-6.251h4.329
								c4.977,0,9.049-4.636,9.049-10.303v-11.604C328.81,219.836,324.738,215.199,319.761,215.199z"/>
							<g>
								<g>
									<circle fill="#0E0E0E" cx="315.517" cy="229.293" r="1.688"/>
									<circle fill="#0E0E0E" cx="326.317" cy="229.046" r="1.44"/>
								</g>
								<g>
									<path fill="#FEF7F7" d="M323.266,235.95c0,0-0.848,2.472-2.641,2.641c-1.793,0.17-3.198-1.816-3.295-3.367L323.266,235.95z
										"/>
									<g>
										<path fill="#0E0E0E" d="M322.76,235.811c-0.273,0.768-0.767,1.519-1.437,1.987c-1.66,1.164-3.309-1.121-3.469-2.574
											c-0.175,0.175-0.35,0.35-0.525,0.524c1.979,0.242,3.958,0.484,5.936,0.727c0.671,0.082,0.663-0.968,0-1.049
											c-1.979-0.242-3.958-0.484-5.936-0.727c-0.263-0.032-0.553,0.264-0.525,0.524c0.208,1.896,1.771,4.225,3.96,3.873
											c1.516-0.243,2.521-1.639,3.007-3.007C323.999,235.45,322.984,235.178,322.76,235.811z"/>
									</g>
								</g>
								<g>
									<circle fill="#E3AFC8" cx="312.159" cy="235.499" r="4.194"/>
									<path fill="#E3AFC8" d="M327.685,232.656c0.255,0,0.502,0.033,0.74,0.09v4.351c0,0.649-0.024,1.278-0.156,1.891
										c-0.175,0.029-0.4,0.054-0.584,0.054c-1.763,0-3.192-1.43-3.192-3.192S325.922,232.656,327.685,232.656z"/>
								</g>
								<polygon fill="#DB7395" points="321.37,227.605 321.024,233.352 323.768,231.681 								"/>
							</g>
							<path fill="#010101" d="M305.187,233.352l1.382-9.089c0,0,25.147,3.152,33.3-9.063s-0.414-17.052-4.56-16.36
								c-4.146,0.69-8.992,6.632-8.992,6.632s3.858-5.25,0-6.079c-3.858-0.829-8.12,3.178-10.341,7.323
								c0,0-16.577-1.546-22.18,8.484s-1.062,17.146,9.187,27.51l0.685-5.797L305.187,233.352z"/>
							<g>
								<ellipse fill="#FFFFFF" cx="299.755" cy="233.542" rx="5.96" ry="5.912"/>
								<g>
									<g>
										<path fill="#030303" d="M303.626,234.323c0.048-0.813-0.165-1.657-0.523-2.38c-0.746-1.505-2.42-1.979-3.985-1.836
											c-0.824,0.074-0.831,1.369,0,1.293c1.199-0.108,2.434,0.127,2.941,1.347c0.204,0.489,0.304,1.045,0.272,1.576
											C302.283,235.157,303.577,235.152,303.626,234.323L303.626,234.323z"/>
									</g>
								</g>
							</g>
						</g>
						<g>
							<path fill="#EFDB37" stroke="#010101" stroke-width="0.94" stroke-miterlimit="10" d="M315.976,206.715
								c0,0-16.571,17.12-23.439,22.331c0,0-8.935-19.773-3.862-25.292C292.741,199.328,312.581,201.927,315.976,206.715z"/>
							
								<line fill="none" stroke="#010101" stroke-width="0.94" stroke-miterlimit="10" x1="310.499" y1="203.493" x2="290.296" y2="223.405"/>
						</g>
					</g>
					<g>
						<path fill="#634FA1" d="M320.586,249.275l2.7,10.025l-20.454,6.479l-1.056-4.187l-7.555-4.49l3.127-8.462l8.947,6.956
							l0.59,0.487c0,0,0.326,0.554,1.983-0.358C310.526,254.813,320.586,249.275,320.586,249.275z"/>
						<g>
							<polyline fill="none" stroke="#010101" stroke-width="0.94" stroke-miterlimit="10" points="321.373,248.842 301.87,259.579 
								301.751,262.128 							"/>
							
								<line fill="none" stroke="#010101" stroke-width="0.94" stroke-miterlimit="10" x1="296.864" y1="248.618" x2="307.498" y2="256.48"/>
						</g>
					</g>
					<g>
						<g>
							<path fill="none" stroke="#010101" stroke-width="0.94" stroke-miterlimit="10" d="M296.864,260.304
								c0,0-13.8,9.148-23.217,5.476"/>
							<circle fill="none" stroke="#010101" stroke-width="0.94" stroke-miterlimit="10" cx="296.525" cy="260.216" r="1.54"/>
						</g>
						<g>
							<circle fill="none" stroke="#010101" stroke-width="0.94" stroke-miterlimit="10" cx="315.743" cy="263.714" r="1.586"/>
							<path fill="none" stroke="#010101" stroke-width="0.94" stroke-miterlimit="10" d="M315.744,263.714
								c0,0,5.629,16.25,15.463,20.975"/>
						</g>
					</g>
				</g>
			</g>
		</g>
	</g>
</g>
<g>
	<path fill="#F598AC" d="M543.139,351.229H414.801c-5.162,0-9.347-4.185-9.347-9.347v-82.599c0-5.161,4.185-9.346,9.347-9.346
		h128.338c5.162,0,9.347,4.185,9.347,9.346v82.599C552.486,347.045,548.301,351.229,543.139,351.229z"/>
	<g>
		<g>
			<path fill="#010101" d="M482.562,341.858c-0.234,4.361-6.533,4.361-6.768,0C475.559,337.495,482.329,337.518,482.562,341.858
				c0.043,0.802,1.293,0.806,1.25,0c-0.142-2.622-2.012-4.492-4.634-4.634c-2.617-0.141-4.504,2.224-4.634,4.634
				c-0.141,2.617,2.224,4.504,4.634,4.634c2.617,0.141,4.504-2.224,4.634-4.634C483.855,341.053,482.605,341.057,482.562,341.858z"
				/>
		</g>
	</g>
</g>
<g>
	<path fill="#FFFFFF" stroke="#010101" stroke-miterlimit="10" d="M533.407,333.039H424.534c-5.162,0-9.347-4.185-9.347-9.347
		v-58.517c0-5.162,4.185-9.348,9.347-9.348h108.873c5.162,0,9.347,4.186,9.347,9.348v58.517
		C542.753,328.854,538.569,333.039,533.407,333.039z"/>
	<g>
		<g>
			<g>
				<path fill="#010101" d="M476.255,299.968c0,0,19.177,9.186,26.365-4.26c7.188-13.444-4.275-29.951-13.586-32.347
					C479.724,260.965,472.387,287.322,476.255,299.968z"/>
				<path fill="#010101" d="M467.983,301.033c0,0-8.359,6.257-21.139,1.464c-12.779-4.792-4.926-28.221,0-35.409
					c4.925-7.188,15.981-11.581,20.903-9.318C472.668,260.033,476.726,286.348,467.983,301.033z"/>
				<circle fill="#010101" cx="442.736" cy="255.529" r="9.177"/>
			</g>
			<g>
				<path fill="#FFFFFF" stroke="#010101" stroke-miterlimit="10" d="M496.542,281.687c0,0-3.083-7.041-5.681-6.604
					c-2.599,0.438-1.868,5.006-1.511,7.491s1.563,5.634-1.17,8.541S498.937,289.674,496.542,281.687z"/>
				<g>
					<path fill="#FFFFFF" stroke="#010101" stroke-miterlimit="10" d="M482.475,262.048h-7.85c-5.219,0-9.488,4.861-9.488,10.803
						v12.168c0,0.344,0.018,0.682,0.045,1.017c-0.085,0.359-0.134,0.731-0.134,1.114v7.408v0.412v7.407
						c0,2.688,2.199,4.888,4.887,4.888h3.114c2.688,0,4.887-2.199,4.887-4.888v-6.555h4.539c5.219,0,9.488-4.861,9.488-10.804
						v-12.168C491.963,266.909,487.694,262.048,482.475,262.048z"/>
					<g>
						<circle fill="#E3AFC8" cx="474.503" cy="283.333" r="4.398"/>
						<path fill="#E3AFC8" d="M490.785,280.353c0.268,0,0.526,0.035,0.776,0.094v4.563c0,0.682-0.025,1.341-0.164,1.982
							c-0.184,0.031-0.42,0.057-0.612,0.057c-1.849,0-3.348-1.499-3.348-3.348S488.936,280.353,490.785,280.353z"/>
					</g>
					<g>
						<g>
							<circle fill="#0E0E0E" cx="478.025" cy="276.826" r="1.77"/>
							<circle fill="#0E0E0E" cx="489.35" cy="276.567" r="1.511"/>
						</g>
						<g>
							<path fill="#FEF7F7" d="M486.415,284.701c0,0-0.89,2.591-2.77,2.769s-3.354-1.905-3.455-3.531L486.415,284.701z"/>
							<g>
								<path fill="#0E0E0E" d="M485.876,284.553c-0.285,0.803-0.803,1.588-1.503,2.079c-1.734,1.216-3.459-1.175-3.625-2.693
									c-0.187,0.187-0.372,0.372-0.559,0.559c2.075,0.254,4.149,0.508,6.225,0.763c0.714,0.087,0.705-1.03,0-1.117
									c-2.075-0.254-4.149-0.508-6.225-0.763c-0.28-0.034-0.589,0.281-0.559,0.559c0.22,1.992,1.862,4.439,4.162,4.069
									c1.593-0.256,2.648-1.722,3.159-3.158C487.195,284.169,486.116,283.88,485.876,284.553z"/>
							</g>
						</g>
						<polygon fill="#DB7395" points="484.163,275.057 483.8,281.082 486.677,279.329 						"/>
					</g>
					<path fill="#010101" d="M462.856,260.435c0.002-0.003,0.004-0.006,0.006-0.009c0.31-4.526,2.894-8.719,6.213-8.779
						c7.321-0.133,7.181,5.325,7.181,5.325c12.506-15.442,28.628-6.257,23.437,5.076c-5.191,11.332-25.257,9.566-25.257,9.566
						c-1.028,0.025-1.985-0.331-2.852-0.156c-2.38,0.479-4.037,3.408-4.755,7.138C465.048,287.854,458.101,267.625,462.856,260.435z
						"/>
					<g>
						<path fill="#010101" d="M461.498,274.266c1.173,0,2.276,0.29,3.251,0.793v1.922c-0.908-0.675-2.031-1.08-3.251-1.08
							c-2.994,0-5.432,2.414-5.432,5.381c0,2.968,2.438,5.382,5.432,5.382c1.22,0,2.343-0.404,3.251-1.079v1.921
							c-0.975,0.504-2.078,0.793-3.251,0.793c-3.896,0-7.066-3.147-7.066-7.017C454.431,277.413,457.601,274.266,461.498,274.266z"
							/>
						<g>
							<ellipse fill="#FFFFFF" cx="461.498" cy="281.281" rx="6.25" ry="6.199"/>
							<g>
								<g>
									<path fill="#030303" d="M465.567,282.101c0.05-0.854-0.174-1.741-0.55-2.5c-0.784-1.582-2.544-2.08-4.188-1.931
										c-0.876,0.08-0.884,1.457,0,1.377c1.252-0.114,2.544,0.129,3.075,1.403c0.215,0.517,0.318,1.092,0.285,1.65
										C464.138,282.987,465.514,282.982,465.567,282.101L465.567,282.101z"/>
								</g>
							</g>
						</g>
					</g>
				</g>
			</g>
		</g>
		<g>
			<defs>
				<path id="SVGID_7_" d="M533.407,333.039H424.534c-5.162,0-9.347-4.185-9.347-9.347v-58.517c0-5.162,4.185-9.348,9.347-9.348
					h108.873c5.162,0,9.347,4.186,9.347,9.348v58.517C542.753,328.854,538.569,333.039,533.407,333.039z"/>
			</defs>
			<clipPath id="SVGID_8_">
				<use xlink:href="#SVGID_7_"  overflow="visible"/>
			</clipPath>
			<g clip-path="url(#SVGID_8_)">
				<g>
					<path fill="#E3AFC8" stroke="#070609" stroke-miterlimit="10" d="M419.985,365.058c4.815-37.681,37.624-65.319,59.763-57.303
						c17.616,6.38,25.342,41.698,27.931,57.303H419.985z"/>
					<path fill="#DB7395" stroke="#070609" stroke-miterlimit="10" d="M464.95,310.625h12.204c2.625,0,4.752-2.127,4.752-4.751
						v-1.255c0-2.625-2.127-4.752-4.752-4.752H464.95c-2.624,0-4.752,2.127-4.752,4.752v1.255
						C460.198,308.498,462.326,310.625,464.95,310.625z"/>
					<g>
						<line fill="none" stroke="#070609" stroke-miterlimit="10" x1="479.748" y1="300.41" x2="479.748" y2="310.084"/>
						<line fill="none" stroke="#070609" stroke-miterlimit="10" x1="477.307" y1="299.867" x2="477.307" y2="310.625"/>
						<line fill="none" stroke="#070609" stroke-miterlimit="10" x1="474.738" y1="299.867" x2="474.738" y2="310.625"/>
						<line fill="none" stroke="#070609" stroke-miterlimit="10" x1="472.169" y1="299.867" x2="472.169" y2="310.625"/>
						<line fill="none" stroke="#070609" stroke-miterlimit="10" x1="469.6" y1="299.867" x2="469.6" y2="310.625"/>
						<line fill="none" stroke="#070609" stroke-miterlimit="10" x1="467.032" y1="299.867" x2="467.032" y2="310.625"/>
						<line fill="none" stroke="#070609" stroke-miterlimit="10" x1="464.462" y1="299.867" x2="464.462" y2="310.625"/>
						<line fill="none" stroke="#070609" stroke-miterlimit="10" x1="461.893" y1="300.715" x2="461.893" y2="309.781"/>
					</g>
				</g>
				<g>
					<g>
						<path fill="#FFFFFF" stroke="#070609" stroke-miterlimit="10" d="M435.891,277.42c1.147-0.766,2.316,4.015,2.9,7.184
							c-0.212-2.615-0.438-6.854,0.547-7.157c1.048-0.323,2.108,4.276,2.615,7.097c-0.211-2.614-0.465-7.018,0.467-7.095
							c1.193-0.1,2.082,3.95,2.59,7.097c-0.297-2.749-0.457-6.097,0.491-6.286c1.621-0.324,2.108,1.622,2.919,6.162
							c0.811,4.541,2.108,7.623,8.271,10.218c5.393,2.271,11.778,5.534,17.744,25.326l-17.416,0.825
							c-0.021-0.502-0.045-1.003-0.078-1.501c-1.209-18.488-11.602-17.839-16.529-21.569
							C435.485,293.989,433.663,278.907,435.891,277.42z"/>
						<path fill="#E3AFC8" stroke="#070609" stroke-miterlimit="10" d="M444.769,365.058c7.802-10.079,13.034-28.361,12.227-44.729
							l17.22-1.07c0.927,3.008,1.845,6.396,2.748,10.248c3.846,16.417,1.342,28.377-1.451,35.552H444.769z"/>
						<g>
							<path fill="#DB7395" stroke="#070609" stroke-miterlimit="10" d="M475.667,324.316h-18.589
								c0.015-1.69-0.028-3.37-0.137-5.027c-0.08-1.232-0.204-2.373-0.362-3.442l16.249-0.784
								C473.784,317.75,474.731,320.807,475.667,324.316z"/>
							<g>
								<line fill="none" stroke="#070609" stroke-miterlimit="10" x1="470.226" y1="315.188" x2="472.361" y2="324.316"/>
								<line fill="none" stroke="#070609" stroke-miterlimit="10" x1="466.829" y1="315.353" x2="467.983" y2="324.316"/>
								<line fill="none" stroke="#070609" stroke-miterlimit="10" x1="463.361" y1="315.353" x2="463.908" y2="324.316"/>
								<line fill="none" stroke="#070609" stroke-miterlimit="10" x1="460.198" y1="315.673" x2="460.502" y2="324.073"/>
							</g>
						</g>
					</g>
					<g>
						<path fill="#FFFFFF" stroke="#010101" stroke-miterlimit="10" d="M494.308,284.656c0.706-4.123-3.287-8.553-1.956-9.6
							c1.331-1.046,8.705,5.66,6.615,12.424s-9.691,7.962-7.022,18.079c0.948,3.592,3.012,8.49,5.585,13.791l-17.333,0.445
							c-1.132-12.146,0.068-21.054,1.461-23.974C483.299,292.381,493.602,288.778,494.308,284.656z"/>
						<path fill="#E3AFC8" stroke="#070609" stroke-miterlimit="10" d="M492.055,365.058c-3.318-9.438-9.313-27.385-11.019-38.466
							c-0.401-2.612-0.695-5.114-0.901-7.49l16.545-1.523c4.727,10.026,11.611,21.93,16.352,29.247
							c3.63,5.604,5.542,12.43,5.731,18.232H492.055z"/>
						<g>
							<path fill="#DB7395" stroke="#010101" stroke-miterlimit="10" d="M480.674,324.042c-0.412-3.141-0.671-6.104-0.807-8.854
								h15.713c1.196,2.663,2.581,5.505,4.067,8.396L480.674,324.042z"/>
							<g>
								<line fill="none" stroke="#010101" stroke-miterlimit="10" x1="493.35" y1="315.353" x2="495.679" y2="324.042"/>
								<line fill="none" stroke="#010101" stroke-miterlimit="10" x1="490.022" y1="315.353" x2="491.147" y2="323.79"/>
								<line fill="none" stroke="#010101" stroke-miterlimit="10" x1="486.997" y1="315.188" x2="487.426" y2="323.88"/>
								<line fill="none" stroke="#010101" stroke-miterlimit="10" x1="483.366" y1="315.188" x2="484.031" y2="323.961"/>
							</g>
						</g>
					</g>
				</g>
			</g>
		</g>
	</g>
	<path fill="none" stroke="#010101" stroke-miterlimit="10" d="M533.407,333.039H424.534c-5.162,0-9.347-4.185-9.347-9.347v-58.517
		c0-5.162,4.185-9.348,9.347-9.348h108.873c5.162,0,9.347,4.186,9.347,9.348v58.517
		C542.753,328.854,538.569,333.039,533.407,333.039z"/>
</g>
<g>
	<path fill="#F04E5A" d="M626.977,188.9H408.73c-7.517,0-13.609-6.093-13.609-13.61V19.584c0-7.517,6.093-13.61,13.609-13.61
		h218.247c7.517,0,13.61,6.094,13.61,13.61v155.706C640.587,182.808,634.494,188.9,626.977,188.9z"/>
	<path fill="#F04E5A" d="M520.778,211.865h-21.39c-3.83,0-6.407-3.924-4.885-7.438l11.527-26.62l9.862-22.778
		c1.853-4.277,7.918-4.277,9.77,0l9.863,22.778l11.527,26.62c1.521,3.515-1.055,7.438-4.885,7.438H520.778z"/>
</g>
<circle fill="none" stroke="#010101" stroke-miterlimit="10" cx="521.019" cy="168.379" r="6.284"/>
<path fill="#FFFFFF" stroke="#010101" stroke-miterlimit="10" d="M623.707,154.553H416.033c-3.448,0-6.245-2.796-6.245-6.245V26.266
	c0-3.449,2.797-6.245,6.245-6.245h207.674c3.449,0,6.245,2.796,6.245,6.245v122.043
	C629.952,151.757,627.156,154.553,623.707,154.553z"/>
<path fill="none" stroke="#010101" stroke-miterlimit="10" d="M623.707,154.553H416.033c-3.448,0-6.245-2.796-6.245-6.245V26.266
	c0-3.449,2.797-6.245,6.245-6.245h207.674c3.449,0,6.245,2.796,6.245,6.245v122.043
	C629.952,151.757,627.156,154.553,623.707,154.553z"/>
<g>
	<path fill="#FFFFFF" stroke="#010101" stroke-miterlimit="10" d="M407.511,136.067h-46.157c-5.897,0-10.679,4.78-10.679,10.678
		v18.844v6.591v20.646l10.856-9.968h45.979c5.896,0,10.678-4.781,10.678-10.678v-25.435
		C418.189,140.848,413.408,136.067,407.511,136.067z"/>
	<g>
		<circle fill="#FFFFFF" stroke="#010101" stroke-miterlimit="10" cx="369.227" cy="160.31" r="4.643"/>
		<circle fill="#FFFFFF" stroke="#010101" stroke-miterlimit="10" cx="385.377" cy="160.31" r="4.643"/>
		<circle fill="#FFFFFF" stroke="#010101" stroke-miterlimit="10" cx="401.527" cy="160.31" r="4.643"/>
	</g>
</g>
<g>
	<path fill="#FFFFFF" stroke="#010101" stroke-miterlimit="10" d="M420.811,120.867h-46.157c-5.897,0-10.679,4.781-10.679,10.678
		v18.844v6.59v20.646l10.856-9.968h45.979c5.897,0,10.678-4.78,10.678-10.678v-25.435
		C431.489,125.648,426.708,120.867,420.811,120.867z"/>
	<g>
		<circle fill="#FFFFFF" stroke="#010101" stroke-miterlimit="10" cx="382.527" cy="145.11" r="4.643"/>
		<circle fill="#FFFFFF" stroke="#010101" stroke-miterlimit="10" cx="398.677" cy="145.11" r="4.643"/>
		<circle fill="#FFFFFF" stroke="#010101" stroke-miterlimit="10" cx="414.828" cy="145.11" r="4.643"/>
	</g>
</g>
<g>
	<path fill="#EFDB37" stroke="#010101" stroke-miterlimit="10" d="M73.914,194.95c-0.966-5.402-4.015-8.941-7.428-11.169
		c-5.777-3.771-13.448-3.771-19.224,0c-3.413,2.228-6.462,5.767-7.429,11.169c-1.783,9.976,7,15.341,8.646,17.352
		c0,0,1.114,0.923,1.646,2.011c0.133,0.272,0.275,1.131,0.441,2.282h6.307h6.306c0.166-1.151,0.308-2.01,0.441-2.282
		c0.533-1.088,1.646-2.011,1.646-2.011C66.914,210.291,75.697,204.926,73.914,194.95z"/>
	<g>
		<path fill="#FFFFFF" d="M54.23,217.663c0,0,0.003-9.458-0.691-10.808c-0.695-1.351-3.878-6.077-4.419-7.073
			s0.568-2.153,1.417-0.68c0.726,1.261,3.822,5.573,4.513,7.338c0.691,1.765,1.282,11.695,1.282,11.695L54.23,217.663z"/>
		<path fill="#FFFFFF" d="M59.472,217.663c0,0-0.003-9.458,0.691-10.808c0.694-1.351,3.877-6.077,4.418-7.073
			c0.541-0.996-0.568-2.153-1.417-0.68c-0.726,1.261-3.823,5.573-4.513,7.338s-1.282,11.695-1.282,11.695L59.472,217.663z"/>
		<g>
			<path fill="#FFFFFF" d="M64.051,199.46c-1.279,0.598-3.46,0.671-5.07,0.183c-0.015,0.012-0.029,0.022-0.044,0.033
				c-1.328,0.984-3.177,0.608-4.54-0.387c-1.692,0.662-4.019,0.742-4.374,0.751l-0.006-0.904c1.02-0.022,2.482-0.186,3.615-0.527
				c-0.939-1.018-1.139-2.119-0.511-2.87c0.789-0.949,1.79-0.888,2.421-0.407c0.763,0.58,1.123,1.807,0.414,2.865
				c-0.157,0.235-0.377,0.437-0.637,0.619c0.852,0.503,1.855,0.721,2.667,0.405c-0.28-0.164-0.517-0.356-0.692-0.576
				c-0.275-0.346-0.635-1.071,0.063-2.034c0.468-0.646,1.082-0.945,1.683-0.818c0.578,0.122,1.03,0.63,1.154,1.291
				c0.116,0.62-0.063,1.264-0.487,1.835c1.31,0.287,2.987,0.238,4.026-0.245L64.051,199.46z M58.375,196.797
				c-0.107,0.078-0.213,0.189-0.315,0.33c-0.35,0.485-0.224,0.763-0.077,0.95c0.176,0.223,0.467,0.412,0.832,0.565
				c0.417-0.431,0.61-0.92,0.525-1.368c-0.06-0.313-0.26-0.559-0.499-0.608C58.693,196.635,58.533,196.681,58.375,196.797z
				 M54.553,198.248c0.299-0.157,0.532-0.336,0.668-0.539c0.413-0.616,0.211-1.323-0.223-1.65c-0.377-0.285-0.81-0.191-1.187,0.258
				c-0.375,0.45,0.043,1.202,0.514,1.706C54.398,198.1,54.474,198.176,54.553,198.248z"/>
		</g>
	</g>
	<g>
		<path fill="#FFFFFF" stroke="#010101" stroke-miterlimit="10" d="M56.851,215.58c-3.426,0-6.355-0.896-6.852-1.173
			c0.038,0.068,0.08,0.135,0.114,0.204c0.461,0.942,1.035,8.787,2.267,11.816c0.218,0.534,0.456,0.919,0.718,1.089
			c0.707,0.459,2.185,0.947,3.752,0.874c1.567,0.073,3.044-0.415,3.752-0.874c0.262-0.17,0.5-0.555,0.718-1.089
			c1.232-3.029,1.806-10.874,2.267-11.816c0.034-0.069,0.076-0.136,0.115-0.204C63.206,214.685,60.276,215.58,56.851,215.58z"/>
		<path fill="#010101" d="M56.851,219.125c1.982-0.032,4.142-0.271,6.104-0.889c0.129-0.931,0.246-1.771,0.353-2.412
			c-4.155,1.578-8.759,1.578-12.914,0c0.106,0.642,0.223,1.481,0.353,2.412C52.708,218.854,54.869,219.093,56.851,219.125z"/>
		<path fill="#010101" d="M56.851,223.127c1.77-0.029,3.68-0.229,5.468-0.706c0.138-0.784,0.264-1.592,0.38-2.382
			c-3.79,1.286-7.906,1.286-11.696,0c0.116,0.79,0.241,1.598,0.38,2.382C53.17,222.898,55.081,223.098,56.851,223.127z"/>
		<path fill="#010101" d="M51.754,224.295c0.188,0.828,0.396,1.565,0.627,2.133c0.037,0.091,0.076,0.173,0.115,0.255
			c1.454,0.288,2.949,0.422,4.355,0.445c1.406-0.023,2.901-0.157,4.354-0.445c0.039-0.082,0.078-0.164,0.115-0.255
			c0.23-0.567,0.438-1.305,0.626-2.133C58.623,225.264,55.079,225.264,51.754,224.295z"/>
	</g>
</g>
<g>
	<path fill="#FFFFFF" stroke="#010101" stroke-miterlimit="10" d="M57.193,175.915h-0.037c-1.004,0-1.818-0.814-1.818-1.818v-8.529
		c0-1.004,0.814-1.818,1.818-1.818h0.037c1.004,0,1.818,0.814,1.818,1.818v8.529C59.011,175.101,58.197,175.915,57.193,175.915z"/>
	<path fill="#FFFFFF" stroke="#010101" stroke-miterlimit="10" d="M70.275,178.272l-0.032-0.017
		c-0.886-0.474-1.218-1.577-0.744-2.462l4.03-7.517c0.475-0.885,1.577-1.218,2.462-0.743l0.033,0.018
		c0.885,0.475,1.218,1.577,0.743,2.462l-4.03,7.516C72.263,178.415,71.161,178.747,70.275,178.272z"/>
	<path fill="#FFFFFF" stroke="#010101" stroke-miterlimit="10" d="M44.073,178.272l0.032-0.017c0.885-0.474,1.218-1.577,0.744-2.462
		l-4.03-7.517c-0.475-0.885-1.577-1.218-2.462-0.743l-0.033,0.018c-0.885,0.475-1.218,1.577-0.743,2.462l4.03,7.516
		C42.085,178.415,43.188,178.747,44.073,178.272z"/>
	<path fill="#FFFFFF" stroke="#010101" stroke-miterlimit="10" d="M34.385,188.281l-0.008,0.035
		c-0.207,0.983-1.17,1.612-2.154,1.405l-8.346-1.754c-0.983-0.206-1.612-1.171-1.406-2.153l0.008-0.036
		c0.207-0.983,1.17-1.612,2.154-1.406l8.346,1.755C33.962,186.333,34.591,187.298,34.385,188.281z"/>
	<path fill="#FFFFFF" stroke="#010101" stroke-miterlimit="10" d="M33.929,201.913l-0.01-0.035
		c-0.283-0.964-1.292-1.516-2.257-1.234l-8.184,2.398c-0.964,0.282-1.517,1.293-1.234,2.257l0.01,0.035
		c0.283,0.964,1.292,1.517,2.256,1.234l8.185-2.398C33.659,203.888,34.211,202.877,33.929,201.913z"/>
	<path fill="#FFFFFF" stroke="#010101" stroke-miterlimit="10" d="M79.964,188.281l0.007,0.035c0.207,0.983,1.171,1.612,2.154,1.405
		l8.346-1.754c0.983-0.206,1.612-1.171,1.405-2.153l-0.007-0.036c-0.207-0.983-1.171-1.612-2.154-1.406l-8.346,1.755
		C80.387,186.333,79.757,187.298,79.964,188.281z"/>
	<path fill="#FFFFFF" stroke="#010101" stroke-miterlimit="10" d="M80.419,201.913l0.01-0.035c0.282-0.964,1.292-1.516,2.256-1.234
		l8.185,2.398c0.964,0.282,1.516,1.293,1.234,2.257l-0.01,0.035c-0.282,0.964-1.293,1.517-2.257,1.234l-8.185-2.398
		C80.689,203.888,80.137,202.877,80.419,201.913z"/>
</g>
</svg>
