<svg width="286" height="314" viewBox="0 0 286 314" fill="none" xmlns="http://www.w3.org/2000/svg">
<g filter="url(#filter0_d)">
<path d="M7 217.785C7 198.574 22.5739 183 41.7853 183V183C60.9967 183 76.5706 198.574 76.5706 217.785V241.39C76.5706 247.565 71.5647 252.571 65.3896 252.571V252.571H41.7853C22.5739 252.571 7 236.997 7 217.785V217.785Z" fill="#F86381"/>
</g>
<g clip-path="url(#clip0)">
<path d="M25.773 205.776C25.9853 205.776 26.1889 205.692 26.339 205.541L29.5415 202.339C29.8449 202.025 29.8406 201.525 29.5317 201.217C29.2229 200.908 28.7236 200.904 28.4094 201.207L25.207 204.409C24.9781 204.638 24.9096 204.983 25.0335 205.282C25.1574 205.581 25.4492 205.776 25.773 205.776V205.776Z" fill="white"/>
<path d="M25.2069 210.345C25.5196 210.658 26.0264 210.658 26.339 210.345L34.3451 202.339C34.6486 202.025 34.6442 201.525 34.3354 201.217C34.0266 200.908 33.5272 200.904 33.2131 201.207L25.2069 209.213C24.8944 209.526 24.8944 210.032 25.2069 210.345V210.345Z" fill="white"/>
<path d="M59.129 226.549C62.2965 223.817 63.4314 219.404 61.9744 215.484C60.5175 211.563 56.7761 208.962 52.5935 208.962C48.411 208.962 44.6696 211.563 43.2127 215.484C41.7557 219.404 42.8906 223.817 46.0581 226.549C42.0736 228.013 39.4143 231.794 39.3834 236.039V241.003C39.3834 241.445 39.7419 241.804 40.184 241.804H65.0031C65.4452 241.804 65.8037 241.445 65.8037 241.003V236.039C65.7727 231.794 63.1135 228.013 59.129 226.549ZM44.1871 218.986C44.1871 214.343 47.9508 210.58 52.5935 210.58C57.2363 210.58 61 214.343 61 218.986C61 223.629 57.2363 227.393 52.5935 227.393C47.953 227.387 44.1924 223.627 44.1871 218.986ZM64.2024 240.202H59.3988V238.601C59.3988 238.159 59.0403 237.801 58.5981 237.801C58.156 237.801 57.7975 238.159 57.7975 238.601V240.202H47.3896V238.601C47.3896 238.159 47.0311 237.801 46.5889 237.801C46.1468 237.801 45.7883 238.159 45.7883 238.601V240.202H40.9846V236.039C41.0373 232.047 43.8091 228.607 47.6986 227.706C50.7362 229.423 54.4509 229.423 57.4885 227.706C61.378 228.607 64.1498 232.047 64.2024 236.039V240.202Z" fill="white"/>
<path d="M63.4018 193.767H50.592C49.2655 193.767 48.1902 194.842 48.1902 196.169V197.77H24.1718C22.8453 197.77 21.7699 198.845 21.7699 200.172V220.732L17.9166 226.127C17.8283 226.267 17.7768 226.427 17.7668 226.592V228.994C17.7668 230.763 19.2006 232.196 20.9693 232.196H37.8863C38.3284 232.196 38.6869 231.838 38.6869 231.396C38.6869 230.954 38.3284 230.595 37.8863 230.595H20.9693C20.085 230.595 19.3681 229.878 19.3681 228.994V227.393H31.0458L32.4125 228.759C32.5626 228.909 32.7662 228.994 32.9785 228.994H39.7837C40.2259 228.994 40.5843 228.635 40.5843 228.193C40.5843 227.751 40.2259 227.393 39.7837 227.393H33.31L32.294 226.376L32.7551 224.991H41.3289C41.7711 224.991 42.1295 224.632 42.1295 224.19C42.1295 223.748 41.7711 223.39 41.3289 223.39H32.1779C31.8334 223.39 31.5278 223.61 31.4189 223.937L30.8008 225.791H20.1231L22.982 221.788H40.184C40.6262 221.788 40.9846 221.43 40.9846 220.988C40.9846 220.546 40.6262 220.187 40.184 220.187H36.181V218.186C36.181 217.743 35.8225 217.385 35.3803 217.385C34.9382 217.385 34.5797 217.743 34.5797 218.186V220.187H32.9785V218.13C32.9644 216.351 34.1172 214.773 35.8159 214.247C38.3659 215.706 41.6093 214.963 43.2694 212.539C44.9296 210.115 44.4499 206.822 42.1671 204.972C39.8844 203.122 36.5637 203.335 34.5361 205.462C32.5085 207.588 32.4536 210.915 34.41 213.107C32.5384 214.081 31.368 216.02 31.3773 218.13V220.187H23.3711V200.172C23.3711 199.73 23.7296 199.371 24.1718 199.371H48.1902V201.533L45.9484 204.891C45.6221 205.382 45.5927 206.014 45.8719 206.534C46.1511 207.054 46.6937 207.378 47.2839 207.377H63.4018C64.7283 207.377 65.8037 206.302 65.8037 204.975V196.169C65.8037 194.842 64.7283 193.767 63.4018 193.767V193.767ZM38.5828 205.376C40.7936 205.376 42.5859 207.168 42.5859 209.379C42.5859 211.59 40.7936 213.382 38.5828 213.382C36.372 213.382 34.5797 211.59 34.5797 209.379C34.5824 207.169 36.3731 205.378 38.5828 205.376ZM64.2024 204.975C64.2024 205.418 63.844 205.776 63.4018 205.776H47.2839L49.6569 202.217C49.7444 202.086 49.7911 201.931 49.7914 201.773V196.169C49.7914 195.727 50.1498 195.368 50.592 195.368H63.4018C63.844 195.368 64.2024 195.727 64.2024 196.169V204.975Z" fill="white"/>
<path d="M61 197.77H52.9938C52.5517 197.77 52.1932 198.128 52.1932 198.571C52.1932 199.013 52.5517 199.371 52.9938 199.371H61C61.4421 199.371 61.8006 199.013 61.8006 198.571C61.8006 198.128 61.4421 197.77 61 197.77Z" fill="white"/>
<path d="M61 201.773H52.9938C52.5517 201.773 52.1932 202.131 52.1932 202.574C52.1932 203.016 52.5517 203.374 52.9938 203.374H61C61.4421 203.374 61.8006 203.016 61.8006 202.574C61.8006 202.131 61.4421 201.773 61 201.773Z" fill="white"/>
</g>
<g filter="url(#filter1_d)">
<path d="M107.215 217.785C107.215 198.574 122.789 183 142 183V183C161.211 183 176.785 198.574 176.785 217.785V241.39C176.785 247.565 171.779 252.571 165.604 252.571V252.571H142C122.789 252.571 107.215 236.997 107.215 217.785V217.785Z" fill="#F159BB"/>
</g>
<path d="M161.748 200.393H145.551C145.658 199.866 145.647 199.323 145.518 198.801C145.39 198.28 145.147 197.793 144.807 197.377C144.467 196.961 144.039 196.626 143.553 196.396C143.068 196.165 142.538 196.046 142 196.046C141.463 196.046 140.933 196.165 140.447 196.396C139.962 196.626 139.534 196.961 139.194 197.377C138.854 197.793 138.611 198.28 138.483 198.801C138.354 199.323 138.343 199.866 138.45 200.393H122.252C121.724 200.393 121.217 200.603 120.844 200.977C120.47 201.351 120.26 201.857 120.259 202.386V228.837C120.26 229.365 120.47 229.872 120.844 230.245C121.217 230.619 121.724 230.829 122.252 230.83H135.999L134.912 235.178H134.391C133.718 235.179 133.074 235.446 132.598 235.922C132.122 236.397 131.855 237.042 131.854 237.714V238.801C131.854 238.994 131.931 239.178 132.067 239.314C132.202 239.45 132.387 239.526 132.579 239.526H151.421C151.613 239.526 151.797 239.45 151.933 239.314C152.069 239.178 152.146 238.994 152.146 238.801V237.714C152.145 237.042 151.877 236.397 151.402 235.922C150.926 235.446 150.282 235.179 149.609 235.178H149.088L148.001 230.83H161.748C162.276 230.829 162.783 230.619 163.156 230.245C163.53 229.872 163.74 229.365 163.741 228.837V202.386C163.74 201.857 163.53 201.351 163.156 200.977C162.783 200.603 162.276 200.393 161.748 200.393V200.393ZM142 197.494C142.373 197.494 142.741 197.59 143.066 197.773C143.392 197.956 143.665 198.22 143.858 198.539C144.052 198.858 144.161 199.222 144.173 199.595C144.185 199.968 144.101 200.338 143.929 200.67C143.886 200.723 143.852 200.782 143.826 200.845C143.622 201.162 143.339 201.42 143.005 201.595C142.67 201.769 142.296 201.853 141.92 201.839C141.543 201.826 141.176 201.714 140.855 201.516C140.535 201.317 140.271 201.039 140.091 200.708C139.911 200.376 139.819 200.004 139.826 199.627C139.833 199.25 139.938 198.882 140.131 198.557C140.323 198.233 140.597 197.965 140.925 197.778C141.252 197.592 141.623 197.494 142 197.494V197.494ZM139.103 201.842C139.44 202.292 139.878 202.657 140.38 202.909C140.883 203.16 141.438 203.291 142 203.291C142.562 203.291 143.117 203.16 143.62 202.909C144.122 202.657 144.56 202.292 144.897 201.842H145.464L145.029 204.016H138.971L138.536 201.842H139.103ZM149.609 236.627C149.897 236.628 150.174 236.742 150.378 236.946C150.581 237.15 150.696 237.426 150.696 237.714V238.077H133.304V237.714C133.304 237.426 133.419 237.15 133.622 236.946C133.826 236.742 134.102 236.628 134.391 236.627H149.609ZM142 233.729C142.768 233.728 143.505 233.422 144.049 232.879C144.592 232.335 144.898 231.598 144.899 230.83H146.507L147.594 235.178H136.406L137.493 230.83H139.101C139.102 231.598 139.408 232.335 139.951 232.879C140.495 233.422 141.231 233.728 142 233.729V233.729ZM140.551 230.83H143.449C143.449 231.214 143.297 231.583 143.025 231.855C142.753 232.126 142.384 232.279 142 232.279C141.616 232.279 141.247 232.126 140.975 231.855C140.703 231.583 140.551 231.214 140.551 230.83ZM162.291 228.837C162.291 228.981 162.234 229.119 162.132 229.221C162.03 229.323 161.892 229.38 161.748 229.38H122.252C122.108 229.38 121.97 229.323 121.868 229.221C121.766 229.119 121.709 228.981 121.709 228.837V226.482H162.291V228.837ZM139.193 215.611H138.433L138.648 212.758C138.754 211.944 139.153 211.196 139.769 210.654C140.386 210.113 141.179 209.814 142 209.814C142.821 209.814 143.614 210.113 144.23 210.654C144.847 211.196 145.246 211.944 145.352 212.758L145.567 215.611H144.807C144.868 215.374 144.899 215.131 144.899 214.887V213.437C144.899 213.303 144.861 213.171 144.79 213.056C144.72 212.942 144.619 212.849 144.498 212.789L141.599 211.34C141.463 211.272 141.309 211.248 141.159 211.272C141.009 211.297 140.87 211.368 140.763 211.475L139.313 212.925C139.178 213.061 139.101 213.245 139.101 213.437V214.887C139.101 215.131 139.132 215.374 139.193 215.611ZM142 216.336C141.616 216.335 141.247 216.183 140.976 215.911C140.704 215.639 140.551 215.271 140.551 214.887V213.737L141.418 212.87L143.449 213.885V214.887C143.449 215.271 143.296 215.639 143.024 215.911C142.753 216.183 142.384 216.335 142 216.336V216.336ZM142.725 217.694V218.256C142.63 218.353 142.518 218.43 142.393 218.482C142.269 218.534 142.135 218.561 142 218.561C141.865 218.561 141.731 218.534 141.607 218.482C141.482 218.43 141.37 218.353 141.275 218.256V217.694C141.751 217.816 142.249 217.816 142.725 217.694V217.694ZM142 220.01C142.652 220.011 143.277 219.753 143.739 219.293L145.71 219.621C146.027 219.674 146.321 219.819 146.556 220.038C146.79 220.257 146.955 220.541 147.028 220.854L144.723 221.43C144.566 221.47 144.427 221.56 144.327 221.688C144.228 221.815 144.174 221.972 144.174 222.133V225.032H139.826V222.133C139.826 221.972 139.772 221.815 139.672 221.687C139.573 221.56 139.434 221.47 139.277 221.43L136.972 220.854C137.045 220.541 137.21 220.257 137.444 220.038C137.679 219.819 137.973 219.674 138.29 219.621L140.261 219.293C140.723 219.753 141.348 220.011 142 220.01V220.01ZM147.073 222.337V225.032H145.623V222.699L147.073 222.337ZM138.376 222.699V225.032H136.927V222.337L138.376 222.699ZM162.291 225.032H148.522V221.23C148.524 220.5 148.266 219.794 147.795 219.237C147.323 218.68 146.669 218.31 145.949 218.192L144.174 217.896V217.061H146.348C146.448 217.061 146.547 217.04 146.638 217C146.729 216.96 146.812 216.902 146.879 216.829C146.947 216.756 146.999 216.669 147.032 216.575C147.065 216.481 147.078 216.381 147.071 216.282L146.796 212.63C146.795 212.618 146.793 212.607 146.792 212.595C146.646 211.427 146.079 210.352 145.196 209.573C144.314 208.794 143.177 208.364 142 208.364C140.823 208.364 139.686 208.794 138.804 209.573C137.921 210.352 137.354 211.427 137.208 212.595C137.206 212.607 137.205 212.618 137.204 212.63L136.929 216.282C136.922 216.381 136.935 216.481 136.968 216.575C137.001 216.669 137.053 216.756 137.12 216.829C137.188 216.902 137.271 216.96 137.362 217C137.453 217.04 137.552 217.061 137.652 217.061H139.826V217.896L138.051 218.192C137.331 218.31 136.677 218.68 136.205 219.237C135.734 219.794 135.476 220.5 135.478 221.23V225.032H121.709V202.386C121.709 202.241 121.766 202.103 121.868 202.001C121.97 201.899 122.108 201.842 122.252 201.842H137.058L137.666 204.883C137.699 205.047 137.787 205.195 137.917 205.301C138.047 205.407 138.209 205.466 138.376 205.466H145.623C145.791 205.466 145.953 205.407 146.083 205.301C146.212 205.195 146.301 205.047 146.334 204.883L146.942 201.842H161.748C161.892 201.842 162.03 201.899 162.132 202.001C162.234 202.103 162.291 202.241 162.291 202.386V225.032Z" fill="white"/>
<path d="M142 200.574C142.5 200.574 142.906 200.168 142.906 199.668C142.906 199.168 142.5 198.762 142 198.762C141.5 198.762 141.094 199.168 141.094 199.668C141.094 200.168 141.5 200.574 142 200.574Z" fill="white"/>
<path d="M160.117 203.291H149.972C149.779 203.291 149.595 203.368 149.459 203.504C149.323 203.64 149.247 203.824 149.247 204.016V215.611C149.247 215.803 149.323 215.988 149.459 216.124C149.595 216.26 149.779 216.336 149.972 216.336H160.117C160.309 216.336 160.494 216.26 160.63 216.124C160.766 215.988 160.842 215.803 160.842 215.611V204.016C160.842 203.824 160.766 203.64 160.63 203.504C160.494 203.368 160.309 203.291 160.117 203.291ZM157.218 214.886H152.87V214.162C152.87 213.821 152.95 213.484 153.104 213.18C153.258 212.876 153.482 212.612 153.757 212.41C154.157 212.609 154.597 212.712 155.044 212.712C155.49 212.713 155.931 212.609 156.331 212.41C156.605 212.613 156.829 212.876 156.983 213.181C157.137 213.485 157.218 213.821 157.218 214.162V214.886ZM153.595 209.814C153.595 209.527 153.68 209.247 153.839 209.008C153.999 208.77 154.225 208.584 154.49 208.475C154.755 208.365 155.046 208.336 155.327 208.392C155.608 208.448 155.867 208.586 156.069 208.789C156.272 208.991 156.41 209.25 156.466 209.531C156.522 209.812 156.493 210.103 156.383 210.368C156.274 210.633 156.088 210.859 155.85 211.019C155.611 211.178 155.331 211.263 155.044 211.263C154.66 211.263 154.292 211.11 154.02 210.838C153.748 210.566 153.595 210.198 153.595 209.814ZM159.393 214.886H158.668V214.162C158.667 213.648 158.557 213.14 158.345 212.671C158.134 212.203 157.825 211.785 157.44 211.444C157.737 211.009 157.909 210.5 157.939 209.974C157.968 209.447 157.853 208.923 157.607 208.457C157.36 207.991 156.992 207.601 156.54 207.329C156.088 207.057 155.571 206.913 155.044 206.913C154.517 206.913 153.999 207.057 153.548 207.329C153.096 207.601 152.728 207.991 152.481 208.458C152.235 208.924 152.121 209.448 152.15 209.975C152.18 210.501 152.352 211.009 152.649 211.445C152.263 211.785 151.954 212.202 151.742 212.671C151.53 213.139 151.421 213.648 151.421 214.162V214.886H150.696V204.741H159.393V214.886Z" fill="white"/>
<path d="M128.768 281.262C128.768 282.655 128.527 283.879 128.045 284.934C127.563 285.982 126.873 286.789 125.975 287.355C125.083 287.915 124.054 288.195 122.889 288.195C121.736 288.195 120.708 287.915 119.803 287.355C118.904 286.789 118.208 285.985 117.713 284.943C117.225 283.902 116.977 282.701 116.971 281.34V280.539C116.971 279.152 117.215 277.928 117.703 276.867C118.198 275.806 118.891 274.995 119.783 274.436C120.682 273.869 121.71 273.586 122.869 273.586C124.028 273.586 125.053 273.866 125.945 274.426C126.844 274.979 127.537 275.78 128.025 276.828C128.514 277.87 128.761 279.084 128.768 280.471V281.262ZM126.297 280.52C126.297 278.944 125.997 277.736 125.398 276.896C124.806 276.057 123.963 275.637 122.869 275.637C121.801 275.637 120.965 276.057 120.359 276.896C119.76 277.73 119.454 278.911 119.441 280.441V281.262C119.441 282.824 119.744 284.032 120.35 284.885C120.962 285.738 121.808 286.164 122.889 286.164C123.982 286.164 124.822 285.747 125.408 284.914C126.001 284.081 126.297 282.863 126.297 281.262V280.52ZM133.201 277.434L133.27 278.654C134.051 277.71 135.076 277.238 136.346 277.238C138.546 277.238 139.666 278.498 139.705 281.018V288H137.332V281.154C137.332 280.484 137.186 279.989 136.893 279.67C136.606 279.344 136.134 279.182 135.477 279.182C134.52 279.182 133.807 279.615 133.338 280.48V288H130.965V277.434H133.201ZM144.656 288H142.283V273H144.656V288ZM149.773 288H147.4V277.434H149.773V288ZM147.254 274.689C147.254 274.325 147.368 274.022 147.596 273.781C147.83 273.54 148.162 273.42 148.592 273.42C149.021 273.42 149.354 273.54 149.588 273.781C149.822 274.022 149.939 274.325 149.939 274.689C149.939 275.048 149.822 275.347 149.588 275.588C149.354 275.822 149.021 275.939 148.592 275.939C148.162 275.939 147.83 275.822 147.596 275.588C147.368 275.347 147.254 275.048 147.254 274.689ZM154.568 277.434L154.637 278.654C155.418 277.71 156.443 277.238 157.713 277.238C159.913 277.238 161.033 278.498 161.072 281.018V288H158.699V281.154C158.699 280.484 158.553 279.989 158.26 279.67C157.973 279.344 157.501 279.182 156.844 279.182C155.887 279.182 155.174 279.615 154.705 280.48V288H152.332V277.434H154.568ZM168.152 288.195C166.648 288.195 165.428 287.723 164.49 286.779C163.559 285.829 163.094 284.566 163.094 282.99V282.697C163.094 281.643 163.296 280.702 163.699 279.875C164.109 279.042 164.682 278.394 165.418 277.932C166.154 277.469 166.974 277.238 167.879 277.238C169.318 277.238 170.428 277.697 171.209 278.615C171.997 279.533 172.391 280.832 172.391 282.512V283.469H165.486C165.558 284.341 165.848 285.031 166.355 285.539C166.87 286.047 167.514 286.301 168.289 286.301C169.376 286.301 170.262 285.861 170.945 284.982L172.225 286.203C171.801 286.835 171.235 287.326 170.525 287.678C169.822 288.023 169.031 288.195 168.152 288.195ZM167.869 279.143C167.218 279.143 166.691 279.37 166.287 279.826C165.89 280.282 165.636 280.917 165.525 281.73H170.047V281.555C169.995 280.76 169.783 280.161 169.412 279.758C169.041 279.348 168.527 279.143 167.869 279.143ZM129.461 303.652H123.621V308.027H130.447V310H121.15V295.781H130.379V297.773H123.621V301.699H129.461V303.652ZM136.023 302.91L138.035 299.434H140.672L137.439 304.639L140.779 310H138.162L136.053 306.387L133.953 310H131.316L134.656 304.639L131.434 299.434H134.051L136.023 302.91ZM148.602 310C148.497 309.798 148.406 309.469 148.328 309.014C147.573 309.801 146.648 310.195 145.555 310.195C144.493 310.195 143.628 309.893 142.957 309.287C142.286 308.682 141.951 307.933 141.951 307.041C141.951 305.915 142.368 305.052 143.201 304.453C144.041 303.848 145.239 303.545 146.795 303.545H148.25V302.852C148.25 302.305 148.097 301.868 147.791 301.543C147.485 301.211 147.02 301.045 146.395 301.045C145.854 301.045 145.411 301.182 145.066 301.455C144.721 301.722 144.549 302.064 144.549 302.48H142.176C142.176 301.901 142.368 301.361 142.752 300.859C143.136 300.352 143.657 299.954 144.314 299.668C144.979 299.382 145.717 299.238 146.531 299.238C147.768 299.238 148.755 299.551 149.49 300.176C150.226 300.794 150.604 301.667 150.623 302.793V307.559C150.623 308.509 150.757 309.268 151.023 309.834V310H148.602ZM145.994 308.291C146.463 308.291 146.902 308.177 147.312 307.949C147.729 307.721 148.042 307.415 148.25 307.031V305.039H146.971C146.092 305.039 145.431 305.192 144.988 305.498C144.546 305.804 144.324 306.237 144.324 306.797C144.324 307.253 144.474 307.617 144.773 307.891C145.079 308.158 145.486 308.291 145.994 308.291ZM155.34 299.434L155.408 300.537C156.15 299.671 157.166 299.238 158.455 299.238C159.868 299.238 160.835 299.779 161.355 300.859C162.124 299.779 163.204 299.238 164.598 299.238C165.763 299.238 166.629 299.561 167.195 300.205C167.768 300.85 168.061 301.8 168.074 303.057V310H165.701V303.125C165.701 302.454 165.555 301.963 165.262 301.65C164.969 301.338 164.484 301.182 163.807 301.182C163.266 301.182 162.824 301.328 162.479 301.621C162.14 301.908 161.902 302.285 161.766 302.754L161.775 310H159.402V303.047C159.37 301.803 158.735 301.182 157.498 301.182C156.548 301.182 155.874 301.569 155.477 302.344V310H153.104V299.434H155.34Z" fill="#F159BB"/>
<path d="M25.7676 281.262C25.7676 282.655 25.5267 283.879 25.0449 284.934C24.5632 285.982 23.873 286.789 22.9746 287.355C22.0827 287.915 21.054 288.195 19.8887 288.195C18.7363 288.195 17.7077 287.915 16.8027 287.355C15.9043 286.789 15.2077 285.985 14.7129 284.943C14.2246 283.902 13.9772 282.701 13.9707 281.34V280.539C13.9707 279.152 14.2148 277.928 14.7031 276.867C15.1979 275.806 15.8913 274.995 16.7832 274.436C17.6816 273.869 18.7103 273.586 19.8691 273.586C21.028 273.586 22.0534 273.866 22.9453 274.426C23.8438 274.979 24.5371 275.78 25.0254 276.828C25.5137 277.87 25.7611 279.084 25.7676 280.471V281.262ZM23.2969 280.52C23.2969 278.944 22.9974 277.736 22.3984 276.896C21.806 276.057 20.9629 275.637 19.8691 275.637C18.8014 275.637 17.9648 276.057 17.3594 276.896C16.7604 277.73 16.4544 278.911 16.4414 280.441V281.262C16.4414 282.824 16.7441 284.032 17.3496 284.885C17.9616 285.738 18.8079 286.164 19.8887 286.164C20.9824 286.164 21.8223 285.747 22.4082 284.914C23.0007 284.081 23.2969 282.863 23.2969 281.262V280.52ZM30.2012 277.434L30.2695 278.654C31.0508 277.71 32.0762 277.238 33.3457 277.238C35.5462 277.238 36.666 278.498 36.7051 281.018V288H34.332V281.154C34.332 280.484 34.1855 279.989 33.8926 279.67C33.6061 279.344 33.1341 279.182 32.4766 279.182C31.5195 279.182 30.8066 279.615 30.3379 280.48V288H27.9648V277.434H30.2012ZM41.6562 288H39.2832V273H41.6562V288ZM46.7734 288H44.4004V277.434H46.7734V288ZM44.2539 274.689C44.2539 274.325 44.3678 274.022 44.5957 273.781C44.8301 273.54 45.1621 273.42 45.5918 273.42C46.0215 273.42 46.3535 273.54 46.5879 273.781C46.8223 274.022 46.9395 274.325 46.9395 274.689C46.9395 275.048 46.8223 275.347 46.5879 275.588C46.3535 275.822 46.0215 275.939 45.5918 275.939C45.1621 275.939 44.8301 275.822 44.5957 275.588C44.3678 275.347 44.2539 275.048 44.2539 274.689ZM51.5684 277.434L51.6367 278.654C52.418 277.71 53.4434 277.238 54.7129 277.238C56.9134 277.238 58.0332 278.498 58.0723 281.018V288H55.6992V281.154C55.6992 280.484 55.5527 279.989 55.2598 279.67C54.9733 279.344 54.5013 279.182 53.8438 279.182C52.8867 279.182 52.1738 279.615 51.7051 280.48V288H49.332V277.434H51.5684ZM65.1523 288.195C63.6484 288.195 62.4277 287.723 61.4902 286.779C60.5592 285.829 60.0938 284.566 60.0938 282.99V282.697C60.0938 281.643 60.2956 280.702 60.6992 279.875C61.1094 279.042 61.6823 278.394 62.418 277.932C63.1536 277.469 63.974 277.238 64.8789 277.238C66.3177 277.238 67.4277 277.697 68.209 278.615C68.9967 279.533 69.3906 280.832 69.3906 282.512V283.469H62.4863C62.5579 284.341 62.8477 285.031 63.3555 285.539C63.8698 286.047 64.5143 286.301 65.2891 286.301C66.3763 286.301 67.2617 285.861 67.9453 284.982L69.2246 286.203C68.8014 286.835 68.235 287.326 67.5254 287.678C66.8223 288.023 66.0312 288.195 65.1523 288.195ZM64.8691 279.143C64.2181 279.143 63.6908 279.37 63.2871 279.826C62.89 280.282 62.6361 280.917 62.5254 281.73H67.0469V281.555C66.9948 280.76 66.7832 280.161 66.4121 279.758C66.041 279.348 65.5267 279.143 64.8691 279.143ZM28.9609 305.371C28.8177 306.888 28.2578 308.073 27.2812 308.926C26.3047 309.772 25.0059 310.195 23.3848 310.195C22.252 310.195 21.2526 309.928 20.3867 309.395C19.5273 308.854 18.8633 308.089 18.3945 307.1C17.9258 306.11 17.6816 304.961 17.6621 303.652V302.324C17.6621 300.983 17.8997 299.801 18.375 298.779C18.8503 297.757 19.5306 296.969 20.416 296.416C21.3079 295.863 22.3366 295.586 23.502 295.586C25.071 295.586 26.334 296.012 27.291 296.865C28.248 297.718 28.8047 298.923 28.9609 300.479H26.5C26.3828 299.456 26.0833 298.721 25.6016 298.271C25.1263 297.816 24.4264 297.588 23.502 297.588C22.4277 297.588 21.6009 297.982 21.0215 298.77C20.4486 299.551 20.1556 300.7 20.1426 302.217V303.477C20.1426 305.013 20.416 306.185 20.9629 306.992C21.5163 307.799 22.3236 308.203 23.3848 308.203C24.3548 308.203 25.084 307.985 25.5723 307.549C26.0605 307.113 26.3698 306.387 26.5 305.371H28.9609ZM33.4727 310H31.0996V295H33.4727V310ZM42.3789 310C42.2747 309.798 42.1836 309.469 42.1055 309.014C41.3503 309.801 40.4258 310.195 39.332 310.195C38.2708 310.195 37.4049 309.893 36.7344 309.287C36.0638 308.682 35.7285 307.933 35.7285 307.041C35.7285 305.915 36.1452 305.052 36.9785 304.453C37.8184 303.848 39.0163 303.545 40.5723 303.545H42.0273V302.852C42.0273 302.305 41.8743 301.868 41.5684 301.543C41.2624 301.211 40.7969 301.045 40.1719 301.045C39.6315 301.045 39.1888 301.182 38.8438 301.455C38.4987 301.722 38.3262 302.064 38.3262 302.48H35.9531C35.9531 301.901 36.1452 301.361 36.5293 300.859C36.9134 300.352 37.4342 299.954 38.0918 299.668C38.7559 299.382 39.4948 299.238 40.3086 299.238C41.5456 299.238 42.5319 299.551 43.2676 300.176C44.0033 300.794 44.3809 301.667 44.4004 302.793V307.559C44.4004 308.509 44.5339 309.268 44.8008 309.834V310H42.3789ZM39.7715 308.291C40.2402 308.291 40.6797 308.177 41.0898 307.949C41.5065 307.721 41.819 307.415 42.0273 307.031V305.039H40.748C39.8691 305.039 39.2083 305.192 38.7656 305.498C38.3229 305.804 38.1016 306.237 38.1016 306.797C38.1016 307.253 38.2513 307.617 38.5508 307.891C38.8568 308.158 39.2637 308.291 39.7715 308.291ZM52.8086 307.129C52.8086 306.706 52.6328 306.383 52.2812 306.162C51.9362 305.941 51.36 305.745 50.5527 305.576C49.7454 305.407 49.0716 305.192 48.5312 304.932C47.3464 304.359 46.7539 303.529 46.7539 302.441C46.7539 301.53 47.138 300.768 47.9062 300.156C48.6745 299.544 49.651 299.238 50.8359 299.238C52.099 299.238 53.1178 299.551 53.8926 300.176C54.6738 300.801 55.0645 301.611 55.0645 302.607H52.6914C52.6914 302.152 52.5221 301.774 52.1836 301.475C51.8451 301.169 51.3958 301.016 50.8359 301.016C50.3151 301.016 49.8887 301.136 49.5566 301.377C49.2311 301.618 49.0684 301.94 49.0684 302.344C49.0684 302.708 49.2214 302.992 49.5273 303.193C49.8333 303.395 50.4518 303.6 51.3828 303.809C52.3138 304.01 53.043 304.255 53.5703 304.541C54.1042 304.821 54.498 305.16 54.752 305.557C55.0124 305.954 55.1426 306.436 55.1426 307.002C55.1426 307.952 54.7487 308.724 53.9609 309.316C53.1732 309.902 52.1413 310.195 50.8652 310.195C49.9993 310.195 49.2279 310.039 48.5508 309.727C47.8737 309.414 47.3464 308.984 46.9688 308.438C46.5911 307.891 46.4023 307.301 46.4023 306.67H48.707C48.7396 307.23 48.9512 307.663 49.3418 307.969C49.7324 308.268 50.25 308.418 50.8945 308.418C51.5195 308.418 51.9948 308.301 52.3203 308.066C52.6458 307.826 52.8086 307.513 52.8086 307.129ZM63.1406 307.129C63.1406 306.706 62.9648 306.383 62.6133 306.162C62.2682 305.941 61.6921 305.745 60.8848 305.576C60.0775 305.407 59.4036 305.192 58.8633 304.932C57.6784 304.359 57.0859 303.529 57.0859 302.441C57.0859 301.53 57.4701 300.768 58.2383 300.156C59.0065 299.544 59.9831 299.238 61.168 299.238C62.431 299.238 63.4499 299.551 64.2246 300.176C65.0059 300.801 65.3965 301.611 65.3965 302.607H63.0234C63.0234 302.152 62.8542 301.774 62.5156 301.475C62.1771 301.169 61.7279 301.016 61.168 301.016C60.6471 301.016 60.2207 301.136 59.8887 301.377C59.5632 301.618 59.4004 301.94 59.4004 302.344C59.4004 302.708 59.5534 302.992 59.8594 303.193C60.1654 303.395 60.7839 303.6 61.7148 303.809C62.6458 304.01 63.375 304.255 63.9023 304.541C64.4362 304.821 64.8301 305.16 65.084 305.557C65.3444 305.954 65.4746 306.436 65.4746 307.002C65.4746 307.952 65.0807 308.724 64.293 309.316C63.5052 309.902 62.4733 310.195 61.1973 310.195C60.3314 310.195 59.5599 310.039 58.8828 309.727C58.2057 309.414 57.6784 308.984 57.3008 308.438C56.9232 307.891 56.7344 307.301 56.7344 306.67H59.0391C59.0716 307.23 59.2832 307.663 59.6738 307.969C60.0645 308.268 60.582 308.418 61.2266 308.418C61.8516 308.418 62.3268 308.301 62.6523 308.066C62.9779 307.826 63.1406 307.513 63.1406 307.129Z" fill="#F86381"/>
<g filter="url(#filter2_d)">
<path d="M207.429 217.785C207.429 198.574 223.003 183 242.215 183V183C261.426 183 277 198.574 277 217.785V241.39C277 247.565 271.994 252.571 265.819 252.571V252.571H242.215C223.003 252.571 207.429 236.997 207.429 217.785V217.785Z" fill="#FF6CE0"/>
</g>
<path d="M259.484 217.51L249.462 211.575V198.219C249.46 197.642 249.23 197.09 248.823 196.683C248.416 196.276 247.864 196.046 247.288 196.044H229.895C229.319 196.046 228.767 196.276 228.359 196.683C227.952 197.09 227.723 197.642 227.721 198.219V222.858C227.723 223.434 227.952 223.986 228.359 224.393C228.767 224.801 229.319 225.03 229.895 225.032H237.164C237.257 225.168 237.361 225.297 237.475 225.416L242.939 231.823V233.004C242.942 234.733 243.63 236.39 244.853 237.613C246.075 238.835 247.733 239.523 249.462 239.526H262.506C262.89 239.525 263.258 239.372 263.53 239.1C263.801 238.829 263.954 238.461 263.955 238.077V225.525C263.96 223.918 263.551 222.336 262.768 220.933C261.985 219.529 260.854 218.35 259.484 217.51V217.51ZM236.453 222.894C236.453 223.125 236.475 223.356 236.519 223.583H229.895C229.703 223.583 229.518 223.506 229.382 223.371C229.247 223.235 229.17 223.05 229.17 222.858V198.219C229.17 198.026 229.247 197.842 229.382 197.706C229.518 197.57 229.703 197.494 229.895 197.494H247.288C247.48 197.494 247.664 197.57 247.8 197.706C247.936 197.842 248.012 198.026 248.012 198.219V222.858C248.012 223.05 247.936 223.235 247.8 223.371C247.664 223.506 247.48 223.583 247.288 223.583H245.976L242.642 220.329C242.135 219.821 241.489 219.475 240.786 219.334C240.082 219.194 239.352 219.266 238.689 219.541C238.026 219.815 237.46 220.281 237.062 220.878C236.664 221.475 236.452 222.177 236.453 222.894V222.894ZM262.506 238.077H249.462C248.117 238.075 246.827 237.54 245.876 236.589C244.925 235.638 244.39 234.349 244.389 233.004V231.554C244.391 231.381 244.329 231.214 244.215 231.083L238.54 224.431C238.338 224.229 238.178 223.99 238.069 223.726C237.959 223.462 237.903 223.18 237.903 222.894C237.903 222.609 237.959 222.326 238.069 222.063C238.178 221.799 238.338 221.56 238.54 221.358C238.956 220.961 239.508 220.741 240.082 220.742C240.656 220.743 241.207 220.967 241.62 221.365L251.128 230.627L252.143 229.583L247.447 225.018C247.993 224.978 248.504 224.733 248.877 224.332C249.251 223.932 249.459 223.406 249.462 222.858V213.256L258.73 218.749C259.887 219.461 260.842 220.457 261.503 221.644C262.165 222.83 262.51 224.167 262.506 225.525V238.077Z" fill="white"/>
<path d="M234.243 213.437H231.344C231.152 213.437 230.968 213.513 230.832 213.649C230.696 213.785 230.62 213.97 230.62 214.162V217.06C230.62 217.253 230.696 217.437 230.832 217.573C230.968 217.709 231.152 217.785 231.344 217.785H234.243C234.435 217.785 234.62 217.709 234.756 217.573C234.891 217.437 234.968 217.253 234.968 217.06V214.162C234.968 213.97 234.891 213.785 234.756 213.649C234.62 213.513 234.435 213.437 234.243 213.437ZM233.518 216.336H232.069V214.886H233.518V216.336Z" fill="white"/>
<path d="M237.142 217.785H240.041C240.233 217.785 240.417 217.709 240.553 217.573C240.689 217.437 240.765 217.253 240.765 217.06V214.162C240.765 213.97 240.689 213.785 240.553 213.649C240.417 213.513 240.233 213.437 240.041 213.437H237.142C236.95 213.437 236.765 213.513 236.629 213.649C236.493 213.785 236.417 213.97 236.417 214.162V217.06C236.417 217.253 236.493 217.437 236.629 217.573C236.765 217.709 236.95 217.785 237.142 217.785ZM237.867 214.886H239.316V216.336H237.867V214.886Z" fill="white"/>
<path d="M242.939 213.437C242.747 213.437 242.563 213.513 242.427 213.649C242.291 213.785 242.215 213.97 242.215 214.162V217.06C242.215 217.253 242.291 217.437 242.427 217.573C242.563 217.709 242.747 217.785 242.939 217.785H245.838C246.03 217.785 246.215 217.709 246.351 217.573C246.486 217.437 246.563 217.253 246.563 217.06V214.162C246.563 213.97 246.486 213.785 246.351 213.649C246.215 213.513 246.03 213.437 245.838 213.437H242.939ZM245.113 216.336H243.664V214.886H245.113V216.336Z" fill="white"/>
<path d="M238.591 200.393C239.829 200.391 241.055 200.633 242.198 201.107C243.342 201.581 244.38 202.276 245.254 203.153L246.273 202.126C244.234 200.088 241.47 198.943 238.588 198.943C235.705 198.943 232.941 200.088 230.902 202.126L231.925 203.153C232.799 202.276 233.838 201.58 234.982 201.107C236.126 200.633 237.353 200.39 238.591 200.393V200.393Z" fill="white"/>
<path d="M244.227 204.178C243.487 203.437 242.609 202.85 241.642 202.449C240.675 202.048 239.638 201.842 238.591 201.842C237.544 201.842 236.508 202.048 235.541 202.449C234.574 202.85 233.695 203.437 232.955 204.178L233.98 205.202C235.203 203.98 236.862 203.293 238.591 203.293C240.321 203.293 241.979 203.98 243.202 205.202L244.227 204.178Z" fill="white"/>
<path d="M241.149 207.251L242.179 206.231C241.709 205.759 241.15 205.384 240.534 205.128C239.918 204.873 239.259 204.741 238.592 204.741C237.925 204.741 237.266 204.873 236.65 205.128C236.034 205.384 235.475 205.759 235.005 206.231L236.035 207.251C236.37 206.915 236.769 206.648 237.208 206.466C237.647 206.284 238.118 206.19 238.593 206.19C239.068 206.19 239.538 206.284 239.977 206.466C240.416 206.648 240.815 206.915 241.151 207.251H241.149Z" fill="white"/>
<path d="M236.417 209.814C236.417 210.244 236.545 210.664 236.784 211.021C237.022 211.379 237.362 211.658 237.759 211.822C238.156 211.987 238.594 212.03 239.015 211.946C239.437 211.862 239.824 211.655 240.128 211.351C240.433 211.047 240.64 210.659 240.723 210.238C240.807 209.816 240.764 209.379 240.6 208.982C240.435 208.584 240.157 208.245 239.799 208.006C239.442 207.767 239.021 207.64 238.591 207.64C238.015 207.64 237.462 207.869 237.054 208.276C236.646 208.684 236.417 209.237 236.417 209.814V209.814ZM239.316 209.814C239.316 209.957 239.273 210.097 239.194 210.216C239.114 210.335 239.001 210.428 238.869 210.483C238.736 210.538 238.59 210.552 238.45 210.524C238.309 210.496 238.18 210.427 238.079 210.326C237.977 210.225 237.908 210.096 237.88 209.955C237.852 209.814 237.867 209.669 237.922 209.536C237.977 209.404 238.069 209.291 238.189 209.211C238.308 209.131 238.448 209.089 238.591 209.089C238.783 209.089 238.968 209.165 239.104 209.301C239.24 209.437 239.316 209.621 239.316 209.814Z" fill="white"/>
<path d="M221.902 284.338C221.902 283.713 221.681 283.231 221.238 282.893C220.802 282.554 220.011 282.212 218.865 281.867C217.719 281.522 216.808 281.138 216.131 280.715C214.835 279.901 214.188 278.84 214.188 277.531C214.188 276.385 214.653 275.441 215.584 274.699C216.521 273.957 217.736 273.586 219.227 273.586C220.216 273.586 221.098 273.768 221.873 274.133C222.648 274.497 223.257 275.018 223.699 275.695C224.142 276.366 224.363 277.111 224.363 277.932H221.902C221.902 277.189 221.668 276.61 221.199 276.193C220.737 275.77 220.073 275.559 219.207 275.559C218.4 275.559 217.771 275.731 217.322 276.076C216.88 276.421 216.658 276.903 216.658 277.521C216.658 278.042 216.899 278.479 217.381 278.83C217.863 279.175 218.657 279.514 219.764 279.846C220.87 280.171 221.759 280.546 222.43 280.969C223.1 281.385 223.592 281.867 223.904 282.414C224.217 282.954 224.373 283.589 224.373 284.318C224.373 285.503 223.917 286.447 223.006 287.15C222.101 287.847 220.87 288.195 219.314 288.195C218.286 288.195 217.339 288.007 216.473 287.629C215.613 287.245 214.943 286.717 214.461 286.047C213.986 285.376 213.748 284.595 213.748 283.703H216.219C216.219 284.51 216.486 285.135 217.02 285.578C217.553 286.021 218.318 286.242 219.314 286.242C220.174 286.242 220.818 286.07 221.248 285.725C221.684 285.373 221.902 284.911 221.902 284.338ZM230.965 288.195C229.461 288.195 228.24 287.723 227.303 286.779C226.372 285.829 225.906 284.566 225.906 282.99V282.697C225.906 281.643 226.108 280.702 226.512 279.875C226.922 279.042 227.495 278.394 228.23 277.932C228.966 277.469 229.786 277.238 230.691 277.238C232.13 277.238 233.24 277.697 234.021 278.615C234.809 279.533 235.203 280.832 235.203 282.512V283.469H228.299C228.37 284.341 228.66 285.031 229.168 285.539C229.682 286.047 230.327 286.301 231.102 286.301C232.189 286.301 233.074 285.861 233.758 284.982L235.037 286.203C234.614 286.835 234.048 287.326 233.338 287.678C232.635 288.023 231.844 288.195 230.965 288.195ZM230.682 279.143C230.031 279.143 229.503 279.37 229.1 279.826C228.702 280.282 228.449 280.917 228.338 281.73H232.859V281.555C232.807 280.76 232.596 280.161 232.225 279.758C231.854 279.348 231.339 279.143 230.682 279.143ZM241.395 286.301C241.987 286.301 242.479 286.128 242.869 285.783C243.26 285.438 243.468 285.012 243.494 284.504H245.73C245.704 285.161 245.499 285.777 245.115 286.35C244.731 286.916 244.21 287.365 243.553 287.697C242.895 288.029 242.186 288.195 241.424 288.195C239.946 288.195 238.774 287.717 237.908 286.76C237.042 285.803 236.609 284.481 236.609 282.795V282.551C236.609 280.943 237.039 279.657 237.898 278.693C238.758 277.723 239.93 277.238 241.414 277.238C242.671 277.238 243.693 277.606 244.48 278.342C245.275 279.071 245.691 280.031 245.73 281.223H243.494C243.468 280.617 243.26 280.119 242.869 279.729C242.485 279.338 241.993 279.143 241.395 279.143C240.626 279.143 240.034 279.423 239.617 279.982C239.201 280.536 238.989 281.379 238.982 282.512V282.893C238.982 284.038 239.188 284.895 239.598 285.461C240.014 286.021 240.613 286.301 241.395 286.301ZM253.924 286.965C253.227 287.785 252.238 288.195 250.955 288.195C249.809 288.195 248.94 287.86 248.348 287.189C247.762 286.519 247.469 285.549 247.469 284.279V277.434H249.842V284.25C249.842 285.591 250.398 286.262 251.512 286.262C252.664 286.262 253.442 285.848 253.846 285.021V277.434H256.219V288H253.982L253.924 286.965ZM264.168 279.602C263.855 279.549 263.533 279.523 263.201 279.523C262.114 279.523 261.382 279.94 261.004 280.773V288H258.631V277.434H260.896L260.955 278.615C261.528 277.697 262.322 277.238 263.338 277.238C263.676 277.238 263.956 277.284 264.178 277.375L264.168 279.602ZM268.191 288H265.818V277.434H268.191V288ZM265.672 274.689C265.672 274.325 265.786 274.022 266.014 273.781C266.248 273.54 266.58 273.42 267.01 273.42C267.439 273.42 267.771 273.54 268.006 273.781C268.24 274.022 268.357 274.325 268.357 274.689C268.357 275.048 268.24 275.347 268.006 275.588C267.771 275.822 267.439 275.939 267.01 275.939C266.58 275.939 266.248 275.822 266.014 275.588C265.786 275.347 265.672 275.048 265.672 274.689ZM273.758 274.865V277.434H275.623V279.191H273.758V285.09C273.758 285.493 273.836 285.786 273.992 285.969C274.155 286.145 274.441 286.232 274.852 286.232C275.125 286.232 275.402 286.2 275.682 286.135V287.971C275.141 288.12 274.62 288.195 274.119 288.195C272.296 288.195 271.385 287.189 271.385 285.178V279.191H269.646V277.434H271.385V274.865H273.758ZM281.141 284.602L283.289 277.434H285.818L281.619 289.602C280.975 291.379 279.881 292.268 278.338 292.268C277.993 292.268 277.612 292.209 277.195 292.092V290.256L277.645 290.285C278.243 290.285 278.693 290.174 278.992 289.953C279.298 289.738 279.539 289.374 279.715 288.859L280.057 287.951L276.346 277.434H278.904L281.141 284.602ZM222.215 306.162C222.215 305.505 222.394 304.902 222.752 304.355C223.11 303.802 223.816 303.148 224.871 302.393C224.318 301.696 223.93 301.104 223.709 300.615C223.494 300.127 223.387 299.655 223.387 299.199C223.387 298.086 223.725 297.207 224.402 296.562C225.079 295.911 225.991 295.586 227.137 295.586C228.172 295.586 229.018 295.892 229.676 296.504C230.34 297.109 230.672 297.861 230.672 298.76C230.672 299.352 230.522 299.899 230.223 300.4C229.923 300.895 229.432 301.39 228.748 301.885L227.781 302.588L230.525 305.83C230.923 305.049 231.121 304.18 231.121 303.223H233.182C233.182 304.974 232.771 306.41 231.951 307.529L234.041 310H231.287L230.486 309.053C229.471 309.814 228.26 310.195 226.854 310.195C225.447 310.195 224.321 309.824 223.475 309.082C222.635 308.333 222.215 307.36 222.215 306.162ZM226.922 308.301C227.723 308.301 228.471 308.034 229.168 307.5L226.062 303.838L225.76 304.053C224.979 304.645 224.588 305.322 224.588 306.084C224.588 306.742 224.799 307.275 225.223 307.686C225.646 308.096 226.212 308.301 226.922 308.301ZM225.613 299.141C225.613 299.688 225.949 300.374 226.619 301.201L227.703 300.459L228.006 300.215C228.41 299.857 228.611 299.398 228.611 298.838C228.611 298.467 228.471 298.151 228.191 297.891C227.911 297.624 227.557 297.49 227.127 297.49C226.665 297.49 226.297 297.646 226.023 297.959C225.75 298.271 225.613 298.665 225.613 299.141ZM251.492 308.154C250.978 308.825 250.265 309.333 249.354 309.678C248.442 310.023 247.407 310.195 246.248 310.195C245.057 310.195 244.002 309.925 243.084 309.385C242.166 308.844 241.456 308.073 240.955 307.07C240.46 306.061 240.203 304.886 240.184 303.545V302.432C240.184 300.283 240.698 298.607 241.727 297.402C242.755 296.191 244.191 295.586 246.033 295.586C247.615 295.586 248.872 295.977 249.803 296.758C250.734 297.539 251.294 298.665 251.482 300.137H249.061C248.787 298.424 247.794 297.568 246.082 297.568C244.975 297.568 244.132 297.969 243.553 298.77C242.98 299.564 242.684 300.732 242.664 302.275V303.369C242.664 304.906 242.986 306.1 243.631 306.953C244.282 307.799 245.184 308.223 246.336 308.223C247.599 308.223 248.497 307.936 249.031 307.363V304.58H246.102V302.705H251.492V308.154ZM256.678 304.717V310H254.207V295.781H259.646C261.235 295.781 262.495 296.195 263.426 297.021C264.363 297.848 264.832 298.942 264.832 300.303C264.832 301.696 264.373 302.78 263.455 303.555C262.544 304.329 261.264 304.717 259.617 304.717H256.678ZM256.678 302.734H259.646C260.525 302.734 261.196 302.529 261.658 302.119C262.12 301.702 262.352 301.104 262.352 300.322C262.352 299.554 262.117 298.942 261.648 298.486C261.18 298.024 260.535 297.786 259.715 297.773H256.678V302.734ZM274.432 306.338C274.432 305.713 274.21 305.231 273.768 304.893C273.331 304.554 272.54 304.212 271.395 303.867C270.249 303.522 269.337 303.138 268.66 302.715C267.365 301.901 266.717 300.84 266.717 299.531C266.717 298.385 267.182 297.441 268.113 296.699C269.051 295.957 270.265 295.586 271.756 295.586C272.745 295.586 273.628 295.768 274.402 296.133C275.177 296.497 275.786 297.018 276.229 297.695C276.671 298.366 276.893 299.111 276.893 299.932H274.432C274.432 299.189 274.197 298.61 273.729 298.193C273.266 297.77 272.602 297.559 271.736 297.559C270.929 297.559 270.301 297.731 269.852 298.076C269.409 298.421 269.188 298.903 269.188 299.521C269.188 300.042 269.428 300.479 269.91 300.83C270.392 301.175 271.186 301.514 272.293 301.846C273.4 302.171 274.288 302.546 274.959 302.969C275.63 303.385 276.121 303.867 276.434 304.414C276.746 304.954 276.902 305.589 276.902 306.318C276.902 307.503 276.447 308.447 275.535 309.15C274.63 309.847 273.4 310.195 271.844 310.195C270.815 310.195 269.868 310.007 269.002 309.629C268.143 309.245 267.472 308.717 266.99 308.047C266.515 307.376 266.277 306.595 266.277 305.703H268.748C268.748 306.51 269.015 307.135 269.549 307.578C270.083 308.021 270.848 308.242 271.844 308.242C272.703 308.242 273.348 308.07 273.777 307.725C274.214 307.373 274.432 306.911 274.432 306.338Z" fill="#FF6CE0"/>
<path d="M17.88 17C14.84 15.96 12.64 14.72 11.28 13.28C9.94667 11.8133 9.28 10.0533 9.28 8C9.28 5.65333 10.0267 3.8 11.52 2.44C13.0133 1.08 15.0667 0.4 17.68 0.4C20.1333 0.4 22.2933 0.693332 24.16 1.28C24.72 1.46667 25.1733 1.82667 25.52 2.36C25.8933 2.86666 26.08 3.44 26.08 4.08C26.08 4.53333 25.88 4.88 25.48 5.12C25.08 5.36 24.6667 5.38667 24.24 5.2C22.2133 4.34667 20.16 3.92 18.08 3.92C16.64 3.92 15.5333 4.28 14.76 5C13.9867 5.72 13.6 6.72 13.6 8C13.6 9.04 13.96 9.98667 14.68 10.84C15.4 11.6667 16.4667 12.32 17.88 12.8C21.4 13.9733 23.84 15.28 25.2 16.72C26.5867 18.16 27.28 19.9867 27.28 22.2C27.28 24.8933 26.4533 26.9333 24.8 28.32C23.1467 29.7067 20.7067 30.4 17.48 30.4C15.3733 30.4 13.4667 30.08 11.76 29.44C10.5067 28.9333 9.88 27.9467 9.88 26.48C9.88 26.0267 10.08 25.6933 10.48 25.48C10.88 25.2667 11.28 25.2667 11.68 25.48C13.3333 26.36 15.1333 26.8 17.08 26.8C20.9467 26.8 22.88 25.2667 22.88 22.2C22.88 21.0267 22.4933 20.0267 21.72 19.2C20.9733 18.3733 19.6933 17.64 17.88 17ZM36.4581 29.4C36.0581 29.8 35.5648 30 34.9781 30C34.3915 30 33.8848 29.8 33.4581 29.4C33.0581 28.9733 32.8581 28.4667 32.8581 27.88V2.92C32.8581 2.33333 33.0581 1.84 33.4581 1.44C33.8848 1.01333 34.3915 0.799999 34.9781 0.799999C36.3915 0.799999 37.4181 1.42667 38.0581 2.68L45.9381 17.96C45.9381 17.9867 45.9515 18 45.9781 18C46.0048 18 46.0181 17.9867 46.0181 17.96L53.8581 2.76C54.5248 1.45333 55.5915 0.799999 57.0581 0.799999C57.6715 0.799999 58.1915 1.01333 58.6181 1.44C59.0448 1.86667 59.2581 2.38667 59.2581 3V27.8C59.2581 28.4133 59.0448 28.9333 58.6181 29.36C58.1915 29.7867 57.6715 30 57.0581 30C56.4448 30 55.9248 29.7867 55.4981 29.36C55.0715 28.9333 54.8581 28.4133 54.8581 27.8V8.44C54.8581 8.41333 54.8448 8.4 54.8181 8.4C54.7915 8.4 54.7781 8.41333 54.7781 8.44L48.8581 20.2C48.2448 21.4 47.2848 22 45.9781 22C44.6715 22 43.7115 21.4 43.0981 20.2L37.1781 8.44C37.1781 8.41333 37.1648 8.4 37.1381 8.4C37.1115 8.4 37.0981 8.41333 37.0981 8.44V27.88C37.0981 28.4667 36.8848 28.9733 36.4581 29.4ZM75.5469 4.84L71.3469 18.48C71.3202 18.56 71.3335 18.64 71.3869 18.72C71.4402 18.7733 71.5069 18.8 71.5869 18.8H79.5869C79.6669 18.8 79.7335 18.7733 79.7869 18.72C79.8402 18.64 79.8535 18.56 79.8269 18.48L75.6269 4.84C75.6269 4.81333 75.6135 4.8 75.5869 4.8C75.5602 4.8 75.5469 4.81333 75.5469 4.84ZM65.5469 30C64.9869 30 64.5335 29.7733 64.1869 29.32C63.8669 28.8667 63.8002 28.3733 63.9869 27.84L72.5469 2.96C72.7602 2.32 73.1469 1.8 73.7069 1.4C74.2669 0.999999 74.8802 0.799999 75.5469 0.799999H75.7869C76.4802 0.799999 77.0935 0.999999 77.6269 1.4C78.1869 1.8 78.5735 2.32 78.7869 2.96L87.3469 27.84C87.5335 28.3733 87.4535 28.8667 87.1069 29.32C86.7869 29.7733 86.3469 30 85.7869 30H85.6269C84.9602 30 84.3469 29.8 83.7869 29.4C83.2535 29 82.8802 28.48 82.6669 27.84L81.0669 22.56C81.0402 22.3467 80.8935 22.24 80.6269 22.24H70.5469C70.3069 22.24 70.1602 22.3467 70.1069 22.56L68.5069 27.84C68.3202 28.48 67.9469 29 67.3869 29.4C66.8535 29.8 66.2402 30 65.5469 30ZM95.8909 4.56V14.2C95.8909 14.44 96.0109 14.56 96.2509 14.56H98.2909C103.944 14.56 106.771 12.64 106.771 8.8C106.771 7.17333 106.158 5.96 104.931 5.16C103.731 4.33333 101.784 3.92 99.0909 3.92C98.0776 3.92 97.1176 4 96.2109 4.16C95.9976 4.21333 95.8909 4.34666 95.8909 4.56ZM95.2509 29.36C94.8243 29.7867 94.3043 30 93.6909 30C93.0776 30 92.5576 29.7867 92.1309 29.36C91.7043 28.9333 91.4909 28.4133 91.4909 27.8V3.28C91.4909 2.61333 91.7043 2.04 92.1309 1.56C92.5576 1.05333 93.1043 0.773332 93.7709 0.719998C95.7443 0.506666 97.6509 0.4 99.4909 0.4C103.331 0.4 106.224 1.10667 108.171 2.52C110.118 3.93333 111.091 5.89333 111.091 8.4C111.091 10.4267 110.571 12.16 109.531 13.6C108.518 15.0133 107.118 16 105.331 16.56C105.304 16.56 105.291 16.5733 105.291 16.6C105.291 16.6533 105.304 16.68 105.331 16.68C106.478 17.4533 107.531 19.0267 108.491 21.4L111.051 27.88C111.264 28.3867 111.211 28.8667 110.891 29.32C110.571 29.7733 110.144 30 109.611 30C108.918 30 108.291 29.8133 107.731 29.44C107.171 29.04 106.771 28.52 106.531 27.88L104.011 21.4C103.451 19.96 102.824 19.04 102.131 18.64C101.464 18.2133 100.184 18 98.2909 18H96.2509C96.0109 18 95.8909 18.12 95.8909 18.36V27.8C95.8909 28.4133 95.6776 28.9333 95.2509 29.36ZM115.573 4.48C115.066 4.48 114.626 4.30667 114.253 3.96C113.906 3.58667 113.733 3.14667 113.733 2.64C113.733 2.13333 113.906 1.70667 114.253 1.36C114.626 0.986666 115.066 0.799999 115.573 0.799999H132.693C133.2 0.799999 133.626 0.986666 133.973 1.36C134.346 1.70667 134.533 2.13333 134.533 2.64C134.533 3.14667 134.346 3.58667 133.973 3.96C133.626 4.30667 133.2 4.48 132.693 4.48H126.693C126.453 4.48 126.333 4.6 126.333 4.84V27.8C126.333 28.4133 126.12 28.9333 125.693 29.36C125.266 29.7867 124.746 30 124.133 30C123.52 30 123 29.7867 122.573 29.36C122.146 28.9333 121.933 28.4133 121.933 27.8V4.84C121.933 4.6 121.813 4.48 121.573 4.48H115.573Z" fill="#F9EEEE"/>
<path d="M24.918 75.896C19.71 74.2427 15.9487 72.1967 13.634 69.758C11.3193 67.278 10.162 64.2607 10.162 60.706C10.162 56.8207 11.5053 53.762 14.192 51.53C16.92 49.2567 20.8053 48.12 25.848 48.12C29.6507 48.12 33.102 48.554 36.202 49.422C37.194 49.7113 37.9793 50.3107 38.558 51.22C39.178 52.088 39.488 53.0593 39.488 54.134V55.932C39.488 56.7587 39.1367 57.3993 38.434 57.854C37.7313 58.3087 36.9873 58.3913 36.202 58.102C32.6887 56.862 29.444 56.242 26.468 56.242C22.6653 56.242 20.764 57.73 20.764 60.706C20.764 63.2273 22.4173 65.0253 25.724 66.1C31.428 67.836 35.3753 69.8613 37.566 72.176C39.798 74.4907 40.914 77.5287 40.914 81.29C40.914 90.1767 35.3133 94.62 24.112 94.62C20.5573 94.62 17.3333 94.062 14.44 92.946C13.448 92.574 12.6627 91.9333 12.084 91.024C11.5467 90.0733 11.278 89.04 11.278 87.924V85.94C11.278 85.196 11.6087 84.638 12.27 84.266C12.9313 83.8527 13.5927 83.8113 14.254 84.142C17.2713 85.63 20.3507 86.374 23.492 86.374C25.6827 86.374 27.336 85.9607 28.452 85.134C29.6093 84.266 30.188 83.0467 30.188 81.476C30.188 80.112 29.7953 78.996 29.01 78.128C28.2247 77.26 26.8607 76.516 24.918 75.896ZM67.1952 94.62C60.4166 94.62 55.0846 92.6153 51.1992 88.606C47.3139 84.5967 45.3712 78.8513 45.3712 71.37C45.3712 64.0127 47.2519 58.3087 51.0132 54.258C54.7746 50.166 60.0239 48.12 66.7612 48.12C69.9852 48.12 72.7959 48.3473 75.1932 48.802C76.1852 48.9673 76.9912 49.4633 77.6112 50.29C78.2312 51.1167 78.5412 52.0467 78.5412 53.08V55.064C78.5412 55.932 78.1899 56.614 77.4872 57.11C76.7846 57.606 76.0199 57.7507 75.1932 57.544C72.8372 56.924 70.4399 56.614 68.0012 56.614C64.2812 56.614 61.3672 57.8747 59.2592 60.396C57.1926 62.9173 56.1592 66.5753 56.1592 71.37C56.1592 76.082 57.2752 79.74 59.5072 82.344C61.7392 84.948 64.7152 86.25 68.4352 86.25C70.9152 86.25 73.3332 85.94 75.6892 85.32C76.5159 85.1133 77.2806 85.258 77.9832 85.754C78.7272 86.25 79.0992 86.932 79.0992 87.8V89.66C79.0992 90.6933 78.7686 91.6233 78.1072 92.45C77.4872 93.2767 76.6812 93.7727 75.6892 93.938C73.2506 94.3927 70.4192 94.62 67.1952 94.62ZM91.7773 94C90.8266 94 89.9999 93.6487 89.2973 92.946C88.5946 92.2433 88.2433 91.4167 88.2433 90.466V52.274C88.2433 51.3233 88.5946 50.4967 89.2973 49.794C89.9999 49.0913 90.8266 48.74 91.7773 48.74H95.3113C96.2619 48.74 97.0679 49.0913 97.7293 49.794C98.4319 50.4967 98.7833 51.3233 98.7833 52.274V65.914C98.7833 66.286 98.9693 66.472 99.3413 66.472H112.113C112.485 66.472 112.671 66.286 112.671 65.914V52.274C112.671 51.3233 113.002 50.4967 113.663 49.794C114.366 49.0913 115.193 48.74 116.143 48.74H119.677C120.628 48.74 121.455 49.0913 122.157 49.794C122.86 50.4967 123.211 51.3233 123.211 52.274V90.466C123.211 91.4167 122.86 92.2433 122.157 92.946C121.455 93.6487 120.628 94 119.677 94H116.143C115.193 94 114.366 93.6487 113.663 92.946C113.002 92.2433 112.671 91.4167 112.671 90.466V74.966C112.671 74.6353 112.485 74.47 112.113 74.47H99.3413C98.9693 74.47 98.7833 74.6353 98.7833 74.966V90.466C98.7833 91.4167 98.4319 92.2433 97.7293 92.946C97.0679 93.6487 96.2619 94 95.3113 94H91.7773ZM161.454 71.37C161.454 61.6567 157.982 56.8 151.038 56.8C144.094 56.8 140.622 61.6567 140.622 71.37C140.622 81.0833 144.094 85.94 151.038 85.94C157.982 85.94 161.454 81.0833 161.454 71.37ZM166.538 88.482C162.735 92.574 157.569 94.62 151.038 94.62C144.507 94.62 139.341 92.574 135.538 88.482C131.735 84.3487 129.834 78.6447 129.834 71.37C129.834 64.0953 131.735 58.412 135.538 54.32C139.341 50.1867 144.507 48.12 151.038 48.12C157.569 48.12 162.735 50.1867 166.538 54.32C170.341 58.412 172.242 64.0953 172.242 71.37C172.242 78.6447 170.341 84.3487 166.538 88.482ZM208.317 71.37C208.317 61.6567 204.845 56.8 197.901 56.8C190.957 56.8 187.485 61.6567 187.485 71.37C187.485 81.0833 190.957 85.94 197.901 85.94C204.845 85.94 208.317 81.0833 208.317 71.37ZM213.401 88.482C209.599 92.574 204.432 94.62 197.901 94.62C191.371 94.62 186.204 92.574 182.401 88.482C178.599 84.3487 176.697 78.6447 176.697 71.37C176.697 64.0953 178.599 58.412 182.401 54.32C186.204 50.1867 191.371 48.12 197.901 48.12C204.432 48.12 209.599 50.1867 213.401 54.32C217.204 58.412 219.105 64.0953 219.105 71.37C219.105 78.6447 217.204 84.3487 213.401 88.482ZM229.279 94C228.329 94 227.502 93.6487 226.799 92.946C226.097 92.2433 225.745 91.4167 225.745 90.466V52.274C225.745 51.3233 226.097 50.4967 226.799 49.794C227.502 49.0913 228.329 48.74 229.279 48.74H233.123C234.074 48.74 234.88 49.0913 235.541 49.794C236.244 50.4967 236.595 51.3233 236.595 52.274V84.762C236.595 85.0927 236.781 85.258 237.153 85.258H252.219C253.17 85.258 253.997 85.6093 254.699 86.312C255.402 87.0147 255.753 87.8413 255.753 88.792V90.466C255.753 91.4167 255.402 92.2433 254.699 92.946C253.997 93.6487 253.17 94 252.219 94H229.279Z" fill="#F86381"/>
<path d="M23.554 128.734C14.998 125.841 10.72 121.315 10.72 115.156C10.72 111.684 11.836 108.977 14.068 107.034C16.3 105.091 19.4207 104.12 23.43 104.12C27.15 104.12 30.6013 104.678 33.784 105.794C34.4453 106.042 34.9827 106.476 35.396 107.096C35.8093 107.675 36.016 108.336 36.016 109.08C36.016 109.617 35.7887 110.031 35.334 110.32C34.8793 110.568 34.404 110.589 33.908 110.382C30.56 108.894 27.1913 108.15 23.802 108.15C21.322 108.15 19.3173 108.729 17.788 109.886C16.3 111.043 15.556 112.8 15.556 115.156C15.556 119.207 18.2633 122.141 23.678 123.96C28.8033 125.655 32.3993 127.597 34.466 129.788C36.5327 131.979 37.566 134.789 37.566 138.22C37.566 142.271 36.3467 145.35 33.908 147.458C31.4693 149.566 27.894 150.62 23.182 150.62C19.6273 150.62 16.424 149.979 13.572 148.698C12.1253 148.037 11.402 146.879 11.402 145.226C11.402 144.689 11.6293 144.296 12.084 144.048C12.5387 143.8 12.9933 143.8 13.448 144.048C16.2587 145.66 19.3793 146.466 22.81 146.466C29.3407 146.466 32.606 143.717 32.606 138.22C32.606 135.988 31.9033 134.128 30.498 132.64C29.0927 131.152 26.778 129.85 23.554 128.734ZM55.8846 130.408L41.9346 107.22C41.6039 106.641 41.5832 106.083 41.8726 105.546C42.2032 105.009 42.6992 104.74 43.3606 104.74C45.3032 104.74 46.7499 105.587 47.7006 107.282L58.7366 126.626C58.7366 126.667 58.7572 126.688 58.7986 126.688C58.8812 126.688 58.9226 126.667 58.9226 126.626L69.9586 107.22C70.8679 105.567 72.2732 104.74 74.1746 104.74C74.7946 104.74 75.2492 105.009 75.5386 105.546C75.8692 106.083 75.8692 106.621 75.5386 107.158L61.5886 130.408C61.4232 130.697 61.3406 131.028 61.3406 131.4V147.396C61.3406 148.099 61.0719 148.719 60.5346 149.256C60.0386 149.752 59.4392 150 58.7366 150C58.0339 150 57.4139 149.752 56.8766 149.256C56.3806 148.719 56.1326 148.099 56.1326 147.396V131.4C56.1326 131.028 56.0499 130.697 55.8846 130.408ZM90.3978 128.734C81.8418 125.841 77.5638 121.315 77.5638 115.156C77.5638 111.684 78.6798 108.977 80.9118 107.034C83.1438 105.091 86.2644 104.12 90.2738 104.12C93.9938 104.12 97.4451 104.678 100.628 105.794C101.289 106.042 101.826 106.476 102.24 107.096C102.653 107.675 102.86 108.336 102.86 109.08C102.86 109.617 102.632 110.031 102.178 110.32C101.723 110.568 101.248 110.589 100.752 110.382C97.4038 108.894 94.0351 108.15 90.6458 108.15C88.1658 108.15 86.1611 108.729 84.6318 109.886C83.1438 111.043 82.3998 112.8 82.3998 115.156C82.3998 119.207 85.1071 122.141 90.5218 123.96C95.6471 125.655 99.2431 127.597 101.31 129.788C103.376 131.979 104.41 134.789 104.41 138.22C104.41 142.271 103.19 145.35 100.752 147.458C98.3131 149.566 94.7378 150.62 90.0258 150.62C86.4711 150.62 83.2678 149.979 80.4158 148.698C78.9691 148.037 78.2458 146.879 78.2458 145.226C78.2458 144.689 78.4731 144.296 78.9278 144.048C79.3824 143.8 79.8371 143.8 80.2918 144.048C83.1024 145.66 86.2231 146.466 89.6538 146.466C96.1844 146.466 99.4498 143.717 99.4498 138.22C99.4498 135.988 98.7471 134.128 97.3418 132.64C95.9364 131.152 93.6218 129.85 90.3978 128.734ZM112.73 108.956C112.152 108.956 111.656 108.749 111.242 108.336C110.829 107.923 110.622 107.427 110.622 106.848C110.622 106.269 110.829 105.773 111.242 105.36C111.656 104.947 112.152 104.74 112.73 104.74H140.382C140.961 104.74 141.457 104.947 141.87 105.36C142.284 105.773 142.49 106.269 142.49 106.848C142.49 107.427 142.284 107.923 141.87 108.336C141.457 108.749 140.961 108.956 140.382 108.956H129.594C129.222 108.956 129.036 109.142 129.036 109.514V147.52C129.036 148.181 128.788 148.76 128.292 149.256C127.838 149.752 127.259 150 126.556 150C125.854 150 125.254 149.752 124.758 149.256C124.304 148.76 124.076 148.181 124.076 147.52V109.514C124.076 109.142 123.89 108.956 123.518 108.956H112.73ZM155.001 150C154.051 150 153.224 149.649 152.521 148.946C151.819 148.243 151.467 147.417 151.467 146.466V108.274C151.467 107.323 151.819 106.497 152.521 105.794C153.224 105.091 154.051 104.74 155.001 104.74H175.833C176.412 104.74 176.908 104.947 177.321 105.36C177.735 105.773 177.941 106.249 177.941 106.786C177.941 107.323 177.735 107.819 177.321 108.274C176.908 108.687 176.412 108.894 175.833 108.894H156.985C156.613 108.894 156.427 109.059 156.427 109.39V123.154C156.427 123.485 156.613 123.65 156.985 123.65H174.717C175.296 123.65 175.771 123.857 176.143 124.27C176.515 124.642 176.701 125.097 176.701 125.634C176.701 126.171 176.515 126.647 176.143 127.06C175.771 127.432 175.296 127.618 174.717 127.618H156.985C156.613 127.618 156.427 127.804 156.427 128.176V145.35C156.427 145.681 156.613 145.846 156.985 145.846H175.833C176.412 145.846 176.908 146.073 177.321 146.528C177.735 146.941 177.941 147.417 177.941 147.954C177.941 148.491 177.735 148.967 177.321 149.38C176.908 149.793 176.412 150 175.833 150H155.001ZM191.886 149.318C191.431 149.773 190.873 150 190.212 150C189.551 150 188.993 149.773 188.538 149.318C188.083 148.822 187.856 148.243 187.856 147.582V107.282C187.856 106.579 188.083 105.98 188.538 105.484C189.034 104.988 189.633 104.74 190.336 104.74C192.031 104.74 193.291 105.484 194.118 106.972L207.696 131.958C207.696 131.999 207.737 132.02 207.82 132.02C207.861 132.02 207.882 131.999 207.882 131.958L221.46 107.034C222.245 105.505 223.527 104.74 225.304 104.74C226.007 104.74 226.606 105.009 227.102 105.546C227.639 106.042 227.908 106.641 227.908 107.344V147.52C227.908 148.181 227.66 148.76 227.164 149.256C226.709 149.752 226.131 150 225.428 150C224.725 150 224.126 149.752 223.63 149.256C223.175 148.76 222.948 148.181 222.948 147.52V113.11C222.948 113.069 222.927 113.048 222.886 113.048C222.845 113.048 222.824 113.069 222.824 113.11L211.23 134.5C210.486 135.864 209.349 136.546 207.82 136.546C206.291 136.546 205.154 135.864 204.41 134.5L192.754 113.11C192.754 113.069 192.733 113.048 192.692 113.048C192.651 113.048 192.63 113.069 192.63 113.11V147.582C192.63 148.243 192.382 148.822 191.886 149.318Z" fill="#FF6CE0"/>
<defs>
<filter id="filter0_d" x="0" y="180" width="83.5705" height="83.5705" filterUnits="userSpaceOnUse" color-interpolation-filters="sRGB">
<feFlood flood-opacity="0" result="BackgroundImageFix"/>
<feColorMatrix in="SourceAlpha" type="matrix" values="0 0 0 0 0 0 0 0 0 0 0 0 0 0 0 0 0 0 127 0"/>
<feOffset dy="4"/>
<feGaussianBlur stdDeviation="3.5"/>
<feColorMatrix type="matrix" values="0 0 0 0 0 0 0 0 0 0 0 0 0 0 0 0 0 0 0.25 0"/>
<feBlend mode="normal" in2="BackgroundImageFix" result="effect1_dropShadow"/>
<feBlend mode="normal" in="SourceGraphic" in2="effect1_dropShadow" result="shape"/>
</filter>
<filter id="filter1_d" x="100.215" y="180" width="83.5705" height="83.5705" filterUnits="userSpaceOnUse" color-interpolation-filters="sRGB">
<feFlood flood-opacity="0" result="BackgroundImageFix"/>
<feColorMatrix in="SourceAlpha" type="matrix" values="0 0 0 0 0 0 0 0 0 0 0 0 0 0 0 0 0 0 127 0"/>
<feOffset dy="4"/>
<feGaussianBlur stdDeviation="3.5"/>
<feColorMatrix type="matrix" values="0 0 0 0 0 0 0 0 0 0 0 0 0 0 0 0 0 0 0.25 0"/>
<feBlend mode="normal" in2="BackgroundImageFix" result="effect1_dropShadow"/>
<feBlend mode="normal" in="SourceGraphic" in2="effect1_dropShadow" result="shape"/>
</filter>
<filter id="filter2_d" x="200.429" y="180" width="83.5705" height="83.5705" filterUnits="userSpaceOnUse" color-interpolation-filters="sRGB">
<feFlood flood-opacity="0" result="BackgroundImageFix"/>
<feColorMatrix in="SourceAlpha" type="matrix" values="0 0 0 0 0 0 0 0 0 0 0 0 0 0 0 0 0 0 127 0"/>
<feOffset dy="4"/>
<feGaussianBlur stdDeviation="3.5"/>
<feColorMatrix type="matrix" values="0 0 0 0 0 0 0 0 0 0 0 0 0 0 0 0 0 0 0.25 0"/>
<feBlend mode="normal" in2="BackgroundImageFix" result="effect1_dropShadow"/>
<feBlend mode="normal" in="SourceGraphic" in2="effect1_dropShadow" result="shape"/>
</filter>
<clipPath id="clip0">
<rect width="48.0368" height="48.0368" fill="white" transform="translate(17.7668 193.767)"/>
</clipPath>
</defs>
</svg>
