<svg width="1920" height="850" viewBox="0 0 1920 850" fill="none" xmlns="http://www.w3.org/2000/svg">
<path d="M1920 0H0V850H1920V0Z" fill="#F31D45" fill-opacity="0.88"/>
<path d="M1920 622.249C1598 565.513 1498.67 850.676 1182 813.674C1084.15 802.24 1008 764.78 844 668.375C680 571.971 576.509 573.76 317.333 590.421C58.157 607.082 10.667 486.088 0 466.648V0H1920V622.249Z" fill="#734563"/>
<path fill-rule="evenodd" clip-rule="evenodd" d="M1044.67 815.556C1304.67 850.556 1382.95 855.903 1580.67 810C1848.67 747.778 1920 825.556 1920 825.556V850H0V770V827.242C250.667 757.222 678.152 766.217 1044.67 815.556Z" fill="white"/>
</svg>
