<svg width="602" height="218" viewBox="0 0 602 218" fill="none" xmlns="http://www.w3.org/2000/svg">
<path d="M166.318 42.0103H52.4016V180.531H166.318V42.0103Z" fill="white"/>
<mask id="mask0" mask-type="alpha" maskUnits="userSpaceOnUse" x="18" y="5" width="184" height="208">
<path d="M115.982 7.37121L194.846 52.7543C198.771 55.0129 201.189 59.1868 201.189 63.704V154.47C201.189 158.987 198.771 163.161 194.846 165.42L115.982 210.803C112.057 213.061 107.221 213.061 103.296 210.803L24.4317 165.42C20.5069 163.161 18.089 158.987 18.0889 154.47V63.704C18.089 59.1868 20.5069 55.0129 24.4317 52.7543L103.296 7.37121C107.221 5.11259 112.057 5.11259 115.982 7.37121ZM106.656 100.761H99.0981V124.152H106.656V100.761ZM120.379 103.338H112.821V124.152H120.379V103.338ZM92.9327 124.152V106.114H85.3751V124.152H92.9327ZM133.903 124.152V91.4446H126.345V124.152H133.903C134.102 124.152 134.102 124.152 133.903 124.152ZM121.969 81.7313L125.152 84.5066L115.605 95.211L102.678 83.5154C101.883 82.9208 100.689 82.9208 100.093 83.7136L89.5517 95.4092H88.7562C86.7673 95.4092 85.1762 96.9951 85.1762 98.9774C85.1762 100.96 86.7673 102.545 88.7562 102.545C90.7449 102.545 92.336 100.96 92.336 98.9774C92.336 98.5809 92.336 98.1844 92.1372 97.7879L101.485 87.2818L114.81 98.9774C115.207 99.1756 115.605 99.3738 116.004 99.3738C116.599 99.3738 116.998 99.1755 117.396 98.7791L128.136 86.6871L131.517 89.6605L131.914 79.7491L121.969 81.7313ZM140.267 47.0412H79.0108C75.0331 47.0412 71.851 50.2128 71.851 54.1775V163.996C71.851 167.961 75.0331 171.132 79.0108 171.132H140.267C144.245 171.132 147.428 167.961 147.428 163.996V54.1775C147.428 50.2128 144.245 47.0412 140.267 47.0412ZM115.804 164.195C115.009 164.988 114.015 165.384 112.821 165.384H107.65C105.264 165.384 103.076 163.403 103.275 161.023C103.275 160.033 103.871 159.041 104.468 158.446C105.263 157.653 106.258 157.257 107.451 157.257H112.622C115.009 157.257 117.196 159.239 116.998 161.618C116.799 162.609 116.401 163.403 115.804 164.195ZM140.267 150.715H79.0108V52.7898H140.267V150.715Z" fill="white"/>
</mask>
<g mask="url(#mask0)">
<path d="M202.355 262.457C271.97 221.08 294.874 131.499 253.515 62.373C212.156 -6.75356 122.195 -29.2492 52.5815 12.1275C-17.0321 53.5044 -39.937 143.085 1.42202 212.211C42.781 281.338 132.742 303.834 202.355 262.457Z" fill="#734563"/>
<path opacity="0.54" d="M57.9289 123.053C99.215 98.514 112.799 45.386 88.2702 4.38883C63.7413 -36.6084 10.3877 -49.95 -30.8983 -25.4105C-72.1843 -0.871045 -85.7685 52.2569 -61.2396 93.2542C-36.7106 134.252 16.643 147.593 57.9289 123.053Z" fill="#F67A81"/>
<path opacity="0.54" d="M262.521 261.516C303.806 236.976 317.391 183.849 292.862 142.851C268.333 101.854 214.979 88.5124 173.693 113.052C132.407 137.591 118.823 190.719 143.351 231.717C167.881 272.713 221.235 286.056 262.521 261.516Z" fill="#FFCBC4"/>
</g>
<path d="M243.25 93H231.561V25.4609H243.25V93ZM311.253 93H299.518L269.413 45.0825V93H257.677V25.4609H269.413L299.61 73.564V25.4609H311.253V93ZM364.042 64.3794H336.859V93H325.123V25.4609H368.031V34.9238H336.859V55.0093H364.042V64.3794ZM389.74 93H378.05V25.4609H389.74V93ZM457.743 93H446.007L415.902 45.0825V93H404.166V25.4609H415.902L446.1 73.564V25.4609H457.743V93ZM483.998 93H472.308V25.4609H483.998V93ZM545.831 34.9238H524.771V93H513.128V34.9238H492.254V25.4609H545.831V34.9238ZM594.212 62.8486H566.473V83.6299H598.897V93H554.737V25.4609H598.573V34.9238H566.473V53.5713H594.212V62.8486Z" fill="#734563"/>
<path d="M281.037 175.295C281.037 171.42 279.665 168.433 276.92 166.334C274.215 164.235 269.311 162.116 262.207 159.977C255.103 157.837 249.452 155.456 245.254 152.832C237.221 147.786 233.205 141.207 233.205 133.094C233.205 125.99 236.091 120.137 241.863 115.535C247.676 110.934 255.204 108.633 264.447 108.633C270.583 108.633 276.052 109.763 280.855 112.023C285.659 114.284 289.433 117.513 292.178 121.711C294.923 125.868 296.295 130.49 296.295 135.576H281.037C281.037 130.975 279.584 127.382 276.678 124.799C273.812 122.175 269.695 120.863 264.326 120.863C259.321 120.863 255.426 121.933 252.641 124.072C249.896 126.212 248.523 129.199 248.523 133.033C248.523 136.262 250.017 138.967 253.004 141.146C255.991 143.286 260.915 145.385 267.777 147.443C274.639 149.462 280.149 151.783 284.307 154.406C288.464 156.99 291.512 159.977 293.449 163.367C295.387 166.717 296.355 170.653 296.355 175.174C296.355 182.52 293.53 188.373 287.879 192.732C282.268 197.051 274.639 199.211 264.992 199.211C258.615 199.211 252.742 198.04 247.373 195.699C242.045 193.318 237.887 190.048 234.9 185.891C231.954 181.733 230.48 176.889 230.48 171.359H245.799C245.799 176.365 247.454 180.24 250.764 182.984C254.074 185.729 258.816 187.102 264.992 187.102C270.32 187.102 274.316 186.032 276.98 183.893C279.685 181.713 281.037 178.847 281.037 175.295ZM377.064 169.301C376.176 178.706 372.705 186.052 366.65 191.34C360.596 196.587 352.543 199.211 342.492 199.211C335.469 199.211 329.273 197.556 323.904 194.246C318.576 190.896 314.459 186.153 311.553 180.018C308.646 173.882 307.133 166.758 307.012 158.645V150.41C307.012 142.095 308.485 134.769 311.432 128.432C314.378 122.094 318.596 117.21 324.086 113.779C329.616 110.348 335.993 108.633 343.219 108.633C352.947 108.633 360.777 111.277 366.711 116.564C372.645 121.852 376.096 129.32 377.064 138.967H361.807C361.08 132.63 359.223 128.068 356.236 125.283C353.29 122.458 348.951 121.045 343.219 121.045C336.559 121.045 331.432 123.487 327.84 128.371C324.288 133.215 322.471 140.339 322.391 149.744V157.555C322.391 167.081 324.086 174.346 327.477 179.352C330.908 184.357 335.913 186.859 342.492 186.859C348.507 186.859 353.027 185.507 356.055 182.803C359.082 180.098 360.999 175.598 361.807 169.301H377.064ZM440.154 177.475H406.006L398.861 198H382.938L416.238 109.844H429.982L463.344 198H447.359L440.154 177.475ZM410.305 165.123H435.855L423.08 128.553L410.305 165.123ZM488.713 185.77H528.734V198H473.395V109.844H488.713V185.77ZM592.006 158.645H555.799V185.77H598.121V198H540.48V109.844H597.697V122.195H555.799V146.535H592.006V158.645Z" fill="#4F4F4F"/>
</svg>
