<svg width="503" height="192" viewBox="0 0 503 192" fill="none" xmlns="http://www.w3.org/2000/svg">
<path d="M146 37H46V159H146V37Z" fill="white"/>
<mask id="mask0" mask-type="alpha" maskUnits="userSpaceOnUse" x="15" y="5" width="162" height="183">
<path d="M101.813 6.49193L171.043 46.4624C174.488 48.4516 176.611 52.1277 176.611 56.1061V136.047C176.611 140.025 174.488 143.701 171.043 145.691L101.813 185.661C98.3674 187.65 94.1224 187.65 90.6769 185.661L21.4469 145.691C18.0015 143.701 15.879 140.025 15.8789 136.047V56.1061C15.879 52.1277 18.0015 48.4516 21.4469 46.4624L90.6769 6.49193C94.1224 4.50269 98.3674 4.50269 101.813 6.49193ZM93.626 88.7439H86.9917V109.345H93.626V88.7439ZM105.673 91.0135H99.0383V109.345H105.673V91.0135ZM81.5795 109.345V93.4577H74.9452V109.345H81.5795ZM117.545 109.345V80.5382H110.91V109.345H117.545C117.719 109.345 117.719 109.345 117.545 109.345ZM107.069 71.9834L109.863 74.4277L101.482 83.8554L90.1343 73.5547C89.436 73.031 88.3884 73.031 87.8647 73.7293L78.6115 84.03H77.9132C76.1673 84.03 74.7706 85.4267 74.7706 87.1726C74.7706 88.9184 76.1673 90.3151 77.9132 90.3151C79.659 90.3151 81.0557 88.9184 81.0557 87.1726C81.0557 86.8234 81.0557 86.4742 80.8812 86.125L89.0868 76.8719L100.784 87.1726C101.133 87.3472 101.482 87.5217 101.832 87.5217C102.355 87.5217 102.705 87.3471 103.054 86.998L112.482 76.3481L115.45 78.9669L115.799 70.2376L107.069 71.9834ZM123.131 41.4306H69.3584C65.8666 41.4306 63.0732 44.224 63.0732 47.7158V144.437C63.0732 147.929 65.8666 150.722 69.3584 150.722H123.131C126.623 150.722 129.417 147.929 129.417 144.437V47.7158C129.417 44.224 126.623 41.4306 123.131 41.4306ZM101.657 144.612C100.959 145.31 100.086 145.659 99.0383 145.659H94.499C92.404 145.659 90.4835 143.914 90.6581 141.818C90.6581 140.946 91.1818 140.073 91.7056 139.549C92.4039 138.85 93.2769 138.501 94.3244 138.501H98.8637C100.959 138.501 102.879 140.247 102.705 142.342C102.53 143.215 102.181 143.914 101.657 144.612ZM123.131 132.74H69.3584V46.4936H123.131V132.74Z" fill="white"/>
</mask>
<g mask="url(#mask0)">
<path d="M177.635 231.155C238.745 194.713 258.851 115.816 222.545 54.9343C186.238 -5.94783 107.267 -25.7605 46.158 10.6814C-14.9513 47.1234 -35.0581 126.02 1.24837 186.902C37.5548 247.784 116.526 267.597 177.635 231.155Z" fill="#ED5876"/>
<path d="M50.8521 108.377C87.0945 86.7647 99.0192 39.9731 77.4868 3.86547C55.9544 -32.2422 9.11874 -43.9926 -27.1236 -22.3798C-63.366 -0.767081 -75.2907 46.0245 -53.7583 82.1322C-32.2259 118.24 14.6098 129.99 50.8521 108.377Z" fill="#F67A81"/>
<path d="M230.45 230.326C266.692 208.713 278.617 161.922 257.085 125.814C235.552 89.7064 188.716 77.9559 152.474 99.5687C116.232 121.181 104.307 167.973 125.839 204.081C147.372 240.188 194.208 251.939 230.45 230.326Z" fill="#FFCBC4"/>
</g>
<path d="M203.295 157.727L201.619 159.531V164H198.396V148.359H201.619V155.449L203.037 153.505L207.022 148.359H210.986L205.433 155.31L211.147 164H207.312L203.295 157.727ZM225.08 164H221.857L215.584 153.709V164H212.361V148.359H215.584L221.868 158.672V148.359H225.08V164ZM240.742 156.534C240.742 158.074 240.47 159.424 239.926 160.584C239.382 161.744 238.601 162.639 237.584 163.27C236.574 163.9 235.414 164.215 234.104 164.215C232.807 164.215 231.651 163.903 230.634 163.28C229.617 162.657 228.829 161.769 228.271 160.616C227.712 159.456 227.429 158.124 227.422 156.62V155.847C227.422 154.307 227.698 152.953 228.249 151.786C228.808 150.612 229.592 149.713 230.602 149.09C231.618 148.46 232.779 148.145 234.082 148.145C235.385 148.145 236.542 148.46 237.552 149.09C238.569 149.713 239.353 150.612 239.904 151.786C240.463 152.953 240.742 154.303 240.742 155.836V156.534ZM237.477 155.825C237.477 154.185 237.183 152.939 236.596 152.087C236.008 151.235 235.171 150.809 234.082 150.809C233.001 150.809 232.166 151.231 231.579 152.076C230.992 152.914 230.695 154.146 230.688 155.771V156.534C230.688 158.131 230.981 159.37 231.568 160.251C232.156 161.132 233.001 161.572 234.104 161.572C235.185 161.572 236.016 161.15 236.596 160.305C237.176 159.452 237.469 158.214 237.477 156.588V155.825ZM255.266 159.488L257.371 148.359H260.583L257.113 164H253.869L251.323 153.537L248.777 164H245.533L242.063 148.359H245.275L247.392 159.467L249.97 148.359H252.698L255.266 159.488ZM273.205 155.406L276.46 148.359H279.983L274.849 158.328V164H271.572V158.328L266.438 148.359H269.972L273.205 155.406ZM293.938 156.534C293.938 158.074 293.665 159.424 293.121 160.584C292.577 161.744 291.796 162.639 290.779 163.27C289.77 163.9 288.609 164.215 287.299 164.215C286.003 164.215 284.846 163.903 283.829 163.28C282.812 162.657 282.024 161.769 281.466 160.616C280.907 159.456 280.624 158.124 280.617 156.62V155.847C280.617 154.307 280.893 152.953 281.444 151.786C282.003 150.612 282.787 149.713 283.797 149.09C284.814 148.46 285.974 148.145 287.277 148.145C288.581 148.145 289.737 148.46 290.747 149.09C291.764 149.713 292.548 150.612 293.1 151.786C293.658 152.953 293.938 154.303 293.938 155.836V156.534ZM290.672 155.825C290.672 154.185 290.378 152.939 289.791 152.087C289.204 151.235 288.366 150.809 287.277 150.809C286.196 150.809 285.362 151.231 284.774 152.076C284.187 152.914 283.89 154.146 283.883 155.771V156.534C283.883 158.131 284.176 159.37 284.764 160.251C285.351 161.132 286.196 161.572 287.299 161.572C288.38 161.572 289.211 161.15 289.791 160.305C290.371 159.452 290.665 158.214 290.672 156.588V155.825ZM308.117 148.359V158.661C308.117 160.373 307.58 161.726 306.506 162.722C305.439 163.717 303.978 164.215 302.123 164.215C300.297 164.215 298.847 163.731 297.772 162.765C296.698 161.798 296.15 160.469 296.129 158.779V148.359H299.352V158.683C299.352 159.707 299.595 160.455 300.082 160.928C300.576 161.393 301.257 161.626 302.123 161.626C303.935 161.626 304.855 160.674 304.884 158.769V148.359H308.117ZM316.55 158.274H313.982V164H310.76V148.359H316.571C318.419 148.359 319.844 148.771 320.847 149.595C321.849 150.418 322.351 151.582 322.351 153.086C322.351 154.153 322.118 155.045 321.652 155.761C321.194 156.47 320.496 157.035 319.558 157.458L322.941 163.85V164H319.482L316.55 158.274ZM313.982 155.664H316.582C317.391 155.664 318.018 155.46 318.462 155.052C318.906 154.636 319.128 154.067 319.128 153.344C319.128 152.606 318.917 152.026 318.494 151.604C318.079 151.181 317.438 150.97 316.571 150.97H313.982V155.664ZM338.399 159.896C338.399 159.288 338.185 158.822 337.755 158.5C337.325 158.171 336.552 157.827 335.435 157.469C334.317 157.104 333.433 156.745 332.781 156.395C331.005 155.435 330.117 154.142 330.117 152.517C330.117 151.672 330.354 150.92 330.826 150.261C331.306 149.595 331.99 149.076 332.878 148.703C333.773 148.331 334.776 148.145 335.886 148.145C337.003 148.145 337.998 148.349 338.872 148.757C339.746 149.158 340.423 149.727 340.902 150.465C341.389 151.202 341.633 152.04 341.633 152.979H338.41C338.41 152.262 338.185 151.707 337.733 151.313C337.282 150.912 336.648 150.712 335.832 150.712C335.044 150.712 334.432 150.88 333.995 151.217C333.558 151.546 333.34 151.983 333.34 152.527C333.34 153.036 333.594 153.462 334.103 153.806C334.618 154.149 335.374 154.472 336.369 154.772C338.202 155.324 339.538 156.008 340.376 156.824C341.214 157.641 341.633 158.658 341.633 159.875C341.633 161.229 341.121 162.292 340.097 163.065C339.073 163.832 337.694 164.215 335.961 164.215C334.758 164.215 333.662 163.996 332.674 163.56C331.686 163.116 330.93 162.51 330.407 161.744C329.892 160.978 329.634 160.09 329.634 159.08H332.867C332.867 160.806 333.898 161.669 335.961 161.669C336.727 161.669 337.325 161.515 337.755 161.207C338.185 160.892 338.399 160.455 338.399 159.896ZM355.598 150.97H350.807V164H347.584V150.97H342.857V148.359H355.598V150.97ZM369.283 148.359V158.661C369.283 160.373 368.746 161.726 367.672 162.722C366.605 163.717 365.144 164.215 363.289 164.215C361.463 164.215 360.013 163.731 358.938 162.765C357.864 161.798 357.316 160.469 357.295 158.779V148.359H360.518V158.683C360.518 159.707 360.761 160.455 361.248 160.928C361.742 161.393 362.423 161.626 363.289 161.626C365.101 161.626 366.021 160.674 366.05 158.769V148.359H369.283ZM371.926 164V148.359H376.738C378.113 148.359 379.341 148.671 380.423 149.294C381.511 149.91 382.36 150.791 382.969 151.937C383.577 153.075 383.882 154.371 383.882 155.825V156.545C383.882 157.999 383.581 159.291 382.979 160.423C382.385 161.554 381.544 162.432 380.455 163.055C379.367 163.678 378.138 163.993 376.771 164H371.926ZM375.148 150.97V161.411H376.706C377.966 161.411 378.93 160.999 379.596 160.176C380.262 159.352 380.602 158.174 380.616 156.642V155.814C380.616 154.225 380.287 153.021 379.628 152.205C378.969 151.382 378.006 150.97 376.738 150.97H375.148ZM395.645 157.222H389.457V161.411H396.719V164H386.234V148.359H396.697V150.97H389.457V154.697H395.645V157.222ZM411.328 164H408.105L401.832 153.709V164H398.609V148.359H401.832L408.116 158.672V148.359H411.328V164ZM425.594 150.97H420.803V164H417.58V150.97H412.854V148.359H425.594V150.97Z" fill="white"/>
<path d="M225.31 92.5376L214.433 104.073V134H197.756V38.0234H214.433V83.0454L223.662 71.6416L251.743 38.0234H271.914L236.252 80.5405L273.957 134H254.182L225.31 92.5376ZM314.233 83.5068L336.315 38.0234H354.772L322.604 98.668V134H305.861V98.668L273.627 38.0234H292.15L314.233 83.5068ZM414.296 109.281C414.296 105.062 412.802 101.81 409.814 99.5249C406.87 97.2397 401.53 94.9326 393.796 92.6035C386.062 90.2744 379.909 87.6816 375.339 84.8252C366.594 79.332 362.221 72.1689 362.221 63.3359C362.221 55.6016 365.363 49.2295 371.647 44.2197C377.976 39.21 386.171 36.7051 396.235 36.7051C402.915 36.7051 408.869 37.9355 414.099 40.3965C419.328 42.8574 423.437 46.373 426.425 50.9434C429.414 55.4697 430.908 60.5015 430.908 66.0386H414.296C414.296 61.0288 412.714 57.1177 409.55 54.3052C406.43 51.4487 401.948 50.0205 396.103 50.0205C390.654 50.0205 386.413 51.1851 383.381 53.5142C380.393 55.8433 378.898 59.0952 378.898 63.27C378.898 66.7856 380.524 69.73 383.776 72.103C387.028 74.4321 392.39 76.7173 399.86 78.9585C407.331 81.1558 413.33 83.6826 417.856 86.5391C422.382 89.3516 425.7 92.6035 427.81 96.2949C429.919 99.9424 430.974 104.227 430.974 109.149C430.974 117.147 427.897 123.519 421.745 128.265C415.637 132.967 407.331 135.318 396.828 135.318C389.885 135.318 383.491 134.044 377.646 131.495C371.845 128.902 367.319 125.343 364.067 120.816C360.859 116.29 359.255 111.017 359.255 104.996H375.932C375.932 110.445 377.734 114.664 381.337 117.652C384.941 120.641 390.104 122.135 396.828 122.135C402.629 122.135 406.979 120.97 409.88 118.641C412.824 116.268 414.296 113.148 414.296 109.281Z" fill="white"/>
</svg>
