<svg width="811" height="603" viewBox="0 0 811 603" fill="none" xmlns="http://www.w3.org/2000/svg">
<path opacity="0.65" d="M279 455.224C395.532 455.224 490 449.404 490 442.224C490 435.045 395.532 429.224 279 429.224C162.468 429.224 68 435.045 68 442.224C68 449.404 162.468 455.224 279 455.224Z" fill="#727272"/>
<path d="M574.099 0H232.93V243.383H574.099V0Z" fill="#EFEFEF"/>
<path d="M232.93 0V243.383H574.099V0H232.93ZM560.292 228.754H246.728V14.9468H560.292V228.754Z" fill="#A7A7A7"/>
<path d="M194.45 72.011C187.605 71.1804 182.643 68.158 177.746 63.4265C179.142 76.5641 174.993 90.1324 174.993 90.1324C174.993 90.1324 175.65 133.19 193.154 128.015C210.657 122.839 199.403 94.816 199.403 94.816C195.35 88.3668 194.502 78.6472 194.45 72.011Z" fill="#F7936A"/>
<path d="M185.767 27.7016C185.767 27.7016 205.802 25.5838 209.464 33.6725C213.125 41.7612 208.885 52.6027 210.042 56.26C211.199 59.9173 210.62 82.9874 204.071 83.5615C197.522 84.1399 176.909 69.3106 176.33 51.9678C175.752 34.6379 180.758 27.9451 185.767 27.7016Z" fill="#FFBB9A"/>
<path d="M202.174 76.4858C202.27 76.4771 202.366 76.4596 202.461 76.4509C203.114 76.4639 203.692 76.4814 204.279 76.5032C204.483 76.0205 204.657 75.5377 204.879 75.0506C205.275 74.1635 205.662 73.2763 206.062 72.3892C206.645 70.7019 207.141 69.0015 207.602 67.2968C206.667 67.1925 205.736 67.0315 204.818 66.8271C202.257 68.0578 199.691 69.2798 197.125 70.5149C196.63 70.7497 196.13 70.9671 195.634 71.2019C197.917 72.8675 200.117 74.6158 202.174 76.4858Z" fill="white"/>
<path d="M285.9 125.914C285.9 125.914 292.624 120.778 293.68 119.335C294.741 117.891 299.316 107.323 301.908 102.435C304.5 97.5516 318.16 92.1548 319.273 95.6338C320.386 99.1128 314.663 99.8739 308.614 104.014C308.614 104.014 309.249 104.844 309.866 104.888C310.484 104.927 319.947 117.547 313.05 122.048C306.153 126.545 297.146 126.884 291.162 132.133C291.158 132.133 286.361 129.385 285.9 125.914Z" fill="#FFBB9A"/>
<path d="M185.419 419.461C185.419 419.461 183.005 433.886 184.501 437.873C185.649 440.931 229.08 441.379 231.524 438.717C233.964 436.06 229.894 431.433 227.758 430.363C225.623 429.293 203.444 419.574 203.444 419.574L185.419 419.461Z" fill="black"/>
<path d="M157.838 422.208H139.295C139.295 422.208 129.511 435.498 129.658 438.855C129.806 442.213 144.696 448.492 148.058 448.492C151.42 448.492 163.392 440.46 163.244 438.999C163.096 437.538 157.838 422.208 157.838 422.208Z" fill="black"/>
<path d="M210.581 47.7629C210.581 47.7629 217.408 44.7709 215.869 37.0693C214.329 29.3676 210.472 24.5492 199.109 21.3703C187.745 18.1957 177.339 19.2351 175.943 28.6849C175.943 28.6849 181.287 45.1624 194.486 44.3927C207.68 43.6186 211.703 43.6186 210.581 47.7629Z" fill="#141C1E"/>
<path d="M210.523 65.2189C210.523 65.2189 208.597 63.1967 204.069 63.1445C196.642 63.0662 192.493 70.2678 191.806 70.2765C187.161 70.3331 182.108 59.7742 182.108 59.7742C177.438 56.6953 178.929 52.4074 181.434 51.2985C183.939 50.1939 185.239 53.9469 185.622 56.0691C186.009 58.187 187.435 59.5525 188.657 57.7564C189.879 55.9604 187.118 57.4694 188.944 47.6455C190.775 37.8173 183.935 33.8686 183.935 33.8686L176.281 25.3972C158.416 33.2902 170.11 61.8225 174.994 68.2544C184.291 80.4962 198.46 92.1378 206.957 86.7149C212.189 83.375 210.523 65.2189 210.523 65.2189ZM199.59 70.5636C199.59 70.5636 203.778 70.6113 206.092 69.311C206.092 69.311 203.922 75.3777 199.59 70.5636Z" fill="#141C1E"/>
<path d="M212.716 193.368L160.069 192.373C160.069 192.373 152.063 205.502 150.272 243.379C149.045 269.315 147.984 276.495 145.405 310.777C143.657 334.056 135.399 423.249 135.399 423.249H163.379C163.379 423.249 175.225 321.461 175.829 315.912C176.042 313.956 182.97 259.461 182.97 259.461C182.97 259.461 181.839 308.885 181.839 314.556C181.839 320.226 180.613 420.374 180.613 420.374H210.085C210.085 420.374 213.398 335.221 213.677 315.73C214.125 284.179 216.821 203.553 212.716 193.368Z" fill="#4C555A"/>
<path d="M223.776 96.4338L213.456 135.738C213.456 135.738 232.521 171.233 242.132 171.724C251.747 172.216 297.513 131.789 297.513 131.789L289.799 118.617C289.799 118.617 250.186 148.306 247.964 147.567C245.746 146.832 230.582 97.7733 223.776 96.4338Z" fill="#1370B6"/>
<path d="M175.172 89.0237C175.172 89.0237 150.728 92.3504 144.813 95.5555C144.813 95.5555 161.434 122.183 156.259 139.317C156.259 139.317 151.637 198.121 152.024 210.941C152.024 210.941 182.739 222.335 217.651 211.394C217.651 211.394 217.099 146.584 217.12 136.56C217.12 136.56 220.121 109.624 223.765 96.4339C223.765 96.4339 210.832 93.6812 197.581 91.2285C197.581 91.2285 198.664 92.5897 193.05 99.7478C189.684 104.044 176.172 97.7734 175.172 89.0237Z" fill="#1370B6"/>
<path d="M217.127 136.56C217.127 136.56 217.857 130.002 219.036 121.787C214.67 126.353 214.039 146.306 213.452 149.619C210.773 164.801 190.877 170.289 177.988 162.131C165.968 154.52 164.541 135.425 161.68 122.983C160.153 116.36 155.909 111.228 150.643 106.719C154.848 116.012 159.297 129.28 156.266 139.317C156.266 139.317 151.643 198.121 152.03 210.941C152.03 210.941 182.745 222.335 217.657 211.393C217.657 211.393 217.105 146.584 217.127 136.56Z" fill="#004D7D"/>
<path d="M153.054 231.385C154.872 233.616 160.943 240.878 159.955 244.079C158.968 247.284 153.915 241.491 152.067 239.521C150.219 237.547 149.975 244.201 150.466 247.775C150.958 251.35 158.229 257.269 157.49 259.73C156.75 262.196 152.558 258.743 148.04 252.089C148.04 252.089 155.189 260.309 153.545 261.457C151.901 262.609 147.875 258.417 144.669 253.568C144.669 253.568 151.571 261.335 149.845 262.257C148.122 263.183 143.374 257.76 141.586 254.986C141.586 254.986 147.457 261.361 145.839 262.405C144.543 263.244 140.295 259.421 138.629 254.368C136.968 249.315 141.895 232.798 141.647 229.654C141.399 226.51 140.395 222.587 140.395 222.587C140.395 222.587 150.532 220.3 150.584 220.287C150.392 220.339 150.345 228.058 153.054 231.385Z" fill="#FFBB9A"/>
<path d="M153.181 225.961L139.13 229.662C139.13 229.662 122.788 175.929 125.253 163.109C127.719 150.289 133.725 102.213 144.819 95.5593C144.819 95.5593 158.952 99.6385 159.8 117.007C160.278 126.853 156.264 139.321 156.264 139.321C156.264 139.321 147.415 156.268 146.28 168.119C145.336 177.973 153.181 225.961 153.181 225.961Z" fill="#1370B6"/>
<path d="M196.781 89.0237L191.759 98.6388L175.555 86.2622L170.624 89.9805L186.096 111.255L192.498 100.813L201.243 107.454L201.569 91.9765L196.781 89.0237Z" fill="#F8F8F8"/>
<path d="M263.819 162.666C263.819 162.666 350.616 50.407 352.142 49.92C353.668 49.4329 269.607 167.993 269.607 167.993C269.607 167.993 267.98 169.633 264.954 167.398C263.475 166.31 262.784 164.114 263.819 162.666Z" fill="#141C1E"/>
<path d="M314.926 108.741C314.926 108.741 309.107 110.867 306.041 111.041C303.114 111.207 303.819 108.288 305.772 107.236C307.794 106.14 315.152 102.683 317.07 103.609C318.987 104.54 318.253 107.984 317.118 108.41C317.118 108.41 319.853 109.858 318.048 112.681C318.048 112.681 319.457 115.768 317.7 117.169C317.7 117.169 318.557 120.739 316.239 121.5C313.921 122.261 307.646 122.579 306.841 120.952C305.867 118.991 308.977 118.021 315.152 117.425C315.152 117.425 308.494 118.586 307.363 118.452C305.793 118.273 301.684 114.825 314.995 113.433C314.995 113.433 304.363 116.429 303.884 113.742C303.271 110.328 314.926 108.741 314.926 108.741Z" fill="#FFBB9A"/>
<path d="M585.402 274.162L585.484 280.574C585.484 280.574 613.18 282.286 620.954 279.652C628.73 277.02 645.118 255.781 646.518 252.222C648.204 247.944 641.79 237.544 635.442 247.022C629.093 256.5 617.586 269.255 616.939 269.649C616.291 270.046 585.402 274.162 585.402 274.162Z" fill="#AD5C49"/>
<path d="M591.263 277.522C591.263 277.522 588.589 276.691 588.034 276.631C587.48 276.574 581.231 273.541 580.324 273.877C579.415 274.211 570.878 277.263 570.863 278.038C570.847 278.814 573.037 278.586 577.704 276.533C577.704 276.533 571.656 278.73 572.441 279.505C573.226 280.281 578.715 277.68 578.715 277.68C578.715 277.68 573.229 279.793 574.151 280.497C575.074 281.203 580.166 278.526 580.166 278.526C580.166 278.526 576.209 280.519 576.528 280.958C576.849 281.397 579.093 280.946 581.804 279.625C581.804 279.625 582.263 279.503 583.297 280.103C584.328 280.706 591.864 280.569 591.864 280.569L591.263 277.522Z" fill="#F7936A"/>
<path d="M566.6 279.405L575.902 264.456C575.902 264.456 578.119 263.22 578.133 265.784L567.398 279.992C567.398 279.992 564.922 282.888 566.6 279.405Z" fill="black"/>
<path d="M588.288 275.17C588.288 275.17 585.34 275.178 584.722 275.1C584.106 275.022 576.647 269.319 575.704 269.847C574.763 270.372 565.908 275.197 566.018 276.382C566.127 277.566 568.487 277.167 573.268 273.946C573.268 273.946 567 277.418 567.988 278.586C568.975 279.751 574.563 275.676 574.563 275.676C574.563 275.676 568.897 279.005 570.022 280.06C571.148 281.115 576.291 276.933 576.291 276.933C576.291 276.933 572.281 280.05 572.702 280.709C573.123 281.368 575.509 280.639 578.266 278.572C578.266 278.572 579.394 278.801 580.486 279.869C582.739 282.076 589.441 280.693 589.441 280.693L588.288 275.17Z" fill="#FFBB9A"/>
<path d="M639.981 230.956C640.94 230.753 645.534 220.854 647.501 218.924C648.444 225.689 652.446 241.722 652.446 241.722C647.589 247.044 637.906 243.784 637.906 243.784C639.493 240.266 640.257 233.255 639.981 230.956Z" fill="#F7936A"/>
<path d="M644.307 206.152C644.307 206.152 635.521 208.179 633.84 210.805C632.155 213.434 632.163 220.273 631.234 222.077C630.67 223.172 630.166 224.055 629.884 224.698C629.637 225.259 630.259 225.589 631.024 225.867C631.414 226.011 631.717 226.335 631.845 226.738C632.363 228.392 633.816 232.613 635.269 233.198C637.081 233.931 646.028 233.648 648.719 225.651C651.41 217.655 649.933 204.438 644.307 206.152Z" fill="#FFBB9A"/>
<path d="M604.395 367.759L610.441 366.743C610.441 366.743 610.749 372.591 611.25 373.931C611.25 373.931 604.469 377.236 597.519 374.622C597.519 374.622 601.947 372.677 603.112 371.299C604.274 369.917 604.395 367.759 604.395 367.759Z" fill="#FFBB9A"/>
<path d="M611.062 371.589C611.062 371.589 606.346 374.915 599.025 374.377C599.025 374.377 590.121 379.205 589.546 380.417C588.742 382.111 592.643 382.217 598.731 382.015C603.926 381.844 603.545 381.448 604.585 380.414C605.626 379.381 606.926 378.233 606.926 378.233C606.926 378.233 607.404 378.883 607.94 381.892L610.261 381.551C610.261 381.551 609.99 378.662 611.109 377.123C611.897 376.034 612.799 373.514 611.062 371.589Z" fill="black"/>
<path d="M630.068 367.211L634.526 365.935C634.526 365.935 637.142 370.509 637.906 371.708C637.906 371.708 632.154 376.481 624.982 375.494C624.982 375.494 628.788 372.586 629.6 370.97C630.412 369.353 630.068 367.211 630.068 367.211Z" fill="#FFBB9A"/>
<path d="M638.188 369.166C638.188 369.166 633.497 373.165 625.662 373.327C625.662 373.327 616.662 379.339 616.171 380.681C615.481 382.557 619.639 382.279 626.091 381.459C631.595 380.758 631.152 380.378 632.159 379.177C633.166 377.976 634.437 376.631 634.437 376.631C634.437 376.631 635.01 377.272 635.871 380.412L638.306 379.818C638.306 379.818 637.736 376.778 638.777 375.033C639.509 373.804 640.225 371.039 638.188 369.166Z" fill="black"/>
<path d="M652.084 278.698L639.426 287.555C639.426 287.555 598.366 295.377 593.158 299.241C587.948 303.105 626.306 371.589 626.306 371.589L638.249 367.669C638.249 367.669 609.592 307.034 612.199 304.457C614.803 301.882 657.026 298.072 659.684 297.282C662.288 296.508 658.575 287.259 652.084 278.698Z" fill="#DEDFE1"/>
<path d="M652.084 278.698L639.426 287.555C639.426 287.555 598.366 295.377 593.158 299.241C587.948 303.105 626.306 371.589 626.306 371.589L638.249 367.669C638.249 367.669 609.592 307.034 612.199 304.457C614.803 301.882 657.026 298.072 659.684 297.282C662.288 296.508 658.575 287.259 652.084 278.698Z" fill="#5DD4E2"/>
<path d="M655.374 282.737L639.151 284.113C639.151 284.113 596.464 293.606 591.238 298.524C586.574 302.917 599.91 370.782 599.91 370.782L612.617 367.546C612.617 367.546 605.454 306.949 608.569 305.111C611.258 303.526 654.894 303.526 657.618 303.526C661.551 303.526 664.328 291.835 655.374 282.737Z" fill="#43ACB8"/>
<path d="M651.217 237.581C651.217 237.581 644.494 240.639 638.234 242.507C638.234 242.507 630.6 257.579 630.083 261.785C629.57 265.991 625.652 287.958 625.652 287.958C625.652 287.958 649.923 296.399 660.819 291.015C660.819 291.015 657.401 274.066 658.606 265.152C659.805 256.232 658.765 244.191 651.217 237.581Z" fill="#AD5C49"/>
<path d="M648.291 263.224C648.264 270.769 643.413 274.461 638.422 279.339C635.472 282.222 631.724 285.139 630.019 289.356C627.344 288.571 625.649 287.958 625.649 287.958C625.649 287.958 628.026 276.653 629.18 268.406C634.187 266.168 636.844 261.379 638.632 256.286C639.667 253.336 640.229 251.43 642.101 249.235C647.643 249.389 647.979 255.872 648.294 261.93C648.294 262.366 648.294 262.802 648.291 263.224Z" fill="#993821"/>
<path d="M685.335 242.905L668.953 308.396L662.174 306.7L676.262 240.635L685.335 242.905Z" fill="#A7A7A7"/>
<path d="M613.298 310.303H610.585V381.778H613.298V310.303Z" fill="#B6B6B6"/>
<path d="M663.53 310.303H660.817V381.778H663.53V310.303Z" fill="#B6B6B6"/>
<path d="M670.809 303.718H603.303V313.07H670.809V303.718Z" fill="#48525B"/>
<path d="M636.313 214.294C638.593 214.362 640.481 215.139 641.707 217.37C642.276 218.411 642.657 219.791 642.425 221.016C642.3 221.672 640.659 224.382 642.338 224.602C643.122 224.707 643.707 223.039 644.112 222.563C645.191 221.279 646.439 221.683 647.218 223.044C648.176 224.721 647.162 225.918 645.957 227.027C644.239 228.611 645.162 229.028 645.577 231.192C646.098 233.901 644.782 236.667 646.75 238.852C648.181 240.439 649.811 240.964 651.944 240.644C654.309 240.291 656.828 239.882 658.022 237.63C660.389 233.158 657.421 229.768 656.016 225.501C654.415 220.639 655.977 213.154 652.248 209.287C650.354 207.323 647.564 206.379 644.976 206.091C642.364 205.8 640.095 206.26 637.555 206.718C635.59 207.073 633.837 207.92 631.89 208.273C630.574 208.512 630.119 208.041 629.85 209.446C629.717 210.137 630.239 211.709 630.571 212.301C631.659 214.219 633.938 214.305 635.888 214.289C636.031 214.289 636.172 214.292 636.313 214.294Z" fill="#141C1E"/>
<path d="M617.76 281.361H615.423V384.569H617.76V281.361Z" fill="#7695A8"/>
<path d="M541.337 281.362H539V384.57H541.337V281.362Z" fill="#7695A8"/>
<path d="M617.759 281.358H539V284.096H617.759V281.358Z" fill="#7695A8"/>
<path d="M586.21 272.42L586.293 280.779C586.293 280.779 614.719 282.118 622.698 279.497C630.676 276.877 647.495 255.728 648.935 252.184C650.663 247.924 644.08 237.568 637.565 247.006C631.05 256.444 619.242 269.144 618.578 269.537C617.913 269.93 586.21 272.42 586.21 272.42Z" fill="#AD5C49"/>
<path d="M730.251 409.744C730.251 409.744 720.798 414.629 715.732 416.825C711.522 418.653 712.395 422.678 717.181 424.166C721.968 425.652 725.911 424.677 727.001 423.082C728.089 421.491 730.768 422.084 731.782 422.595C732.796 423.108 740.78 421.177 741.232 419.235C741.683 417.293 739.701 408.746 739.701 408.746L730.251 409.744Z" fill="black"/>
<path d="M778.374 323.124L762.612 323.331C762.612 323.331 724.05 337.86 719.012 341.673C713.974 345.488 727.291 411.977 727.291 411.977L740.377 410.592C740.377 410.592 737.29 351.103 739.809 348.56C742.327 346.019 783.15 342.255 785.722 341.476C788.238 340.711 784.647 331.574 778.374 323.124Z" fill="#AD5C49"/>
<path d="M778.374 323.124L762.612 323.331C762.612 323.331 724.05 337.86 719.012 341.673C713.974 345.488 727.291 411.977 727.291 411.977L740.377 410.592C740.377 410.592 737.29 351.103 739.809 348.56C742.327 346.019 783.15 342.255 785.722 341.476C788.238 340.711 784.647 331.574 778.374 323.124Z" fill="#993821"/>
<path d="M810.941 287.995L794.806 352.492L788.129 350.822L802.005 285.761L810.941 287.995Z" fill="#A7A7A7"/>
<path d="M739.992 354.369H737.319V424.766H739.992V354.369Z" fill="#B6B6B6"/>
<path d="M789.465 354.369H786.792V424.765H789.465V354.369Z" fill="#B6B6B6"/>
<path d="M796.634 347.886H730.15V357.098H796.634V347.886Z" fill="#48525B"/>
<path d="M774.911 259.312L765.531 261.235C765.531 261.235 768.229 272.314 765.531 278.418C765.531 278.418 770.644 280.347 779.263 274.076C779.263 274.073 773.954 269.76 774.911 259.312Z" fill="#F7936A"/>
<path d="M775.562 247.393C775.562 247.393 765.41 243.725 762.686 245.067C759.965 246.407 756.654 248.382 757.168 250.359C757.682 252.334 758.069 258.17 757.407 260.003C756.745 261.838 755.604 263.108 755.881 263.743C756.158 264.376 757.757 263.878 758.199 264.657C758.64 265.437 761.012 270.569 762.393 271.309C763.771 272.05 771.645 269.389 775.287 261.188C778.926 252.984 777.823 248.787 775.562 247.393Z" fill="#FFBB9A"/>
<path d="M718.617 411.169C718.617 411.169 706.295 415.36 701.219 417.353C696.998 419.006 697.834 422.75 702.595 424.176C707.357 425.6 711.304 424.729 712.406 423.263C713.508 421.798 716.176 422.372 717.183 422.856C718.191 423.343 726.18 421.626 726.646 419.829C727.113 418.033 725.979 412.775 725.979 412.775L718.617 411.169Z" fill="black"/>
<path d="M781.154 253.179C780.916 252.213 780.4 251.211 780.298 250.207C780.192 249.205 781.189 241.673 772.014 242.609C771.55 242.655 771.118 242.65 770.697 242.551C769.193 242.199 767.873 241.012 766.277 240.797C761.185 240.12 758.104 245.092 753.425 245.332C753.271 246.656 754.916 248.757 755.731 249.797C756.724 251.058 758.323 251.896 759.805 252.374C761.439 252.9 763.623 252.969 765.383 252.783C766.32 252.687 768.013 251.609 768.823 252.406C769.654 253.225 769.006 256.347 769.077 257.42C769.131 258.206 768.998 258.861 769.873 259.191C769.962 259.226 770.043 259.243 770.122 259.248C770.197 259.24 770.273 259.229 770.348 259.224C771.272 258.937 771.083 256.29 771.326 255.518C772.174 252.794 775.384 253.13 775.789 255.78C776.137 258.047 773.977 259.609 773.348 260.012C773.272 260.4 773.216 260.766 773.181 261.115C772.951 263.347 775.343 264.887 777.29 263.803C778.859 262.93 780.063 261.786 781.056 259.737C782.072 257.652 781.675 255.316 781.154 253.179Z" fill="#141C1E"/>
<path d="M783.29 321.509L765.46 325.034C765.46 325.034 724.951 339.557 719.848 343.353C714.746 347.152 713.835 412.315 713.835 412.315L727.132 413.592C727.132 413.592 732.824 351.648 735.937 349.84C738.621 348.278 782.203 348.278 784.922 348.278C788.852 348.278 792.235 330.466 783.29 321.509Z" fill="#AD5C49"/>
<path d="M710.604 315.731L712.208 323.932C712.208 323.932 746.328 318.072 750.005 315.366C753.682 312.659 775.708 288.977 772.479 282.382C769.247 275.787 765.056 277.411 762.423 281.155C759.791 284.9 747.684 303.966 745.888 305.839C744.093 307.712 710.604 315.731 710.604 315.731Z" fill="#1370B6"/>
<path d="M778.53 273.953C778.53 273.953 769.629 278.46 764.598 278.175C764.598 278.175 756.453 295.293 755.904 299.875C755.353 304.455 749.152 329.422 749.152 329.422C749.152 329.422 776.204 338.772 788.735 331.391C788.735 331.391 785.032 313.245 786.314 303.538C787.597 293.83 786.581 281.149 778.53 273.953Z" fill="#1370B6"/>
<path d="M774.719 305.775C776.687 301.236 784.394 293.922 780.516 288.821C777.397 284.723 775.16 284.44 771.734 288.347C768.523 292.007 765.587 295.949 761.938 299.184C760.023 300.881 757.875 302.247 755.78 303.691C755.78 313.103 749.151 329.423 749.151 329.423C749.151 329.423 763.153 333.905 770.803 334.018C766.705 325.083 770.586 315.305 774.719 305.775Z" fill="#004D7D"/>
<path d="M720.48 318.345C720.48 318.345 717.703 319.502 717.127 319.442C716.551 319.385 710.063 316.352 709.121 316.688C708.176 317.022 699.312 320.074 699.296 320.849C699.277 321.625 701.553 321.394 706.4 319.341C706.4 319.341 700.119 321.541 700.934 322.316C701.75 323.092 707.45 320.489 707.45 320.489C707.45 320.489 701.753 322.602 702.711 323.308C703.669 324.014 708.957 321.337 708.957 321.337C708.957 321.337 704.847 323.33 705.178 323.769C705.512 324.208 707.843 323.757 710.658 322.436C710.658 322.436 711.134 322.312 712.208 322.914C713.279 323.517 721.105 321.392 721.105 321.392L720.48 318.345Z" fill="#F7936A"/>
<path d="M694.959 322.079L703.495 305.72C703.495 305.72 705.633 304.303 705.758 307.041L695.774 322.674C695.771 322.671 693.45 325.868 694.959 322.079Z" fill="black"/>
<path d="M716.458 317.942C716.458 317.942 713.435 318.068 712.796 318.018C712.161 317.967 704.265 312.939 703.32 313.47C702.374 314.001 693.483 318.866 693.643 319.966C693.804 321.065 696.21 320.6 700.988 317.396C700.988 317.396 694.696 320.892 695.759 321.941C696.819 322.993 702.39 318.959 702.39 318.959C702.39 318.959 696.709 322.298 697.909 323.237C699.108 324.176 704.217 320.064 704.217 320.064C704.217 320.064 700.227 323.136 700.686 323.735C701.146 324.334 703.568 323.557 706.311 321.516C706.311 321.516 707.479 321.682 708.643 322.638C711.05 324.609 717.874 323.046 717.874 323.046L716.458 317.942Z" fill="#FFBB9A"/>
<path d="M755.366 324.34H753.029V427.551H755.366V324.34Z" fill="#7695A8"/>
<path d="M678.943 324.34H676.606V427.551H678.943V324.34Z" fill="#7695A8"/>
<path d="M755.366 324.34H676.606V327.077H755.366V324.34Z" fill="#7695A8"/>
<path d="M711.412 316.618L713.778 325.362C713.778 325.362 748.7 326.399 752.582 323.57C756.464 320.741 783.182 292.718 779.771 285.824C776.36 278.93 771.915 280.608 769.157 284.541C766.617 288.163 749.736 308.317 747.746 310.391C745.859 312.357 711.412 316.618 711.412 316.618Z" fill="#1370B6"/>
<path d="M397.928 346.312L398.045 355.56C398.045 355.56 437.993 358.031 449.205 354.231C460.421 350.435 484.057 319.801 486.078 314.668C488.509 308.498 479.258 293.498 470.102 307.168C460.945 320.839 444.348 339.235 443.414 339.804C442.48 340.376 397.928 346.312 397.928 346.312Z" fill="#AD5C49"/>
<path d="M406.381 351.159C406.381 351.159 402.524 349.961 401.724 349.874C400.924 349.791 391.912 345.417 390.604 345.902C389.292 346.383 376.98 350.785 376.957 351.904C376.935 353.022 380.093 352.693 386.825 349.732C386.825 349.732 378.101 352.901 379.233 354.02C380.366 355.138 388.283 351.387 388.283 351.387C388.283 351.387 380.37 354.435 381.7 355.45C383.031 356.468 390.376 352.607 390.376 352.607C390.376 352.607 384.668 355.481 385.128 356.115C385.591 356.749 388.828 356.097 392.738 354.193C392.738 354.193 393.4 354.016 394.891 354.882C396.379 355.751 407.248 355.554 407.248 355.554L406.381 351.159Z" fill="#F7936A"/>
<path d="M370.808 353.874L384.225 332.313C384.225 332.313 387.423 330.531 387.443 334.229L371.959 354.721C371.959 354.721 368.388 358.898 370.808 353.874Z" fill="black"/>
<path d="M402.089 347.767C402.089 347.767 397.838 347.779 396.946 347.666C396.058 347.553 385.299 339.328 383.939 340.089C382.582 340.846 369.811 347.806 369.968 349.514C370.126 351.222 373.529 350.647 380.426 346.001C380.426 346.001 371.385 351.008 372.81 352.693C374.234 354.374 382.293 348.497 382.293 348.497C382.293 348.497 374.122 353.298 375.745 354.82C377.368 356.342 384.786 350.309 384.786 350.309C384.786 350.309 379.002 354.805 379.609 355.756C380.217 356.707 383.658 355.655 387.635 352.674C387.635 352.674 389.262 353.003 390.836 354.545C394.086 357.728 403.753 355.732 403.753 355.732L402.089 347.767Z" fill="#FFBB9A"/>
<path d="M476.648 283.994C478.032 283.702 484.658 269.425 487.495 266.641C488.856 276.397 494.627 299.524 494.627 299.524C487.623 307.199 473.656 302.497 473.656 302.497C475.945 297.423 477.046 287.311 476.648 283.994Z" fill="#F7936A"/>
<path d="M482.887 248.219C482.887 248.219 470.216 251.142 467.791 254.931C465.361 258.723 465.373 268.586 464.032 271.188C463.219 272.768 462.491 274.041 462.085 274.968C461.729 275.778 462.626 276.253 463.729 276.654C464.292 276.863 464.729 277.33 464.913 277.912C465.66 280.297 467.756 286.384 469.852 287.229C472.465 288.286 485.37 287.878 489.252 276.344C493.133 264.81 491.003 245.747 482.887 248.219Z" fill="#FFBB9A"/>
<path d="M425.321 481.311L434.043 479.845C434.043 479.845 434.486 488.281 435.21 490.213C435.21 490.213 425.429 494.98 415.404 491.209C415.404 491.209 421.792 488.405 423.472 486.416C425.148 484.424 425.321 481.311 425.321 481.311Z" fill="#FFBB9A"/>
<path d="M434.938 486.835C434.938 486.835 428.135 491.633 417.577 490.857C417.577 490.857 404.734 497.821 403.904 499.568C402.744 502.011 408.372 502.165 417.153 501.873C424.645 501.627 424.095 501.055 425.596 499.564C427.097 498.074 428.973 496.419 428.973 496.419C428.973 496.419 429.662 497.356 430.435 501.696L433.782 501.204C433.782 501.204 433.391 497.037 435.006 494.817C436.143 493.246 437.443 489.612 434.938 486.835Z" fill="black"/>
<path d="M462.35 480.52L468.78 478.68C468.78 478.68 472.554 485.277 473.656 487.007C473.656 487.007 465.36 493.891 455.016 492.467C455.016 492.467 460.505 488.273 461.676 485.942C462.847 483.611 462.35 480.52 462.35 480.52Z" fill="#FFBB9A"/>
<path d="M474.063 483.34C474.063 483.34 467.297 489.109 455.996 489.342C455.996 489.342 443.015 498.013 442.307 499.949C441.312 502.655 447.309 502.254 456.615 501.071C464.554 500.06 463.915 499.511 465.367 497.779C466.82 496.048 468.653 494.107 468.653 494.107C468.653 494.107 469.478 495.032 470.721 499.56L474.233 498.705C474.233 498.705 473.412 494.32 474.913 491.802C475.969 490.03 477 486.042 474.063 483.34Z" fill="black"/>
<path d="M494.106 352.854L475.848 365.629C475.848 365.629 416.626 376.911 409.115 382.485C401.599 388.058 456.924 486.835 456.924 486.835L474.151 481.181C474.151 481.181 432.818 393.724 436.577 390.007C440.333 386.294 501.233 380.799 505.067 379.659C508.823 378.543 503.468 365.203 494.106 352.854Z" fill="#DEDFE1"/>
<path d="M494.106 352.854L475.848 365.629C475.848 365.629 416.626 376.911 409.115 382.485C401.599 388.058 456.924 486.835 456.924 486.835L474.151 481.181C474.151 481.181 432.818 393.724 436.577 390.007C440.333 386.294 501.233 380.799 505.067 379.659C508.823 378.543 503.468 365.203 494.106 352.854Z" fill="#5DD4E2"/>
<path d="M498.85 358.68L475.452 360.665C475.452 360.665 413.883 374.357 406.345 381.451C399.618 387.786 418.854 485.671 418.854 485.671L437.181 481.003C437.181 481.003 426.849 393.603 431.343 390.952C435.221 388.665 498.158 388.665 502.087 388.665C507.761 388.665 511.766 371.803 498.85 358.68Z" fill="#43ACB8"/>
<path d="M492.853 293.551C492.853 293.551 483.157 297.96 474.128 300.656C474.128 300.656 463.117 322.395 462.372 328.461C461.631 334.527 455.98 366.211 455.98 366.211C455.98 366.211 490.988 378.385 506.703 370.62C506.703 370.62 501.774 346.174 503.511 333.317C505.241 320.452 503.74 303.084 492.853 293.551Z" fill="#AD5C49"/>
<path d="M488.635 330.536C488.596 341.419 481.599 346.744 474.4 353.78C470.146 357.937 464.739 362.146 462.28 368.227C458.421 367.095 455.978 366.21 455.978 366.21C455.978 366.21 459.406 349.905 461.07 338.01C468.292 334.783 472.124 327.875 474.703 320.529C476.196 316.275 477.007 313.525 479.706 310.36C487.7 310.581 488.185 319.932 488.638 328.67C488.638 329.299 488.638 329.927 488.635 330.536Z" fill="#993821"/>
<path d="M542.064 301.229L518.436 395.69L508.659 393.243L528.978 297.956L542.064 301.229Z" fill="#A7A7A7"/>
<path d="M438.162 398.44H434.249V501.531H438.162V398.44Z" fill="#B6B6B6"/>
<path d="M510.614 398.44H506.7V501.531H510.614V398.44Z" fill="#B6B6B6"/>
<path d="M521.113 388.941H423.747V402.431H521.113V388.941Z" fill="#48525B"/>
<path d="M471.358 259.963C474.646 260.06 477.37 261.182 479.138 264.399C479.959 265.901 480.508 267.892 480.174 269.658C479.994 270.605 477.627 274.513 480.047 274.831C481.179 274.982 482.023 272.576 482.606 271.889C484.164 270.038 485.963 270.62 487.087 272.584C488.468 275.002 487.006 276.728 485.268 278.327C482.79 280.613 484.121 281.215 484.72 284.335C485.472 288.243 483.573 292.232 486.412 295.383C488.475 297.673 490.827 298.43 493.904 297.968C497.314 297.46 500.947 296.87 502.669 293.622C506.083 287.172 501.802 282.282 499.777 276.127C497.467 269.114 499.719 258.318 494.341 252.741C491.61 249.908 487.585 248.546 483.853 248.131C480.086 247.712 476.813 248.375 473.15 249.035C470.315 249.547 467.787 250.77 464.979 251.278C463.08 251.624 462.424 250.944 462.037 252.97C461.845 253.968 462.597 256.234 463.076 257.088C464.645 259.855 467.933 259.979 470.745 259.956C470.952 259.956 471.155 259.96 471.358 259.963Z" fill="#141C1E"/>
<path d="M444.598 356.696H441.227V505.557H444.598V356.696Z" fill="#7695A8"/>
<path d="M334.37 356.695H331V505.556H334.37V356.695Z" fill="#7695A8"/>
<path d="M444.598 356.692H331V360.64H444.598V356.692Z" fill="#7695A8"/>
<path d="M399.093 343.801L399.213 355.856C399.213 355.856 440.212 357.788 451.72 354.008C463.228 350.228 487.487 319.724 489.563 314.613C492.055 308.468 482.561 293.532 473.165 307.145C463.768 320.757 446.737 339.076 445.778 339.642C444.819 340.208 399.093 343.801 399.093 343.801Z" fill="#AD5C49"/>
<path d="M606.848 541.868C606.848 541.868 593.214 548.914 585.907 552.081C579.835 554.718 581.094 560.522 587.997 562.669C594.901 564.812 600.588 563.406 602.161 561.106C603.73 558.811 607.593 559.666 609.056 560.403C610.519 561.143 622.035 558.358 622.686 555.557C623.337 552.756 620.478 540.428 620.478 540.428L606.848 541.868Z" fill="black"/>
<path d="M676.258 416.932L653.524 417.232C653.524 417.232 597.904 438.187 590.638 443.686C583.372 449.189 602.58 545.088 602.58 545.088L621.454 543.09C621.454 543.09 617.001 457.288 620.634 453.619C624.267 449.954 683.147 444.525 686.857 443.402C690.486 442.298 685.306 429.12 676.258 416.932Z" fill="#AD5C49"/>
<path d="M676.258 416.932L653.524 417.232C653.524 417.232 597.904 438.187 590.638 443.686C583.372 449.189 602.58 545.088 602.58 545.088L621.454 543.09C621.454 543.09 617.001 457.288 620.634 453.619C624.267 449.954 683.147 444.525 686.857 443.402C690.486 442.298 685.306 429.12 676.258 416.932Z" fill="#993821"/>
<path d="M723.23 366.265L699.959 459.291L690.329 456.882L710.342 363.042L723.23 366.265Z" fill="#A7A7A7"/>
<path d="M620.899 461.998H617.044V563.533H620.899V461.998Z" fill="#B6B6B6"/>
<path d="M692.256 461.998H688.4V563.533H692.256V461.998Z" fill="#B6B6B6"/>
<path d="M702.596 452.647H606.704V465.935H702.596V452.647Z" fill="#48525B"/>
<path d="M671.263 324.893L657.734 327.668C657.734 327.668 661.625 343.647 657.734 352.451C657.734 352.451 665.109 355.233 677.54 346.188C677.54 346.184 669.882 339.964 671.263 324.893Z" fill="#F7936A"/>
<path d="M672.201 307.703C672.201 307.703 657.56 302.412 653.631 304.348C649.705 306.281 644.93 309.129 645.671 311.981C646.413 314.829 646.972 323.247 646.017 325.891C645.062 328.538 643.415 330.37 643.815 331.286C644.215 332.198 646.522 331.479 647.158 332.604C647.795 333.728 651.216 341.13 653.207 342.198C655.195 343.267 666.552 339.428 671.805 327.6C677.054 315.767 675.463 309.714 672.201 307.703Z" fill="#FFBB9A"/>
<path d="M590.068 543.923C590.068 543.923 572.296 549.968 564.974 552.842C558.886 555.227 560.092 560.627 566.959 562.684C573.827 564.737 579.52 563.481 581.109 561.367C582.699 559.253 586.548 560.081 588.001 560.779C589.453 561.482 600.976 559.005 601.649 556.414C602.323 553.822 600.686 546.24 600.686 546.24L590.068 543.923Z" fill="black"/>
<path d="M680.267 316.047C679.924 314.654 679.181 313.209 679.033 311.761C678.881 310.316 680.318 299.452 667.085 300.802C666.415 300.869 665.792 300.861 665.185 300.719C663.016 300.212 661.111 298.499 658.81 298.188C651.465 297.212 647.022 304.384 640.273 304.731C640.051 306.64 642.423 309.671 643.599 311.17C645.032 312.989 647.337 314.197 649.475 314.886C651.831 315.646 654.982 315.744 657.521 315.477C658.872 315.339 661.314 313.784 662.482 314.934C663.682 316.114 662.747 320.618 662.848 322.165C662.926 323.298 662.735 324.243 663.997 324.719C664.126 324.77 664.242 324.794 664.355 324.802C664.464 324.79 664.573 324.774 664.682 324.766C666.014 324.353 665.742 320.535 666.092 319.421C667.315 315.492 671.945 315.977 672.529 319.799C673.032 323.07 669.916 325.321 669.009 325.904C668.9 326.463 668.818 326.99 668.767 327.494C668.436 330.714 671.887 332.934 674.694 331.372C676.957 330.112 678.694 328.463 680.127 325.507C681.591 322.499 681.019 319.13 680.267 316.047Z" fill="#141C1E"/>
<path d="M683.348 414.602L657.632 419.686C657.632 419.686 599.204 440.635 591.844 446.11C584.485 451.588 583.171 545.576 583.171 545.576L602.35 547.418C602.35 547.418 610.559 458.073 615.05 455.465C618.92 453.213 681.781 453.213 685.702 453.213C691.37 453.213 696.251 427.522 683.348 414.602Z" fill="#AD5C49"/>
<path d="M578.511 406.269L580.824 418.097C580.824 418.097 630.037 409.646 635.34 405.742C640.643 401.839 672.413 367.681 667.755 358.169C663.094 348.656 657.049 350.999 653.252 356.398C649.455 361.801 631.993 389.301 629.403 392.002C626.812 394.704 578.511 406.269 578.511 406.269Z" fill="#1370B6"/>
<path d="M676.482 346.011C676.482 346.011 663.644 352.511 656.387 352.1C656.387 352.1 644.639 376.791 643.848 383.4C643.053 390.005 634.109 426.017 634.109 426.017C634.109 426.017 673.127 439.502 691.2 428.856C691.2 428.856 685.86 402.684 687.71 388.682C689.56 374.681 688.094 356.39 676.482 346.011Z" fill="#1370B6"/>
<path d="M670.986 391.91C673.825 385.363 684.941 374.813 679.348 367.455C674.849 361.545 671.622 361.137 666.681 366.773C662.05 372.052 657.814 377.737 652.551 382.403C649.79 384.851 646.691 386.821 643.669 388.904C643.669 402.478 634.109 426.017 634.109 426.017C634.109 426.017 654.304 432.483 665.339 432.645C659.428 419.757 665.024 405.655 670.986 391.91Z" fill="#004D7D"/>
<path d="M592.756 410.039C592.756 410.039 588.75 411.708 587.92 411.622C587.089 411.539 577.731 407.165 576.372 407.65C575.01 408.131 562.224 412.533 562.2 413.651C562.173 414.77 565.457 414.437 572.448 411.476C572.448 411.476 563.388 414.649 564.564 415.767C565.74 416.886 573.962 413.132 573.962 413.132C573.962 413.132 565.744 416.179 567.126 417.198C568.508 418.216 576.135 414.354 576.135 414.354C576.135 414.354 570.208 417.229 570.685 417.863C571.167 418.496 574.528 417.845 578.588 415.941C578.588 415.941 579.275 415.76 580.824 416.63C582.369 417.499 593.657 414.434 593.657 414.434L592.756 410.039Z" fill="#F7936A"/>
<path d="M555.945 415.425L568.257 391.83C568.257 391.83 571.34 389.786 571.521 393.736L557.12 416.283C557.116 416.279 553.769 420.89 555.945 415.425Z" fill="black"/>
<path d="M586.955 409.458C586.955 409.458 582.594 409.64 581.673 409.567C580.756 409.495 569.369 402.243 568.005 403.009C566.641 403.774 553.817 410.791 554.048 412.377C554.279 413.963 557.75 413.291 564.642 408.671C564.642 408.671 555.566 413.712 557.099 415.226C558.628 416.743 566.664 410.925 566.664 410.925C566.664 410.925 558.47 415.741 560.2 417.095C561.93 418.449 569.299 412.518 569.299 412.518C569.299 412.518 563.544 416.95 564.207 417.814C564.869 418.678 568.363 417.556 572.32 414.613C572.32 414.613 574.003 414.852 575.683 416.231C579.154 419.073 588.996 416.819 588.996 416.819L586.955 409.458Z" fill="#FFBB9A"/>
<path d="M643.072 418.686H639.702V567.551H643.072V418.686Z" fill="#7695A8"/>
<path d="M532.845 418.686H529.475V567.551H532.845V418.686Z" fill="#7695A8"/>
<path d="M643.072 418.686H529.475V422.634H643.072V418.686Z" fill="#7695A8"/>
<path d="M579.676 407.548L583.09 420.16C583.09 420.16 633.458 421.656 639.057 417.576C644.656 413.495 683.192 373.076 678.272 363.133C673.353 353.189 666.942 355.61 662.965 361.282C659.3 366.507 634.952 395.575 632.083 398.566C629.36 401.402 579.676 407.548 579.676 407.548Z" fill="#1370B6"/>
<path d="M543 118.414H535.587V110.224H531.413V118.414H524V123.027H531.413V131.224H535.587V123.027H543V118.414Z" fill="#CCCCCC"/>
<path d="M307 507.024H299.197V499.224H294.807V507.024H287V511.418H294.807V519.224H299.197V511.418H307V507.024Z" fill="white"/>
<path d="M138 329.028H130.197V321.224H125.807V329.028H118V333.421H125.807V341.224H130.197V333.421H138V329.028Z" fill="white"/>
<path d="M104.656 137.125C104.656 143.204 97.0093 144.995 97.0093 147.362V148.3H89.3625V146.063C89.3625 142.801 95.1784 140.923 95.1784 137.301C95.1784 135.647 94.1031 134.172 92.2289 134.172C89.812 134.172 89.3193 136.05 89.3193 137.931C89.3193 138.33 89.3193 138.733 89.3625 139.136H81.1365C81.0899 138.553 81 138.017 81 137.434C81 131.622 86.1866 128 93.2076 128C100.049 128.003 104.656 131.582 104.656 137.125ZM97.6785 159.303H88.8266V151.034H97.6785V159.303Z" fill="#CCCCCC"/>
<path d="M608.288 121.93V146.019L605.694 162.807H597.009L594.416 146.019V121.93H608.288ZM607.705 173.377C607.705 177.332 604.985 180.055 601.03 180.055C597.142 180.055 594.419 177.332 594.419 173.377C594.419 169.489 597.142 166.766 601.03 166.766C604.985 166.762 607.705 169.489 607.705 173.377Z" fill="#CCCCCC"/>
<path d="M527.376 240.587H516.463V230.343H527.376V240.587Z" fill="white"/>
<path d="M544.517 240.587H533.604V230.343H544.517V240.587Z" fill="white"/>
<path d="M561.665 240.587H550.752V230.343H561.665V240.587Z" fill="white"/>
<path d="M301.466 331.77H290.553V321.53H301.466V331.77Z" fill="white"/>
<path d="M318.61 331.77H307.697V321.53H318.61V331.77Z" fill="white"/>
<path d="M335.754 331.77H324.842V321.53H335.754V331.77Z" fill="white"/>
<path d="M355.002 186.729H496.905C500.824 186.729 504 183.553 504 179.634V88.2335C504 84.3148 500.824 81.1392 496.905 81.1392H355.002C351.083 81.1392 347.908 84.3148 347.908 88.2335V119.132L303.36 122.516L347.908 156.095V179.634C347.908 183.553 351.083 186.729 355.002 186.729Z" fill="#FA1E4A"/>
<path d="M448.314 119.803C448.314 131.625 433.443 135.103 433.443 139.715V141.543H418.566V137.189C418.566 130.843 429.876 127.194 429.876 120.144C429.876 116.924 427.785 114.057 424.136 114.057C419.435 114.057 418.483 117.711 418.483 121.366C418.483 122.147 418.483 122.929 418.566 123.716H402.566C402.478 122.582 402.302 121.536 402.302 120.408C402.302 109.098 412.391 102.059 426.046 102.059C439.354 102.064 448.314 109.016 448.314 119.803ZM434.747 162.936H417.531V146.848H434.747V162.936Z" fill="white"/>
</svg>
