<svg width="596" height="218" viewBox="0 0 596 218" fill="none" xmlns="http://www.w3.org/2000/svg">
<path d="M166.318 42.0103H52.4016V180.531H166.318V42.0103Z" fill="white"/>
<mask id="mask0" mask-type="alpha" maskUnits="userSpaceOnUse" x="18" y="5" width="184" height="208">
<path d="M115.982 7.37121L194.846 52.7543C198.771 55.0129 201.189 59.1868 201.189 63.704V154.47C201.189 158.987 198.771 163.161 194.846 165.42L115.982 210.803C112.057 213.061 107.221 213.061 103.296 210.803L24.4317 165.42C20.5069 163.161 18.089 158.987 18.0889 154.47V63.704C18.089 59.1868 20.5069 55.0129 24.4317 52.7543L103.296 7.37121C107.221 5.11259 112.057 5.11259 115.982 7.37121ZM106.656 100.761H99.0981V124.152H106.656V100.761ZM120.379 103.338H112.821V124.152H120.379V103.338ZM92.9327 124.152V106.114H85.3751V124.152H92.9327ZM133.903 124.152V91.4446H126.345V124.152H133.903C134.102 124.152 134.102 124.152 133.903 124.152ZM121.969 81.7313L125.152 84.5066L115.605 95.211L102.678 83.5154C101.883 82.9208 100.689 82.9208 100.093 83.7136L89.5517 95.4092H88.7562C86.7673 95.4092 85.1762 96.9951 85.1762 98.9774C85.1762 100.96 86.7673 102.545 88.7562 102.545C90.7449 102.545 92.336 100.96 92.336 98.9774C92.336 98.5809 92.336 98.1844 92.1372 97.7879L101.485 87.2818L114.81 98.9774C115.207 99.1756 115.605 99.3738 116.004 99.3738C116.599 99.3738 116.998 99.1755 117.396 98.7791L128.136 86.6871L131.517 89.6605L131.914 79.7491L121.969 81.7313ZM140.267 47.0412H79.0108C75.0331 47.0412 71.851 50.2128 71.851 54.1775V163.996C71.851 167.961 75.0331 171.132 79.0108 171.132H140.267C144.245 171.132 147.428 167.961 147.428 163.996V54.1775C147.428 50.2128 144.245 47.0412 140.267 47.0412ZM115.804 164.195C115.009 164.988 114.015 165.384 112.821 165.384H107.65C105.264 165.384 103.076 163.403 103.275 161.023C103.275 160.033 103.871 159.041 104.468 158.446C105.263 157.653 106.258 157.257 107.451 157.257H112.622C115.009 157.257 117.196 159.239 116.998 161.618C116.799 162.609 116.401 163.403 115.804 164.195ZM140.267 150.715H79.0108V52.7898H140.267V150.715Z" fill="white"/>
</mask>
<g mask="url(#mask0)">
<path d="M202.355 262.457C271.97 221.08 294.874 131.499 253.515 62.3732C212.156 -6.75332 122.195 -29.249 52.5815 12.1278C-17.0321 53.5046 -39.937 143.085 1.42202 212.212C42.781 281.338 132.742 303.834 202.355 262.457Z" fill="#734563"/>
<path opacity="0.54" d="M57.9289 123.053C99.215 98.514 112.799 45.386 88.2702 4.38883C63.7413 -36.6084 10.3877 -49.95 -30.8983 -25.4105C-72.1843 -0.871045 -85.7685 52.2569 -61.2396 93.2542C-36.7106 134.252 16.643 147.593 57.9289 123.053Z" fill="#F67A81"/>
<path opacity="0.54" d="M262.521 261.516C303.806 236.976 317.391 183.849 292.862 142.851C268.333 101.854 214.979 88.5124 173.693 113.052C132.407 137.591 118.823 190.719 143.351 231.717C167.881 272.713 221.235 286.056 262.521 261.516Z" fill="#FFCBC4"/>
</g>
<path d="M291.803 61.2871C291.803 68.6712 290.526 75.1582 287.973 80.748C285.419 86.3034 281.762 90.582 277 93.584C272.273 96.5514 266.821 98.0352 260.645 98.0352C254.537 98.0352 249.085 96.5514 244.289 93.584C239.527 90.582 235.835 86.3206 233.213 80.7998C230.625 75.279 229.314 68.9128 229.279 61.7012V57.457C229.279 50.1074 230.573 43.6204 233.161 37.9961C235.784 32.3717 239.458 28.0758 244.186 25.1084C248.947 22.1064 254.399 20.6055 260.541 20.6055C266.683 20.6055 272.118 22.0892 276.845 25.0566C281.606 27.9896 285.281 32.2337 287.869 37.7891C290.457 43.3099 291.768 49.7451 291.803 57.0947V61.2871ZM278.708 57.3535C278.708 49.0033 277.121 42.6025 273.946 38.1514C270.806 33.7002 266.338 31.4746 260.541 31.4746C254.882 31.4746 250.448 33.7002 247.239 38.1514C244.065 42.568 242.443 48.8307 242.374 56.9395V61.2871C242.374 69.5684 243.979 75.9691 247.188 80.4893C250.431 85.0094 254.917 87.2695 260.645 87.2695C266.441 87.2695 270.893 85.0612 273.998 80.6445C277.138 76.2279 278.708 69.7754 278.708 61.2871V57.3535ZM364.626 97H351.531L317.94 43.5342V97H304.846V21.6406H317.94L351.635 75.3135V21.6406H364.626V97ZM393.196 86.5449H427.408V97H380.102V21.6406H393.196V86.5449ZM451.269 97H438.226V21.6406H451.269V97ZM527.146 97H514.051L480.46 43.5342V97H467.365V21.6406H480.46L514.154 75.3135V21.6406H527.146V97ZM586.667 63.3574H555.716V86.5449H591.895V97H542.621V21.6406H591.532V32.1992H555.716V53.0059H586.667V63.3574Z" fill="#734563"/>
<path d="M279.483 164.864C278.86 171.463 276.424 176.617 272.176 180.327C267.928 184.009 262.278 185.85 255.227 185.85C250.299 185.85 245.952 184.688 242.185 182.366C238.447 180.016 235.558 176.688 233.519 172.383C231.48 168.079 230.418 163.08 230.333 157.388V151.61C230.333 145.776 231.367 140.636 233.434 136.19C235.501 131.744 238.461 128.317 242.312 125.91C246.192 123.502 250.667 122.299 255.736 122.299C262.562 122.299 268.056 124.154 272.219 127.864C276.382 131.574 278.803 136.813 279.483 143.582H268.778C268.268 139.135 266.965 135.935 264.87 133.981C262.802 131.999 259.758 131.007 255.736 131.007C251.063 131.007 247.467 132.721 244.946 136.147C242.454 139.546 241.18 144.544 241.123 151.143V156.623C241.123 163.307 242.312 168.404 244.691 171.916C247.099 175.428 250.61 177.184 255.227 177.184C259.446 177.184 262.618 176.235 264.742 174.337C266.866 172.44 268.211 169.282 268.778 164.864H279.483ZM299.874 176.419H327.953V185H289.126V123.148H299.874V176.419ZM371.666 170.599H347.707L342.694 185H331.521L354.886 123.148H364.529L387.936 185H376.721L371.666 170.599ZM350.723 161.933H368.649L359.686 136.275L350.723 161.933ZM427.315 169.07C427.315 166.351 426.352 164.255 424.426 162.783C422.529 161.31 419.088 159.823 414.104 158.322C409.119 156.821 405.154 155.15 402.209 153.31C396.573 149.77 393.755 145.153 393.755 139.461C393.755 134.477 395.78 130.37 399.83 127.142C403.908 123.913 409.19 122.299 415.675 122.299C419.98 122.299 423.817 123.092 427.188 124.678C430.558 126.264 433.206 128.529 435.131 131.475C437.057 134.392 438.02 137.634 438.02 141.203H427.315C427.315 137.974 426.295 135.454 424.256 133.641C422.246 131.8 419.357 130.88 415.59 130.88C412.079 130.88 409.346 131.63 407.392 133.131C405.466 134.632 404.503 136.728 404.503 139.418C404.503 141.684 405.551 143.582 407.646 145.111C409.742 146.612 413.197 148.084 418.012 149.529C422.826 150.945 426.692 152.573 429.609 154.414C432.526 156.227 434.664 158.322 436.023 160.701C437.383 163.052 438.062 165.813 438.062 168.985C438.062 174.139 436.08 178.246 432.115 181.304C428.179 184.334 422.826 185.85 416.058 185.85C411.583 185.85 407.462 185.028 403.696 183.386C399.958 181.715 397.041 179.421 394.945 176.504C392.877 173.587 391.844 170.188 391.844 166.309H402.591C402.591 169.82 403.752 172.539 406.075 174.465C408.397 176.391 411.725 177.354 416.058 177.354C419.796 177.354 422.6 176.603 424.469 175.102C426.366 173.573 427.315 171.562 427.315 169.07ZM479.821 169.07C479.821 166.351 478.858 164.255 476.932 162.783C475.035 161.31 471.594 159.823 466.609 158.322C461.625 156.821 457.66 155.15 454.715 153.31C449.079 149.77 446.261 145.153 446.261 139.461C446.261 134.477 448.286 130.37 452.336 127.142C456.414 123.913 461.696 122.299 468.181 122.299C472.486 122.299 476.323 123.092 479.693 124.678C483.063 126.264 485.711 128.529 487.637 131.475C489.563 134.392 490.526 137.634 490.526 141.203H479.821C479.821 137.974 478.801 135.454 476.762 133.641C474.751 131.8 471.863 130.88 468.096 130.88C464.584 130.88 461.852 131.63 459.897 133.131C457.972 134.632 457.009 136.728 457.009 139.418C457.009 141.684 458.057 143.582 460.152 145.111C462.248 146.612 465.703 148.084 470.518 149.529C475.332 150.945 479.198 152.573 482.115 154.414C485.032 156.227 487.17 158.322 488.529 160.701C489.889 163.052 490.568 165.813 490.568 168.985C490.568 174.139 488.586 178.246 484.621 181.304C480.685 184.334 475.332 185.85 468.563 185.85C464.089 185.85 459.968 185.028 456.202 183.386C452.463 181.715 449.546 179.421 447.451 176.504C445.383 173.587 444.35 170.188 444.35 166.309H455.097C455.097 169.82 456.258 172.539 458.581 174.465C460.903 176.391 464.23 177.354 468.563 177.354C472.302 177.354 475.105 176.603 476.975 175.102C478.872 173.573 479.821 171.562 479.821 169.07ZM536.15 157.388H510.747V176.419H540.44V185H499.999V123.148H540.143V131.814H510.747V148.892H536.15V157.388ZM581.519 169.07C581.519 166.351 580.556 164.255 578.63 162.783C576.733 161.31 573.292 159.823 568.308 158.322C563.323 156.821 559.358 155.15 556.413 153.31C550.777 149.77 547.959 145.153 547.959 139.461C547.959 134.477 549.984 130.37 554.034 127.142C558.112 123.913 563.394 122.299 569.879 122.299C574.184 122.299 578.021 123.092 581.392 124.678C584.762 126.264 587.41 128.529 589.335 131.475C591.261 134.392 592.224 137.634 592.224 141.203H581.519C581.519 137.974 580.5 135.454 578.46 133.641C576.45 131.8 573.561 130.88 569.794 130.88C566.283 130.88 563.55 131.63 561.596 133.131C559.67 134.632 558.707 136.728 558.707 139.418C558.707 141.684 559.755 143.582 561.851 145.111C563.946 146.612 567.401 148.084 572.216 149.529C577.03 150.945 580.896 152.573 583.813 154.414C586.73 156.227 588.868 158.322 590.228 160.701C591.587 163.052 592.267 165.813 592.267 168.985C592.267 174.139 590.284 178.246 586.319 181.304C582.383 184.334 577.03 185.85 570.262 185.85C565.787 185.85 561.667 185.028 557.9 183.386C554.162 181.715 551.245 179.421 549.149 176.504C547.082 173.587 546.048 170.188 546.048 166.309H556.795C556.795 169.82 557.957 172.539 560.279 174.465C562.601 176.391 565.929 177.354 570.262 177.354C574 177.354 576.804 176.603 578.673 175.102C580.57 173.573 581.519 171.562 581.519 169.07Z" fill="#4F4F4F"/>
</svg>
