<svg width="685" height="218" viewBox="0 0 685 218" fill="none" xmlns="http://www.w3.org/2000/svg">
<path d="M166.318 42.0103H52.4016V180.531H166.318V42.0103Z" fill="white"/>
<mask id="mask0" mask-type="alpha" maskUnits="userSpaceOnUse" x="18" y="5" width="184" height="208">
<path d="M115.982 7.37121L194.846 52.7543C198.771 55.0129 201.189 59.1868 201.189 63.704V154.47C201.189 158.987 198.771 163.161 194.846 165.42L115.982 210.803C112.057 213.061 107.221 213.061 103.296 210.803L24.4317 165.42C20.5069 163.161 18.089 158.987 18.0889 154.47V63.704C18.089 59.1868 20.5069 55.0129 24.4317 52.7543L103.296 7.37121C107.221 5.11259 112.057 5.11259 115.982 7.37121ZM106.656 100.761H99.0981V124.152H106.656V100.761ZM120.379 103.338H112.821V124.152H120.379V103.338ZM92.9327 124.152V106.114H85.3751V124.152H92.9327ZM133.903 124.152V91.4446H126.345V124.152H133.903C134.102 124.152 134.102 124.152 133.903 124.152ZM121.969 81.7313L125.152 84.5066L115.605 95.211L102.678 83.5154C101.883 82.9208 100.689 82.9208 100.093 83.7136L89.5517 95.4092H88.7562C86.7673 95.4092 85.1762 96.9951 85.1762 98.9774C85.1762 100.96 86.7673 102.545 88.7562 102.545C90.7449 102.545 92.336 100.96 92.336 98.9774C92.336 98.5809 92.336 98.1844 92.1372 97.7879L101.485 87.2818L114.81 98.9774C115.207 99.1756 115.605 99.3738 116.004 99.3738C116.599 99.3738 116.998 99.1755 117.396 98.7791L128.136 86.6871L131.517 89.6605L131.914 79.7491L121.969 81.7313ZM140.267 47.0412H79.0108C75.0331 47.0412 71.851 50.2128 71.851 54.1775V163.996C71.851 167.961 75.0331 171.132 79.0108 171.132H140.267C144.245 171.132 147.428 167.961 147.428 163.996V54.1775C147.428 50.2128 144.245 47.0412 140.267 47.0412ZM115.804 164.195C115.009 164.988 114.015 165.384 112.821 165.384H107.65C105.264 165.384 103.076 163.403 103.275 161.023C103.275 160.033 103.871 159.041 104.468 158.446C105.263 157.653 106.258 157.257 107.451 157.257H112.622C115.009 157.257 117.196 159.239 116.998 161.618C116.799 162.609 116.401 163.403 115.804 164.195ZM140.267 150.715H79.0108V52.7898H140.267V150.715Z" fill="white"/>
</mask>
<g mask="url(#mask0)">
<path d="M202.355 262.457C271.97 221.08 294.874 131.499 253.515 62.3732C212.156 -6.75332 122.195 -29.249 52.5815 12.1278C-17.0321 53.5046 -39.937 143.085 1.42202 212.212C42.781 281.338 132.742 303.834 202.355 262.457Z" fill="#734563"/>
<path opacity="0.54" d="M57.9289 123.053C99.215 98.514 112.799 45.386 88.2702 4.38883C63.7413 -36.6084 10.3877 -49.95 -30.8983 -25.4105C-72.1843 -0.871045 -85.7685 52.2569 -61.2396 93.2542C-36.7106 134.252 16.643 147.593 57.9289 123.053Z" fill="#F67A81"/>
<path opacity="0.54" d="M262.521 261.516C303.806 236.976 317.391 183.849 292.862 142.851C268.333 101.854 214.979 88.5124 173.693 113.052C132.407 137.591 118.823 190.719 143.351 231.717C167.881 272.713 221.235 286.056 262.521 261.516Z" fill="#FFCBC4"/>
</g>
<path d="M243.972 68.0557V95H231.371V22.4844H259.112C267.214 22.4844 273.639 24.5928 278.387 28.8096C283.168 33.0264 285.559 38.6045 285.559 45.5439C285.559 52.6494 283.218 58.1777 278.536 62.1289C273.888 66.0801 267.363 68.0557 258.963 68.0557H243.972ZM243.972 57.9453H259.112C263.595 57.9453 267.015 56.8994 269.372 54.8076C271.729 52.6826 272.908 49.6279 272.908 45.6436C272.908 41.7256 271.713 38.6045 269.322 36.2803C266.932 33.9229 263.645 32.7109 259.461 32.6445H243.972V57.9453ZM323.261 67.0596H309.216V95H296.615V22.4844H322.115C330.482 22.4844 336.94 24.3604 341.489 28.1123C346.038 31.8643 348.312 37.293 348.312 44.3984C348.312 49.2461 347.134 53.3135 344.776 56.6006C342.452 59.8545 339.198 62.3613 335.015 64.1211L351.301 94.3525V95H337.804L323.261 67.0596ZM309.216 56.9492H322.165C326.415 56.9492 329.735 55.8867 332.126 53.7617C334.517 51.6035 335.712 48.665 335.712 44.9463C335.712 41.0615 334.6 38.0566 332.375 35.9316C330.184 33.8066 326.896 32.7109 322.514 32.6445H309.216V56.9492ZM402.649 62.627H372.866V84.9395H407.68V95H360.266V22.4844H407.331V32.6445H372.866V52.666H402.649V62.627ZM434.275 22.4844L455.193 78.0664L476.062 22.4844H492.348V95H479.797V71.0938L481.042 39.1191L459.626 95H450.611L429.245 39.1689L430.49 71.0938V95H417.939V22.4844H434.275ZM520.587 95H508.036V22.4844H520.587V95ZM589.118 22.4844V70.9443C589.118 78.6475 586.645 84.7568 581.697 89.2725C576.783 93.7549 570.226 95.9961 562.024 95.9961C553.724 95.9961 547.133 93.7881 542.252 89.3721C537.371 84.9229 534.931 78.7637 534.931 70.8945V22.4844H547.481V70.9941C547.481 75.8418 548.71 79.5439 551.167 82.1006C553.624 84.6572 557.243 85.9355 562.024 85.9355C571.72 85.9355 576.567 80.8223 576.567 70.5957V22.4844H589.118ZM618.951 22.4844L639.869 78.0664L660.737 22.4844H677.023V95H664.473V71.0938L665.718 39.1191L644.302 95H635.287L613.921 39.1689L615.166 71.0938V95H602.615V22.4844H618.951Z" fill="#734563"/>
<path d="M266.909 170.599H242.95L237.937 185H226.765L250.129 123.148H259.772L283.179 185H271.964L266.909 170.599ZM245.966 161.933H263.893L254.929 136.275L245.966 161.933ZM300.978 176.419H329.058V185H290.23V123.148H300.978V176.419ZM348.046 176.419H376.126V185H337.299V123.148H348.046V176.419ZM417.375 185H406.669V123.148H417.375V185ZM479.651 185H468.903L441.333 141.118V185H430.586V123.148H441.333L468.988 167.201V123.148H479.651V185ZM563.38 155.688C563.38 161.749 562.332 167.073 560.236 171.661C558.141 176.221 555.139 179.732 551.23 182.196C547.351 184.632 542.876 185.85 537.807 185.85C532.794 185.85 528.319 184.632 524.383 182.196C520.475 179.732 517.444 176.235 515.292 171.704C513.168 167.172 512.092 161.947 512.063 156.028V152.545C512.063 146.513 513.125 141.188 515.25 136.572C517.402 131.956 520.418 128.43 524.298 125.995C528.206 123.531 532.681 122.299 537.722 122.299C542.763 122.299 547.223 123.517 551.103 125.952C555.011 128.359 558.027 131.843 560.151 136.402C562.275 140.934 563.352 146.215 563.38 152.248V155.688ZM552.632 152.46C552.632 145.606 551.33 140.353 548.724 136.7C546.147 133.046 542.479 131.22 537.722 131.22C533.077 131.22 529.438 133.046 526.804 136.7C524.199 140.325 522.868 145.465 522.811 152.12V155.688C522.811 162.485 524.128 167.739 526.762 171.449C529.424 175.159 533.105 177.014 537.807 177.014C542.564 177.014 546.218 175.201 548.767 171.576C551.344 167.951 552.632 162.655 552.632 155.688V152.46ZM623.15 185H612.402L584.833 141.118V185H574.085V123.148H584.833L612.487 167.201V123.148H623.15V185ZM672.002 157.388H646.599V176.419H676.293V185H635.852V123.148H675.996V131.814H646.599V148.892H672.002V157.388Z" fill="#4F4F4F"/>
</svg>
